<ttFont>
<head>
    <!-- Most of this table will be recalculated by the compiler -->
    <tableVersion value="1.0"/>
    <fontRevision value="5.0"/>
    <checkSumAdjustment value="0xf9a462ec"/>
    <magicNumber value="0x5f0f3cf5"/>
    <flags value="00000000 00001011"/>
    <unitsPerEm value="2048"/>
    <created value="Sun May 15 08:57:39 2005"/>
    <modified value="Fri Apr 15 06:19:10 2011"/>
    <xMin value="-1667"/>
    <yMin value="-1212"/>
    <xMax value="6869"/>
    <yMax value="2297"/>
    <macStyle value="00000000 00000000"/>
    <lowestRecPPEM value="8"/>
    <fontDirectionHint value="2"/>
    <indexToLocFormat value="1"/>
    <glyphDataFormat value="0"/>
  </head>
    <TTGlyph name=".notdef" xMin="142" yMin="226" xMax="842" yMax="1588">
      <contour>
        <pt x="142" y="226" on="1"/>
        <pt x="142" y="1588" on="1"/>
        <pt x="842" y="1588" on="1"/>
        <pt x="842" y="226" on="1"/>
      </contour>
      <contour>
        <pt x="284" y="368" on="1"/>
        <pt x="700" y="368" on="1"/>
        <pt x="700" y="1447" on="1"/>
        <pt x="284" y="1447" on="1"/>
      </contour>
    </TTGlyph>
    <TTGlyph name=".null" xMin="142" yMin="226" xMax="842" yMax="1588">
      <contour>
        <pt x="142" y="226" on="1"/>
        <pt x="142" y="1588" on="1"/>
        <pt x="842" y="1588" on="1"/>
        <pt x="842" y="226" on="1"/>
      </contour>
      <contour>
        <pt x="284" y="368" on="1"/>
        <pt x="700" y="368" on="1"/>
        <pt x="700" y="1447" on="1"/>
        <pt x="284" y="1447" on="1"/>
      </contour>
    </TTGlyph>
    <TTGlyph name="afii57381" xMin="142" yMin="226" xMax="842" yMax="1588">
      <contour>
        <pt x="142" y="226" on="1"/>
        <pt x="142" y="1588" on="1"/>
        <pt x="842" y="1588" on="1"/>
        <pt x="842" y="226" on="1"/>
      </contour>
      <contour>
        <pt x="284" y="368" on="1"/>
        <pt x="700" y="368" on="1"/>
        <pt x="700" y="1447" on="1"/>
        <pt x="284" y="1447" on="1"/>
      </contour>
    </TTGlyph>
    <TTGlyph name="afii57388" xMin="142" yMin="226" xMax="842" yMax="1588">
      <contour>
        <pt x="142" y="226" on="1"/>
        <pt x="142" y="1588" on="1"/>
        <pt x="842" y="1588" on="1"/>
        <pt x="842" y="226" on="1"/>
      </contour>
      <contour>
        <pt x="284" y="368" on="1"/>
        <pt x="700" y="368" on="1"/>
        <pt x="700" y="1447" on="1"/>
        <pt x="284" y="1447" on="1"/>
      </contour>
    </TTGlyph>
    <TTGlyph name="afii57396" xMin="142" yMin="226" xMax="842" yMax="1588">
      <contour>
        <pt x="142" y="226" on="1"/>
        <pt x="142" y="1588" on="1"/>
        <pt x="842" y="1588" on="1"/>
        <pt x="842" y="226" on="1"/>
      </contour>
      <contour>
        <pt x="284" y="368" on="1"/>
        <pt x="700" y="368" on="1"/>
        <pt x="700" y="1447" on="1"/>
        <pt x="284" y="1447" on="1"/>
      </contour>
    </TTGlyph>
    <TTGlyph name="afii57397" xMin="142" yMin="226" xMax="842" yMax="1588">
      <contour>
        <pt x="142" y="226" on="1"/>
        <pt x="142" y="1588" on="1"/>
        <pt x="842" y="1588" on="1"/>
        <pt x="842" y="226" on="1"/>
      </contour>
      <contour>
        <pt x="284" y="368" on="1"/>
        <pt x="700" y="368" on="1"/>
        <pt x="700" y="1447" on="1"/>
        <pt x="284" y="1447" on="1"/>
      </contour>
    </TTGlyph>
    <TTGlyph name="afii57398" xMin="142" yMin="226" xMax="842" yMax="1588">
      <contour>
        <pt x="142" y="226" on="1"/>
        <pt x="142" y="1588" on="1"/>
        <pt x="842" y="1588" on="1"/>
        <pt x="842" y="226" on="1"/>
      </contour>
      <contour>
        <pt x="284" y="368" on="1"/>
        <pt x="700" y="368" on="1"/>
        <pt x="700" y="1447" on="1"/>
        <pt x="284" y="1447" on="1"/>
      </contour>
    </TTGlyph>
    <TTGlyph name="afii57403" xMin="142" yMin="226" xMax="842" yMax="1588">
      <contour>
        <pt x="142" y="226" on="1"/>
        <pt x="142" y="1588" on="1"/>
        <pt x="842" y="1588" on="1"/>
        <pt x="842" y="226" on="1"/>
      </contour>
      <contour>
        <pt x="284" y="368" on="1"/>
        <pt x="700" y="368" on="1"/>
        <pt x="700" y="1447" on="1"/>
        <pt x="284" y="1447" on="1"/>
      </contour>
    </TTGlyph>
    <TTGlyph name="afii57407" xMin="142" yMin="226" xMax="842" yMax="1588">
      <contour>
        <pt x="142" y="226" on="1"/>
        <pt x="142" y="1588" on="1"/>
        <pt x="842" y="1588" on="1"/>
        <pt x="842" y="226" on="1"/>
      </contour>
      <contour>
        <pt x="284" y="368" on="1"/>
        <pt x="700" y="368" on="1"/>
        <pt x="700" y="1447" on="1"/>
        <pt x="284" y="1447" on="1"/>
      </contour>
    </TTGlyph>
    <TTGlyph name="afii57440" xMin="142" yMin="226" xMax="842" yMax="1588">
      <contour>
        <pt x="142" y="226" on="1"/>
        <pt x="142" y="1588" on="1"/>
        <pt x="842" y="1588" on="1"/>
        <pt x="842" y="226" on="1"/>
      </contour>
      <contour>
        <pt x="284" y="368" on="1"/>
        <pt x="700" y="368" on="1"/>
        <pt x="700" y="1447" on="1"/>
        <pt x="284" y="1447" on="1"/>
      </contour>
    </TTGlyph>
    <TTGlyph name="afii57451" xMin="142" yMin="226" xMax="842" yMax="1588">
      <contour>
        <pt x="142" y="226" on="1"/>
        <pt x="142" y="1588" on="1"/>
        <pt x="842" y="1588" on="1"/>
        <pt x="842" y="226" on="1"/>
      </contour>
      <contour>
        <pt x="284" y="368" on="1"/>
        <pt x="700" y="368" on="1"/>
        <pt x="700" y="1447" on="1"/>
        <pt x="284" y="1447" on="1"/>
      </contour>
    </TTGlyph>
    <TTGlyph name="afii57452" xMin="142" yMin="226" xMax="842" yMax="1588">
      <contour>
        <pt x="142" y="226" on="1"/>
        <pt x="142" y="1588" on="1"/>
        <pt x="842" y="1588" on="1"/>
        <pt x="842" y="226" on="1"/>
      </contour>
      <contour>
        <pt x="284" y="368" on="1"/>
        <pt x="700" y="368" on="1"/>
        <pt x="700" y="1447" on="1"/>
        <pt x="284" y="1447" on="1"/>
      </contour>
    </TTGlyph>
    <TTGlyph name="afii57453" xMin="142" yMin="226" xMax="842" yMax="1588">
      <contour>
        <pt x="142" y="226" on="1"/>
        <pt x="142" y="1588" on="1"/>
        <pt x="842" y="1588" on="1"/>
        <pt x="842" y="226" on="1"/>
      </contour>
      <contour>
        <pt x="284" y="368" on="1"/>
        <pt x="700" y="368" on="1"/>
        <pt x="700" y="1447" on="1"/>
        <pt x="284" y="1447" on="1"/>
      </contour>
    </TTGlyph>
    <TTGlyph name="afii57454" xMin="142" yMin="226" xMax="842" yMax="1588">
      <contour>
        <pt x="142" y="226" on="1"/>
        <pt x="142" y="1588" on="1"/>
        <pt x="842" y="1588" on="1"/>
        <pt x="842" y="226" on="1"/>
      </contour>
      <contour>
        <pt x="284" y="368" on="1"/>
        <pt x="700" y="368" on="1"/>
        <pt x="700" y="1447" on="1"/>
        <pt x="284" y="1447" on="1"/>
      </contour>
    </TTGlyph>
    <TTGlyph name="afii57455" xMin="142" yMin="226" xMax="842" yMax="1588">
      <contour>
        <pt x="142" y="226" on="1"/>
        <pt x="142" y="1588" on="1"/>
        <pt x="842" y="1588" on="1"/>
        <pt x="842" y="226" on="1"/>
      </contour>
      <contour>
        <pt x="284" y="368" on="1"/>
        <pt x="700" y="368" on="1"/>
        <pt x="700" y="1447" on="1"/>
        <pt x="284" y="1447" on="1"/>
      </contour>
    </TTGlyph>
    <TTGlyph name="afii57456" xMin="142" yMin="226" xMax="842" yMax="1588">
      <contour>
        <pt x="142" y="226" on="1"/>
        <pt x="142" y="1588" on="1"/>
        <pt x="842" y="1588" on="1"/>
        <pt x="842" y="226" on="1"/>
      </contour>
      <contour>
        <pt x="284" y="368" on="1"/>
        <pt x="700" y="368" on="1"/>
        <pt x="700" y="1447" on="1"/>
        <pt x="284" y="1447" on="1"/>
      </contour>
    </TTGlyph>
    <TTGlyph name="afii57457" xMin="142" yMin="226" xMax="842" yMax="1588">
      <contour>
        <pt x="142" y="226" on="1"/>
        <pt x="142" y="1588" on="1"/>
        <pt x="842" y="1588" on="1"/>
        <pt x="842" y="226" on="1"/>
      </contour>
      <contour>
        <pt x="284" y="368" on="1"/>
        <pt x="700" y="368" on="1"/>
        <pt x="700" y="1447" on="1"/>
        <pt x="284" y="1447" on="1"/>
      </contour>
    </TTGlyph>
    <TTGlyph name="afii57458" xMin="142" yMin="226" xMax="842" yMax="1588">
      <contour>
        <pt x="142" y="226" on="1"/>
        <pt x="142" y="1588" on="1"/>
        <pt x="842" y="1588" on="1"/>
        <pt x="842" y="226" on="1"/>
      </contour>
      <contour>
        <pt x="284" y="368" on="1"/>
        <pt x="700" y="368" on="1"/>
        <pt x="700" y="1447" on="1"/>
        <pt x="284" y="1447" on="1"/>
      </contour>
    </TTGlyph>
    <TTGlyph name="afii57505" xMin="142" yMin="226" xMax="842" yMax="1588">
      <contour>
        <pt x="142" y="226" on="1"/>
        <pt x="142" y="1588" on="1"/>
        <pt x="842" y="1588" on="1"/>
        <pt x="842" y="226" on="1"/>
      </contour>
      <contour>
        <pt x="284" y="368" on="1"/>
        <pt x="700" y="368" on="1"/>
        <pt x="700" y="1447" on="1"/>
        <pt x="284" y="1447" on="1"/>
      </contour>
    </TTGlyph>
    <TTGlyph name="afii57506" xMin="142" yMin="226" xMax="842" yMax="1588">
      <contour>
        <pt x="142" y="226" on="1"/>
        <pt x="142" y="1588" on="1"/>
        <pt x="842" y="1588" on="1"/>
        <pt x="842" y="226" on="1"/>
      </contour>
      <contour>
        <pt x="284" y="368" on="1"/>
        <pt x="700" y="368" on="1"/>
        <pt x="700" y="1447" on="1"/>
        <pt x="284" y="1447" on="1"/>
      </contour>
    </TTGlyph>
    <TTGlyph name="afii57507" xMin="142" yMin="226" xMax="842" yMax="1588">
      <contour>
        <pt x="142" y="226" on="1"/>
        <pt x="142" y="1588" on="1"/>
        <pt x="842" y="1588" on="1"/>
        <pt x="842" y="226" on="1"/>
      </contour>
      <contour>
        <pt x="284" y="368" on="1"/>
        <pt x="700" y="368" on="1"/>
        <pt x="700" y="1447" on="1"/>
        <pt x="284" y="1447" on="1"/>
      </contour>
    </TTGlyph>
    <TTGlyph name="afii57508" xMin="142" yMin="226" xMax="842" yMax="1588">
      <contour>
        <pt x="142" y="226" on="1"/>
        <pt x="142" y="1588" on="1"/>
        <pt x="842" y="1588" on="1"/>
        <pt x="842" y="226" on="1"/>
      </contour>
      <contour>
        <pt x="284" y="368" on="1"/>
        <pt x="700" y="368" on="1"/>
        <pt x="700" y="1447" on="1"/>
        <pt x="284" y="1447" on="1"/>
      </contour>
    </TTGlyph>
    <TTGlyph name="afii57509" xMin="142" yMin="226" xMax="842" yMax="1588">
      <contour>
        <pt x="142" y="226" on="1"/>
        <pt x="142" y="1588" on="1"/>
        <pt x="842" y="1588" on="1"/>
        <pt x="842" y="226" on="1"/>
      </contour>
      <contour>
        <pt x="284" y="368" on="1"/>
        <pt x="700" y="368" on="1"/>
        <pt x="700" y="1447" on="1"/>
        <pt x="284" y="1447" on="1"/>
      </contour>
    </TTGlyph>
    <TTGlyph name="afii57511" xMin="142" yMin="226" xMax="842" yMax="1588">
      <contour>
        <pt x="142" y="226" on="1"/>
        <pt x="142" y="1588" on="1"/>
        <pt x="842" y="1588" on="1"/>
        <pt x="842" y="226" on="1"/>
      </contour>
      <contour>
        <pt x="284" y="368" on="1"/>
        <pt x="700" y="368" on="1"/>
        <pt x="700" y="1447" on="1"/>
        <pt x="284" y="1447" on="1"/>
      </contour>
    </TTGlyph>
    <TTGlyph name="afii57512" xMin="142" yMin="226" xMax="842" yMax="1588">
      <contour>
        <pt x="142" y="226" on="1"/>
        <pt x="142" y="1588" on="1"/>
        <pt x="842" y="1588" on="1"/>
        <pt x="842" y="226" on="1"/>
      </contour>
      <contour>
        <pt x="284" y="368" on="1"/>
        <pt x="700" y="368" on="1"/>
        <pt x="700" y="1447" on="1"/>
        <pt x="284" y="1447" on="1"/>
      </contour>
    </TTGlyph>
    <TTGlyph name="afii57513" xMin="142" yMin="226" xMax="842" yMax="1588">
      <contour>
        <pt x="142" y="226" on="1"/>
        <pt x="142" y="1588" on="1"/>
        <pt x="842" y="1588" on="1"/>
        <pt x="842" y="226" on="1"/>
      </contour>
      <contour>
        <pt x="284" y="368" on="1"/>
        <pt x="700" y="368" on="1"/>
        <pt x="700" y="1447" on="1"/>
        <pt x="284" y="1447" on="1"/>
      </contour>
    </TTGlyph>
    <TTGlyph name="afii57514" xMin="142" yMin="226" xMax="842" yMax="1588">
      <contour>
        <pt x="142" y="226" on="1"/>
        <pt x="142" y="1588" on="1"/>
        <pt x="842" y="1588" on="1"/>
        <pt x="842" y="226" on="1"/>
      </contour>
      <contour>
        <pt x="284" y="368" on="1"/>
        <pt x="700" y="368" on="1"/>
        <pt x="700" y="1447" on="1"/>
        <pt x="284" y="1447" on="1"/>
      </contour>
    </TTGlyph>
    <TTGlyph name="afii57519" xMin="142" yMin="226" xMax="842" yMax="1588">
      <contour>
        <pt x="142" y="226" on="1"/>
        <pt x="142" y="1588" on="1"/>
        <pt x="842" y="1588" on="1"/>
        <pt x="842" y="226" on="1"/>
      </contour>
      <contour>
        <pt x="284" y="368" on="1"/>
        <pt x="700" y="368" on="1"/>
        <pt x="700" y="1447" on="1"/>
        <pt x="284" y="1447" on="1"/>
      </contour>
    </TTGlyph>
    <TTGlyph name="afii57534" xMin="142" yMin="226" xMax="842" yMax="1588">
      <contour>
        <pt x="142" y="226" on="1"/>
        <pt x="142" y="1588" on="1"/>
        <pt x="842" y="1588" on="1"/>
        <pt x="842" y="226" on="1"/>
      </contour>
      <contour>
        <pt x="284" y="368" on="1"/>
        <pt x="700" y="368" on="1"/>
        <pt x="700" y="1447" on="1"/>
        <pt x="284" y="1447" on="1"/>
      </contour>
    </TTGlyph>
    <TTGlyph name="afii63167" xMin="142" yMin="226" xMax="842" yMax="1588">
      <contour>
        <pt x="142" y="226" on="1"/>
        <pt x="142" y="1588" on="1"/>
        <pt x="842" y="1588" on="1"/>
        <pt x="842" y="226" on="1"/>
      </contour>
      <contour>
        <pt x="284" y="368" on="1"/>
        <pt x="700" y="368" on="1"/>
        <pt x="700" y="1447" on="1"/>
        <pt x="284" y="1447" on="1"/>
      </contour>
    </TTGlyph>
    <TTGlyph name="alefmaksurainitial" xMin="142" yMin="226" xMax="842" yMax="1588">
      <contour>
        <pt x="142" y="226" on="1"/>
        <pt x="142" y="1588" on="1"/>
        <pt x="842" y="1588" on="1"/>
        <pt x="842" y="226" on="1"/>
      </contour>
      <contour>
        <pt x="284" y="368" on="1"/>
        <pt x="700" y="368" on="1"/>
        <pt x="700" y="1447" on="1"/>
        <pt x="284" y="1447" on="1"/>
      </contour>
    </TTGlyph>
    <TTGlyph name="alefwaslafinalarabic" xMin="142" yMin="226" xMax="842" yMax="1588">
      <contour>
        <pt x="142" y="226" on="1"/>
        <pt x="142" y="1588" on="1"/>
        <pt x="842" y="1588" on="1"/>
        <pt x="842" y="226" on="1"/>
      </contour>
      <contour>
        <pt x="284" y="368" on="1"/>
        <pt x="700" y="368" on="1"/>
        <pt x="700" y="1447" on="1"/>
        <pt x="284" y="1447" on="1"/>
      </contour>
    </TTGlyph>
    <TTGlyph name="ampersand" xMin="142" yMin="226" xMax="842" yMax="1588">
      <contour>
        <pt x="142" y="226" on="1"/>
        <pt x="142" y="1588" on="1"/>
        <pt x="842" y="1588" on="1"/>
        <pt x="842" y="226" on="1"/>
      </contour>
      <contour>
        <pt x="284" y="368" on="1"/>
        <pt x="700" y="368" on="1"/>
        <pt x="700" y="1447" on="1"/>
        <pt x="284" y="1447" on="1"/>
      </contour>
    </TTGlyph>
    <TTGlyph name="asterisk" xMin="142" yMin="226" xMax="842" yMax="1588">
      <contour>
        <pt x="142" y="226" on="1"/>
        <pt x="142" y="1588" on="1"/>
        <pt x="842" y="1588" on="1"/>
        <pt x="842" y="226" on="1"/>
      </contour>
      <contour>
        <pt x="284" y="368" on="1"/>
        <pt x="700" y="368" on="1"/>
        <pt x="700" y="1447" on="1"/>
        <pt x="284" y="1447" on="1"/>
      </contour>
    </TTGlyph>
    <TTGlyph name="behmeemisolatedarabic" xMin="142" yMin="226" xMax="842" yMax="1588">
      <contour>
        <pt x="142" y="226" on="1"/>
        <pt x="142" y="1588" on="1"/>
        <pt x="842" y="1588" on="1"/>
        <pt x="842" y="226" on="1"/>
      </contour>
      <contour>
        <pt x="284" y="368" on="1"/>
        <pt x="700" y="368" on="1"/>
        <pt x="700" y="1447" on="1"/>
        <pt x="284" y="1447" on="1"/>
      </contour>
    </TTGlyph>
    <TTGlyph name="behnoonfinalarabic" xMin="142" yMin="226" xMax="842" yMax="1588">
      <contour>
        <pt x="142" y="226" on="1"/>
        <pt x="142" y="1588" on="1"/>
        <pt x="842" y="1588" on="1"/>
        <pt x="842" y="226" on="1"/>
      </contour>
      <contour>
        <pt x="284" y="368" on="1"/>
        <pt x="700" y="368" on="1"/>
        <pt x="700" y="1447" on="1"/>
        <pt x="284" y="1447" on="1"/>
      </contour>
    </TTGlyph>
    <TTGlyph name="colon" xMin="142" yMin="226" xMax="842" yMax="1588">
      <contour>
        <pt x="142" y="226" on="1"/>
        <pt x="142" y="1588" on="1"/>
        <pt x="842" y="1588" on="1"/>
        <pt x="842" y="226" on="1"/>
      </contour>
      <contour>
        <pt x="284" y="368" on="1"/>
        <pt x="700" y="368" on="1"/>
        <pt x="700" y="1447" on="1"/>
        <pt x="284" y="1447" on="1"/>
      </contour>
    </TTGlyph>
    <TTGlyph name="dagger" xMin="142" yMin="226" xMax="842" yMax="1588">
      <contour>
        <pt x="142" y="226" on="1"/>
        <pt x="142" y="1588" on="1"/>
        <pt x="842" y="1588" on="1"/>
        <pt x="842" y="226" on="1"/>
      </contour>
      <contour>
        <pt x="284" y="368" on="1"/>
        <pt x="700" y="368" on="1"/>
        <pt x="700" y="1447" on="1"/>
        <pt x="284" y="1447" on="1"/>
      </contour>
    </TTGlyph>
    <TTGlyph name="dalringfinal" xMin="142" yMin="226" xMax="842" yMax="1588">
      <contour>
        <pt x="142" y="226" on="1"/>
        <pt x="142" y="1588" on="1"/>
        <pt x="842" y="1588" on="1"/>
        <pt x="842" y="226" on="1"/>
      </contour>
      <contour>
        <pt x="284" y="368" on="1"/>
        <pt x="700" y="368" on="1"/>
        <pt x="700" y="1447" on="1"/>
        <pt x="284" y="1447" on="1"/>
      </contour>
    </TTGlyph>
    <TTGlyph name="ddalfinalarabic" xMin="142" yMin="226" xMax="842" yMax="1588">
      <contour>
        <pt x="142" y="226" on="1"/>
        <pt x="142" y="1588" on="1"/>
        <pt x="842" y="1588" on="1"/>
        <pt x="842" y="226" on="1"/>
      </contour>
      <contour>
        <pt x="284" y="368" on="1"/>
        <pt x="700" y="368" on="1"/>
        <pt x="700" y="1447" on="1"/>
        <pt x="284" y="1447" on="1"/>
      </contour>
    </TTGlyph>
    <TTGlyph name="divide" xMin="142" yMin="226" xMax="842" yMax="1588">
      <contour>
        <pt x="142" y="226" on="1"/>
        <pt x="142" y="1588" on="1"/>
        <pt x="842" y="1588" on="1"/>
        <pt x="842" y="226" on="1"/>
      </contour>
      <contour>
        <pt x="284" y="368" on="1"/>
        <pt x="700" y="368" on="1"/>
        <pt x="700" y="1447" on="1"/>
        <pt x="284" y="1447" on="1"/>
      </contour>
    </TTGlyph>
    <TTGlyph name="dollar" xMin="142" yMin="226" xMax="842" yMax="1588">
      <contour>
        <pt x="142" y="226" on="1"/>
        <pt x="142" y="1588" on="1"/>
        <pt x="842" y="1588" on="1"/>
        <pt x="842" y="226" on="1"/>
      </contour>
      <contour>
        <pt x="284" y="368" on="1"/>
        <pt x="700" y="368" on="1"/>
        <pt x="700" y="1447" on="1"/>
        <pt x="284" y="1447" on="1"/>
      </contour>
    </TTGlyph>
    <TTGlyph name="dotlessyehfinalarabic" xMin="142" yMin="226" xMax="842" yMax="1588">
      <contour>
        <pt x="142" y="226" on="1"/>
        <pt x="142" y="1588" on="1"/>
        <pt x="842" y="1588" on="1"/>
        <pt x="842" y="226" on="1"/>
      </contour>
      <contour>
        <pt x="284" y="368" on="1"/>
        <pt x="700" y="368" on="1"/>
        <pt x="700" y="1447" on="1"/>
        <pt x="284" y="1447" on="1"/>
      </contour>
    </TTGlyph>
    <TTGlyph name="dotlessyehinitialarabic" xMin="142" yMin="226" xMax="842" yMax="1588">
      <contour>
        <pt x="142" y="226" on="1"/>
        <pt x="142" y="1588" on="1"/>
        <pt x="842" y="1588" on="1"/>
        <pt x="842" y="226" on="1"/>
      </contour>
      <contour>
        <pt x="284" y="368" on="1"/>
        <pt x="700" y="368" on="1"/>
        <pt x="700" y="1447" on="1"/>
        <pt x="284" y="1447" on="1"/>
      </contour>
    </TTGlyph>
    <TTGlyph name="dotlessyehmedialarabic" xMin="142" yMin="226" xMax="842" yMax="1588">
      <contour>
        <pt x="142" y="226" on="1"/>
        <pt x="142" y="1588" on="1"/>
        <pt x="842" y="1588" on="1"/>
        <pt x="842" y="226" on="1"/>
      </contour>
      <contour>
        <pt x="284" y="368" on="1"/>
        <pt x="700" y="368" on="1"/>
        <pt x="700" y="1447" on="1"/>
        <pt x="284" y="1447" on="1"/>
      </contour>
    </TTGlyph>
    <TTGlyph name="elefmaksuramedial" xMin="142" yMin="226" xMax="842" yMax="1588">
      <contour>
        <pt x="142" y="226" on="1"/>
        <pt x="142" y="1588" on="1"/>
        <pt x="842" y="1588" on="1"/>
        <pt x="842" y="226" on="1"/>
      </contour>
      <contour>
        <pt x="284" y="368" on="1"/>
        <pt x="700" y="368" on="1"/>
        <pt x="700" y="1447" on="1"/>
        <pt x="284" y="1447" on="1"/>
      </contour>
    </TTGlyph>
    <TTGlyph name="ellipsis" xMin="142" yMin="226" xMax="842" yMax="1588">
      <contour>
        <pt x="142" y="226" on="1"/>
        <pt x="142" y="1588" on="1"/>
        <pt x="842" y="1588" on="1"/>
        <pt x="842" y="226" on="1"/>
      </contour>
      <contour>
        <pt x="284" y="368" on="1"/>
        <pt x="700" y="368" on="1"/>
        <pt x="700" y="1447" on="1"/>
        <pt x="284" y="1447" on="1"/>
      </contour>
    </TTGlyph>
    <TTGlyph name="emdash" xMin="422" yMin="-980" xMax="2470" yMax="1128">
      <contour>
        <pt x="2470" y="1098" on="1"/>
        <pt x="2470" y="1035" on="0"/>
        <pt x="2387" y="983" on="0"/>
        <pt x="2240" y="871" on="1"/>
        <pt x="2136" y="790" on="0"/>
        <pt x="2067" y="770" on="1"/>
        <pt x="2048" y="794" on="0"/>
        <pt x="2048" y="805" on="1"/>
        <pt x="2048" y="852" on="0"/>
        <pt x="2087" y="879" on="1"/>
        <pt x="2125" y="902" on="0"/>
        <pt x="2164" y="925" on="1"/>
        <pt x="2190" y="945" on="0"/>
        <pt x="2375" y="1082" on="1"/>
        <pt x="2413" y="1111" on="0"/>
        <pt x="2460" y="1128" on="1"/>
        <pt x="2470" y="1114" on="0"/>
      </contour>
      <contour>
        <pt x="1779" y="907" on="1"/>
        <pt x="1780" y="856" on="0"/>
        <pt x="1721" y="794" on="1"/>
        <pt x="1690" y="784" on="0"/>
        <pt x="1631" y="756" on="1"/>
        <pt x="1570" y="718" on="0"/>
        <pt x="1564" y="718" on="1"/>
        <pt x="1548" y="718" on="0"/>
        <pt x="1522" y="734" on="1"/>
        <pt x="1487" y="754" on="0"/>
        <pt x="1487" y="785" on="1"/>
        <pt x="1487" y="807" on="0"/>
        <pt x="1507" y="853" on="1"/>
        <pt x="1529" y="904" on="0"/>
        <pt x="1553" y="923" on="1"/>
        <pt x="1553" y="904" on="0"/>
        <pt x="1555" y="869" on="1"/>
        <pt x="1556" y="854" on="0"/>
        <pt x="1559" y="840" on="1"/>
        <pt x="1560" y="840" on="0"/>
        <pt x="1568" y="831" on="0"/>
        <pt x="1580" y="831" on="1"/>
        <pt x="1600" y="831" on="0"/>
        <pt x="1622" y="890" on="1"/>
        <pt x="1638" y="930" on="0"/>
        <pt x="1643" y="953" on="1"/>
        <pt x="1647" y="953" on="0"/>
        <pt x="1667" y="964" on="0"/>
        <pt x="1671" y="964" on="1"/>
        <pt x="1683" y="953" on="0"/>
        <pt x="1681" y="901" on="1"/>
        <pt x="1683" y="901" on="0"/>
        <pt x="1690" y="893" on="0"/>
        <pt x="1702" y="893" on="1"/>
        <pt x="1722" y="893" on="0"/>
        <pt x="1748" y="1004" on="1"/>
        <pt x="1779" y="1004" on="1"/>
      </contour>
      <contour>
        <pt x="2470" y="181" on="1"/>
        <pt x="2470" y="29" on="0"/>
        <pt x="2387" y="-140" on="1"/>
        <pt x="2294" y="-329" on="0"/>
        <pt x="2167" y="-374" on="1"/>
        <pt x="2129" y="-387" on="0"/>
        <pt x="1963" y="-387" on="1"/>
        <pt x="1807" y="-387" on="0"/>
        <pt x="1756" y="-343" on="1"/>
        <pt x="1756" y="-307" on="1"/>
        <pt x="1792" y="-285" on="0"/>
        <pt x="1804" y="-285" on="1"/>
        <pt x="1814" y="-285" on="0"/>
        <pt x="1895" y="-305" on="0"/>
        <pt x="1906" y="-305" on="1"/>
        <pt x="2003" y="-305" on="0"/>
        <pt x="2115" y="-251" on="1"/>
        <pt x="2153" y="-233" on="0"/>
        <pt x="2211" y="-181" on="1"/>
        <pt x="2247" y="-149" on="0"/>
        <pt x="2318" y="-54" on="1"/>
        <pt x="2406" y="61" on="0"/>
        <pt x="2406" y="104" on="1"/>
        <pt x="2406" y="149" on="0"/>
        <pt x="2346" y="218" on="1"/>
        <pt x="2312" y="256" on="0"/>
        <pt x="2278" y="294" on="1"/>
        <pt x="2267" y="334" on="0"/>
        <pt x="2267" y="334" on="1"/>
        <pt x="2267" y="377" on="0"/>
        <pt x="2303" y="442" on="1"/>
        <pt x="2356" y="420" on="0"/>
        <pt x="2411" y="340" on="1"/>
        <pt x="2470" y="254" on="0"/>
      </contour>
      <contour>
        <pt x="982" y="917" on="1"/>
        <pt x="953" y="869" on="0"/>
        <pt x="877" y="811" on="1"/>
        <pt x="796" y="750" on="0"/>
        <pt x="755" y="750" on="1"/>
        <pt x="734" y="750" on="0"/>
        <pt x="715" y="773" on="1"/>
        <pt x="720" y="808" on="0"/>
        <pt x="756" y="831" on="1"/>
        <pt x="809" y="864" on="0"/>
        <pt x="813" y="868" on="1"/>
        <pt x="800" y="903" on="0"/>
        <pt x="747" y="903" on="1"/>
        <pt x="724" y="903" on="0"/>
        <pt x="644" y="841" on="1"/>
        <pt x="633" y="843" on="0"/>
        <pt x="633" y="867" on="1"/>
        <pt x="633" y="929" on="0"/>
        <pt x="701" y="977" on="1"/>
        <pt x="755" y="1016" on="0"/>
        <pt x="788" y="1016" on="1"/>
        <pt x="813" y="1016" on="0"/>
        <pt x="982" y="963" on="1"/>
      </contour>
      <contour>
        <pt x="1609" y="-141" on="1"/>
        <pt x="1609" y="-163" on="0"/>
        <pt x="1593" y="-200" on="1"/>
        <pt x="1575" y="-244" on="0"/>
        <pt x="1556" y="-244" on="1"/>
        <pt x="1538" y="-244" on="0"/>
        <pt x="1455" y="-177" on="0"/>
        <pt x="1455" y="-156" on="1"/>
        <pt x="1455" y="-134" on="0"/>
        <pt x="1513" y="-49" on="0"/>
        <pt x="1532" y="-49" on="1"/>
        <pt x="1564" y="-49" on="0"/>
        <pt x="1589" y="-89" on="1"/>
        <pt x="1609" y="-122" on="0"/>
      </contour>
      <contour>
        <pt x="1869" y="-627" on="1"/>
        <pt x="1869" y="-671" on="0"/>
        <pt x="1842" y="-691" on="1"/>
        <pt x="1775" y="-741" on="0"/>
        <pt x="1586" y="-857" on="0"/>
        <pt x="1571" y="-857" on="1"/>
        <pt x="1538" y="-857" on="1"/>
        <pt x="1528" y="-844" on="0"/>
        <pt x="1528" y="-822" on="1"/>
        <pt x="1528" y="-783" on="0"/>
        <pt x="1672" y="-693" on="1"/>
        <pt x="1787" y="-621" on="0"/>
        <pt x="1858" y="-592" on="1"/>
        <pt x="1869" y="-606" on="0"/>
      </contour>
      <contour>
        <pt x="1779" y="242" on="1"/>
        <pt x="1779" y="188" on="0"/>
        <pt x="1760" y="138" on="1"/>
        <pt x="1752" y="131" on="0"/>
        <pt x="1736" y="115" on="1"/>
        <pt x="1724" y="122" on="0"/>
        <pt x="1678" y="163" on="1"/>
        <pt x="1640" y="197" on="0"/>
        <pt x="1629" y="197" on="1"/>
        <pt x="1594" y="197" on="0"/>
        <pt x="1427" y="101" on="1"/>
        <pt x="1386" y="77" on="0"/>
        <pt x="1350" y="14" on="1"/>
        <pt x="1327" y="-25" on="0"/>
        <pt x="1329" y="-105" on="1"/>
        <pt x="1330" y="-127" on="0"/>
        <pt x="1337" y="-196" on="1"/>
        <pt x="1344" y="-261" on="0"/>
        <pt x="1344" y="-296" on="1"/>
        <pt x="1344" y="-335" on="0"/>
        <pt x="1337" y="-362" on="1"/>
        <pt x="1332" y="-382" on="0"/>
        <pt x="1298" y="-424" on="1"/>
        <pt x="1262" y="-469" on="0"/>
        <pt x="1244" y="-469" on="1"/>
        <pt x="1230" y="-469" on="0"/>
        <pt x="1192" y="-420" on="0"/>
        <pt x="1188" y="-403" on="1"/>
        <pt x="1172" y="-348" on="0"/>
        <pt x="1148" y="-240" on="1"/>
        <pt x="1143" y="-211" on="0"/>
        <pt x="1143" y="-185" on="1"/>
        <pt x="1143" y="-144" on="0"/>
        <pt x="1170" y="-51" on="0"/>
        <pt x="1170" y="-32" on="1"/>
        <pt x="1170" y="16" on="1"/>
        <pt x="1165" y="22" on="0"/>
        <pt x="1150" y="22" on="1"/>
        <pt x="1142" y="22" on="0"/>
        <pt x="1102" y="14" on="1"/>
        <pt x="1057" y="4" on="0"/>
        <pt x="1036" y="2" on="1"/>
        <pt x="1047" y="3" on="0"/>
        <pt x="971" y="5" on="1"/>
        <pt x="926" y="7" on="0"/>
        <pt x="912" y="-15" on="1"/>
        <pt x="891" y="-233" on="0"/>
        <pt x="824" y="-233" on="1"/>
        <pt x="792" y="-233" on="0"/>
        <pt x="747" y="-166" on="1"/>
        <pt x="707" y="-108" on="0"/>
        <pt x="701" y="-76" on="1"/>
        <pt x="701" y="-33" on="0"/>
        <pt x="700" y="65" on="1"/>
        <pt x="697" y="65" on="0"/>
        <pt x="682" y="74" on="0"/>
        <pt x="670" y="74" on="1"/>
        <pt x="629" y="74" on="0"/>
        <pt x="568" y="41" on="1"/>
        <pt x="487" y="-1" on="0"/>
        <pt x="487" y="-64" on="1"/>
        <pt x="560" y="-842" on="1"/>
        <pt x="560" y="-952" on="0"/>
        <pt x="514" y="-980" on="1"/>
        <pt x="422" y="-141" on="1"/>
        <pt x="450" y="120" on="0"/>
        <pt x="595" y="202" on="1"/>
        <pt x="633" y="211" on="0"/>
        <pt x="701" y="229" on="1"/>
        <pt x="716" y="234" on="0"/>
        <pt x="730" y="261" on="1"/>
        <pt x="751" y="300" on="0"/>
        <pt x="759" y="309" on="1"/>
        <pt x="797" y="262" on="0"/>
        <pt x="875" y="188" on="1"/>
        <pt x="939" y="145" on="0"/>
        <pt x="1032" y="145" on="1"/>
        <pt x="1143" y="145" on="0"/>
        <pt x="1245" y="198" on="1"/>
        <pt x="1283" y="218" on="0"/>
        <pt x="1319" y="297" on="1"/>
        <pt x="1322" y="304" on="0"/>
        <pt x="1359" y="349" on="1"/>
        <pt x="1388" y="349" on="1"/>
        <pt x="1388" y="345" on="0"/>
        <pt x="1398" y="334" on="0"/>
        <pt x="1398" y="319" on="1"/>
        <pt x="1398" y="288" on="0"/>
        <pt x="1337" y="182" on="1"/>
        <pt x="1303" y="124" on="0"/>
        <pt x="1269" y="66" on="1"/>
        <pt x="1235" y="-9" on="0"/>
        <pt x="1235" y="-39" on="1"/>
        <pt x="1235" y="-55" on="0"/>
        <pt x="1248" y="-90" on="1"/>
        <pt x="1266" y="-30" on="0"/>
        <pt x="1283" y="30" on="1"/>
        <pt x="1307" y="102" on="0"/>
        <pt x="1327" y="129" on="1"/>
        <pt x="1366" y="181" on="0"/>
        <pt x="1486" y="263" on="1"/>
        <pt x="1614" y="350" on="0"/>
        <pt x="1670" y="350" on="1"/>
        <pt x="1698" y="350" on="0"/>
        <pt x="1737" y="319" on="1"/>
        <pt x="1779" y="285" on="0"/>
      </contour>
      <contour>
        <pt x="1462" y="-618" on="1"/>
        <pt x="1463" y="-645" on="0"/>
        <pt x="1323" y="-736" on="1"/>
        <pt x="1186" y="-825" on="0"/>
        <pt x="1116" y="-847" on="1"/>
        <pt x="1105" y="-833" on="0"/>
        <pt x="1105" y="-811" on="1"/>
        <pt x="1105" y="-761" on="0"/>
        <pt x="1172" y="-719" on="1"/>
        <pt x="1217" y="-695" on="0"/>
        <pt x="1262" y="-671" on="1"/>
        <pt x="1322" y="-626" on="0"/>
        <pt x="1442" y="-561" on="1"/>
        <pt x="1454" y="-572" on="0"/>
        <pt x="1462" y="-572" on="1"/>
      </contour>
    </TTGlyph>
    <TTGlyph name="endash" xMin="422" yMin="-980" xMax="1446" yMax="1128">
      <contour>
        <pt x="1446" y="1098" on="1"/>
        <pt x="1446" y="1035" on="0"/>
        <pt x="1404" y="983" on="0"/>
        <pt x="1331" y="871" on="1"/>
        <pt x="1279" y="790" on="0"/>
        <pt x="1244" y="770" on="1"/>
        <pt x="1235" y="794" on="0"/>
        <pt x="1235" y="805" on="1"/>
        <pt x="1235" y="852" on="0"/>
        <pt x="1254" y="879" on="1"/>
        <pt x="1273" y="902" on="0"/>
        <pt x="1293" y="925" on="1"/>
        <pt x="1306" y="945" on="0"/>
        <pt x="1398" y="1082" on="1"/>
        <pt x="1417" y="1111" on="0"/>
        <pt x="1441" y="1128" on="1"/>
        <pt x="1446" y="1114" on="0"/>
      </contour>
      <contour>
        <pt x="1101" y="907" on="1"/>
        <pt x="1101" y="856" on="0"/>
        <pt x="1072" y="794" on="1"/>
        <pt x="1056" y="784" on="0"/>
        <pt x="1026" y="756" on="1"/>
        <pt x="996" y="718" on="0"/>
        <pt x="993" y="718" on="1"/>
        <pt x="985" y="718" on="0"/>
        <pt x="972" y="734" on="1"/>
        <pt x="955" y="754" on="0"/>
        <pt x="955" y="785" on="1"/>
        <pt x="955" y="807" on="0"/>
        <pt x="965" y="853" on="1"/>
        <pt x="976" y="904" on="0"/>
        <pt x="988" y="923" on="1"/>
        <pt x="988" y="904" on="0"/>
        <pt x="988" y="869" on="1"/>
        <pt x="989" y="854" on="0"/>
        <pt x="990" y="840" on="1"/>
        <pt x="991" y="840" on="0"/>
        <pt x="995" y="831" on="0"/>
        <pt x="1001" y="831" on="1"/>
        <pt x="1011" y="831" on="0"/>
        <pt x="1022" y="890" on="1"/>
        <pt x="1030" y="930" on="0"/>
        <pt x="1032" y="953" on="1"/>
        <pt x="1034" y="953" on="0"/>
        <pt x="1044" y="964" on="0"/>
        <pt x="1047" y="964" on="1"/>
        <pt x="1052" y="953" on="0"/>
        <pt x="1051" y="901" on="1"/>
        <pt x="1053" y="901" on="0"/>
        <pt x="1056" y="893" on="0"/>
        <pt x="1062" y="893" on="1"/>
        <pt x="1072" y="893" on="0"/>
        <pt x="1085" y="1004" on="1"/>
        <pt x="1101" y="1004" on="1"/>
      </contour>
      <contour>
        <pt x="1446" y="181" on="1"/>
        <pt x="1446" y="29" on="0"/>
        <pt x="1404" y="-140" on="1"/>
        <pt x="1358" y="-329" on="0"/>
        <pt x="1294" y="-374" on="1"/>
        <pt x="1276" y="-387" on="0"/>
        <pt x="1192" y="-387" on="1"/>
        <pt x="1115" y="-387" on="0"/>
        <pt x="1089" y="-343" on="1"/>
        <pt x="1089" y="-307" on="1"/>
        <pt x="1107" y="-285" on="0"/>
        <pt x="1113" y="-285" on="1"/>
        <pt x="1118" y="-285" on="0"/>
        <pt x="1159" y="-305" on="0"/>
        <pt x="1164" y="-305" on="1"/>
        <pt x="1213" y="-305" on="0"/>
        <pt x="1269" y="-251" on="1"/>
        <pt x="1288" y="-233" on="0"/>
        <pt x="1317" y="-181" on="1"/>
        <pt x="1334" y="-149" on="0"/>
        <pt x="1370" y="-54" on="1"/>
        <pt x="1414" y="61" on="0"/>
        <pt x="1414" y="104" on="1"/>
        <pt x="1414" y="149" on="0"/>
        <pt x="1384" y="218" on="1"/>
        <pt x="1367" y="256" on="0"/>
        <pt x="1350" y="294" on="1"/>
        <pt x="1344" y="334" on="0"/>
        <pt x="1344" y="334" on="1"/>
        <pt x="1344" y="377" on="0"/>
        <pt x="1362" y="442" on="1"/>
        <pt x="1389" y="420" on="0"/>
        <pt x="1417" y="340" on="1"/>
        <pt x="1446" y="254" on="0"/>
      </contour>
      <contour>
        <pt x="702" y="917" on="1"/>
        <pt x="688" y="869" on="0"/>
        <pt x="649" y="811" on="1"/>
        <pt x="609" y="750" on="0"/>
        <pt x="589" y="750" on="1"/>
        <pt x="578" y="750" on="0"/>
        <pt x="568" y="773" on="1"/>
        <pt x="571" y="808" on="0"/>
        <pt x="589" y="831" on="1"/>
        <pt x="615" y="864" on="0"/>
        <pt x="617" y="868" on="1"/>
        <pt x="611" y="903" on="0"/>
        <pt x="585" y="903" on="1"/>
        <pt x="573" y="903" on="0"/>
        <pt x="533" y="841" on="1"/>
        <pt x="528" y="843" on="0"/>
        <pt x="528" y="867" on="1"/>
        <pt x="528" y="929" on="0"/>
        <pt x="561" y="977" on="1"/>
        <pt x="588" y="1016" on="0"/>
        <pt x="605" y="1016" on="1"/>
        <pt x="617" y="1016" on="0"/>
        <pt x="702" y="963" on="1"/>
      </contour>
      <contour>
        <pt x="1015" y="-141" on="1"/>
        <pt x="1015" y="-163" on="0"/>
        <pt x="1007" y="-200" on="1"/>
        <pt x="999" y="-244" on="0"/>
        <pt x="989" y="-244" on="1"/>
        <pt x="980" y="-244" on="0"/>
        <pt x="938" y="-177" on="0"/>
        <pt x="938" y="-156" on="1"/>
        <pt x="938" y="-134" on="0"/>
        <pt x="967" y="-49" on="0"/>
        <pt x="977" y="-49" on="1"/>
        <pt x="993" y="-49" on="0"/>
        <pt x="1005" y="-89" on="1"/>
        <pt x="1015" y="-122" on="0"/>
      </contour>
      <contour>
        <pt x="1146" y="-627" on="1"/>
        <pt x="1146" y="-671" on="0"/>
        <pt x="1132" y="-691" on="1"/>
        <pt x="1099" y="-741" on="0"/>
        <pt x="1004" y="-857" on="0"/>
        <pt x="997" y="-857" on="1"/>
        <pt x="980" y="-857" on="1"/>
        <pt x="975" y="-844" on="0"/>
        <pt x="975" y="-822" on="1"/>
        <pt x="975" y="-783" on="0"/>
        <pt x="1047" y="-693" on="1"/>
        <pt x="1104" y="-621" on="0"/>
        <pt x="1140" y="-592" on="1"/>
        <pt x="1146" y="-606" on="0"/>
      </contour>
      <contour>
        <pt x="1101" y="242" on="1"/>
        <pt x="1101" y="188" on="0"/>
        <pt x="1091" y="138" on="1"/>
        <pt x="1087" y="131" on="0"/>
        <pt x="1079" y="115" on="1"/>
        <pt x="1073" y="122" on="0"/>
        <pt x="1050" y="163" on="1"/>
        <pt x="1031" y="197" on="0"/>
        <pt x="1025" y="197" on="1"/>
        <pt x="1008" y="197" on="0"/>
        <pt x="924" y="101" on="1"/>
        <pt x="904" y="77" on="0"/>
        <pt x="886" y="14" on="1"/>
        <pt x="874" y="-25" on="0"/>
        <pt x="876" y="-105" on="1"/>
        <pt x="876" y="-127" on="0"/>
        <pt x="880" y="-196" on="1"/>
        <pt x="883" y="-261" on="0"/>
        <pt x="883" y="-296" on="1"/>
        <pt x="883" y="-335" on="0"/>
        <pt x="880" y="-362" on="1"/>
        <pt x="877" y="-382" on="0"/>
        <pt x="860" y="-424" on="1"/>
        <pt x="842" y="-469" on="0"/>
        <pt x="833" y="-469" on="1"/>
        <pt x="826" y="-469" on="0"/>
        <pt x="807" y="-420" on="0"/>
        <pt x="805" y="-403" on="1"/>
        <pt x="797" y="-348" on="0"/>
        <pt x="785" y="-240" on="1"/>
        <pt x="782" y="-211" on="0"/>
        <pt x="782" y="-185" on="1"/>
        <pt x="782" y="-144" on="0"/>
        <pt x="796" y="-51" on="0"/>
        <pt x="796" y="-32" on="1"/>
        <pt x="796" y="16" on="1"/>
        <pt x="793" y="22" on="0"/>
        <pt x="786" y="22" on="1"/>
        <pt x="782" y="22" on="0"/>
        <pt x="762" y="14" on="1"/>
        <pt x="740" y="4" on="0"/>
        <pt x="729" y="2" on="1"/>
        <pt x="734" y="3" on="0"/>
        <pt x="696" y="5" on="1"/>
        <pt x="674" y="7" on="0"/>
        <pt x="667" y="-15" on="1"/>
        <pt x="657" y="-233" on="0"/>
        <pt x="623" y="-233" on="1"/>
        <pt x="607" y="-233" on="0"/>
        <pt x="584" y="-166" on="1"/>
        <pt x="564" y="-108" on="0"/>
        <pt x="561" y="-76" on="1"/>
        <pt x="561" y="-33" on="0"/>
        <pt x="561" y="65" on="1"/>
        <pt x="560" y="65" on="0"/>
        <pt x="552" y="74" on="0"/>
        <pt x="546" y="74" on="1"/>
        <pt x="526" y="74" on="0"/>
        <pt x="495" y="41" on="1"/>
        <pt x="455" y="-1" on="0"/>
        <pt x="455" y="-64" on="1"/>
        <pt x="491" y="-842" on="1"/>
        <pt x="491" y="-952" on="0"/>
        <pt x="468" y="-980" on="1"/>
        <pt x="422" y="-141" on="1"/>
        <pt x="436" y="120" on="0"/>
        <pt x="509" y="202" on="1"/>
        <pt x="528" y="211" on="0"/>
        <pt x="562" y="229" on="1"/>
        <pt x="569" y="234" on="0"/>
        <pt x="576" y="261" on="1"/>
        <pt x="587" y="300" on="0"/>
        <pt x="590" y="309" on="1"/>
        <pt x="610" y="262" on="0"/>
        <pt x="649" y="188" on="1"/>
        <pt x="680" y="145" on="0"/>
        <pt x="727" y="145" on="1"/>
        <pt x="782" y="145" on="0"/>
        <pt x="834" y="198" on="1"/>
        <pt x="853" y="218" on="0"/>
        <pt x="870" y="297" on="1"/>
        <pt x="872" y="304" on="0"/>
        <pt x="890" y="349" on="1"/>
        <pt x="905" y="349" on="1"/>
        <pt x="905" y="345" on="0"/>
        <pt x="910" y="334" on="0"/>
        <pt x="910" y="319" on="1"/>
        <pt x="910" y="288" on="0"/>
        <pt x="880" y="182" on="1"/>
        <pt x="863" y="124" on="0"/>
        <pt x="845" y="66" on="1"/>
        <pt x="828" y="-9" on="0"/>
        <pt x="828" y="-39" on="1"/>
        <pt x="828" y="-55" on="0"/>
        <pt x="835" y="-90" on="1"/>
        <pt x="844" y="-30" on="0"/>
        <pt x="853" y="30" on="1"/>
        <pt x="865" y="102" on="0"/>
        <pt x="874" y="129" on="1"/>
        <pt x="894" y="181" on="0"/>
        <pt x="954" y="263" on="1"/>
        <pt x="1018" y="350" on="0"/>
        <pt x="1046" y="350" on="1"/>
        <pt x="1060" y="350" on="0"/>
        <pt x="1079" y="319" on="1"/>
        <pt x="1101" y="285" on="0"/>
      </contour>
      <contour>
        <pt x="942" y="-618" on="1"/>
        <pt x="942" y="-645" on="0"/>
        <pt x="872" y="-736" on="1"/>
        <pt x="804" y="-825" on="0"/>
        <pt x="769" y="-847" on="1"/>
        <pt x="763" y="-833" on="0"/>
        <pt x="763" y="-811" on="1"/>
        <pt x="763" y="-761" on="0"/>
        <pt x="797" y="-719" on="1"/>
        <pt x="819" y="-695" on="0"/>
        <pt x="842" y="-671" on="1"/>
        <pt x="872" y="-626" on="0"/>
        <pt x="932" y="-561" on="1"/>
        <pt x="938" y="-572" on="0"/>
        <pt x="942" y="-572" on="1"/>
      </contour>
    </TTGlyph>
    <TTGlyph name="equal" xMin="142" yMin="226" xMax="842" yMax="1588">
      <contour>
        <pt x="142" y="226" on="1"/>
        <pt x="142" y="1588" on="1"/>
        <pt x="842" y="1588" on="1"/>
        <pt x="842" y="226" on="1"/>
      </contour>
      <contour>
        <pt x="284" y="368" on="1"/>
        <pt x="700" y="368" on="1"/>
        <pt x="700" y="1447" on="1"/>
        <pt x="284" y="1447" on="1"/>
      </contour>
    </TTGlyph>
    <TTGlyph name="exclam" xMin="142" yMin="226" xMax="842" yMax="1588">
      <contour>
        <pt x="142" y="226" on="1"/>
        <pt x="142" y="1588" on="1"/>
        <pt x="842" y="1588" on="1"/>
        <pt x="842" y="226" on="1"/>
      </contour>
      <contour>
        <pt x="284" y="368" on="1"/>
        <pt x="700" y="368" on="1"/>
        <pt x="700" y="1447" on="1"/>
        <pt x="284" y="1447" on="1"/>
      </contour>
    </TTGlyph>
    <TTGlyph name="figuredash" xMin="422" yMin="-980" xMax="3002" yMax="1128">
      <contour>
        <pt x="3002" y="1098" on="1"/>
        <pt x="3002" y="1035" on="0"/>
        <pt x="2897" y="983" on="0"/>
        <pt x="2712" y="871" on="1"/>
        <pt x="2581" y="790" on="0"/>
        <pt x="2494" y="770" on="1"/>
        <pt x="2470" y="794" on="0"/>
        <pt x="2470" y="805" on="1"/>
        <pt x="2470" y="852" on="0"/>
        <pt x="2519" y="879" on="1"/>
        <pt x="2567" y="902" on="0"/>
        <pt x="2616" y="925" on="1"/>
        <pt x="2649" y="945" on="0"/>
        <pt x="2882" y="1082" on="1"/>
        <pt x="2930" y="1111" on="0"/>
        <pt x="2989" y="1128" on="1"/>
        <pt x="3002" y="1114" on="0"/>
      </contour>
      <contour>
        <pt x="2132" y="907" on="1"/>
        <pt x="2133" y="856" on="0"/>
        <pt x="2059" y="794" on="1"/>
        <pt x="2020" y="784" on="0"/>
        <pt x="1945" y="756" on="1"/>
        <pt x="1868" y="718" on="0"/>
        <pt x="1861" y="718" on="1"/>
        <pt x="1841" y="718" on="0"/>
        <pt x="1808" y="734" on="1"/>
        <pt x="1764" y="754" on="0"/>
        <pt x="1764" y="785" on="1"/>
        <pt x="1764" y="807" on="0"/>
        <pt x="1789" y="853" on="1"/>
        <pt x="1817" y="904" on="0"/>
        <pt x="1847" y="923" on="1"/>
        <pt x="1847" y="904" on="0"/>
        <pt x="1849" y="869" on="1"/>
        <pt x="1850" y="854" on="0"/>
        <pt x="1854" y="840" on="1"/>
        <pt x="1856" y="840" on="0"/>
        <pt x="1866" y="831" on="0"/>
        <pt x="1881" y="831" on="1"/>
        <pt x="1906" y="831" on="0"/>
        <pt x="1934" y="890" on="1"/>
        <pt x="1954" y="930" on="0"/>
        <pt x="1960" y="953" on="1"/>
        <pt x="1965" y="953" on="0"/>
        <pt x="1990" y="964" on="0"/>
        <pt x="1996" y="964" on="1"/>
        <pt x="2010" y="953" on="0"/>
        <pt x="2008" y="901" on="1"/>
        <pt x="2011" y="901" on="0"/>
        <pt x="2020" y="893" on="0"/>
        <pt x="2035" y="893" on="1"/>
        <pt x="2060" y="893" on="0"/>
        <pt x="2093" y="1004" on="1"/>
        <pt x="2132" y="1004" on="1"/>
      </contour>
      <contour>
        <pt x="3002" y="181" on="1"/>
        <pt x="3002" y="29" on="0"/>
        <pt x="2897" y="-140" on="1"/>
        <pt x="2780" y="-329" on="0"/>
        <pt x="2620" y="-374" on="1"/>
        <pt x="2573" y="-387" on="0"/>
        <pt x="2363" y="-387" on="1"/>
        <pt x="2167" y="-387" on="0"/>
        <pt x="2102" y="-343" on="1"/>
        <pt x="2102" y="-307" on="1"/>
        <pt x="2148" y="-285" on="0"/>
        <pt x="2163" y="-285" on="1"/>
        <pt x="2176" y="-285" on="0"/>
        <pt x="2278" y="-305" on="0"/>
        <pt x="2291" y="-305" on="1"/>
        <pt x="2414" y="-305" on="0"/>
        <pt x="2555" y="-251" on="1"/>
        <pt x="2603" y="-233" on="0"/>
        <pt x="2676" y="-181" on="1"/>
        <pt x="2721" y="-149" on="0"/>
        <pt x="2810" y="-54" on="1"/>
        <pt x="2921" y="61" on="0"/>
        <pt x="2921" y="104" on="1"/>
        <pt x="2921" y="149" on="0"/>
        <pt x="2846" y="218" on="1"/>
        <pt x="2803" y="256" on="0"/>
        <pt x="2760" y="294" on="1"/>
        <pt x="2746" y="334" on="0"/>
        <pt x="2746" y="334" on="1"/>
        <pt x="2746" y="377" on="0"/>
        <pt x="2791" y="442" on="1"/>
        <pt x="2859" y="420" on="0"/>
        <pt x="2928" y="340" on="1"/>
        <pt x="3002" y="254" on="0"/>
      </contour>
      <contour>
        <pt x="1128" y="917" on="1"/>
        <pt x="1091" y="869" on="0"/>
        <pt x="995" y="811" on="1"/>
        <pt x="893" y="750" on="0"/>
        <pt x="842" y="750" on="1"/>
        <pt x="815" y="750" on="0"/>
        <pt x="791" y="773" on="1"/>
        <pt x="797" y="808" on="0"/>
        <pt x="843" y="831" on="1"/>
        <pt x="909" y="864" on="0"/>
        <pt x="914" y="868" on="1"/>
        <pt x="898" y="903" on="0"/>
        <pt x="832" y="903" on="1"/>
        <pt x="803" y="903" on="0"/>
        <pt x="702" y="841" on="1"/>
        <pt x="688" y="843" on="0"/>
        <pt x="688" y="867" on="1"/>
        <pt x="688" y="929" on="0"/>
        <pt x="773" y="977" on="1"/>
        <pt x="841" y="1016" on="0"/>
        <pt x="883" y="1016" on="1"/>
        <pt x="914" y="1016" on="0"/>
        <pt x="1128" y="963" on="1"/>
      </contour>
      <contour>
        <pt x="1917" y="-141" on="1"/>
        <pt x="1917" y="-163" on="0"/>
        <pt x="1897" y="-200" on="1"/>
        <pt x="1875" y="-244" on="0"/>
        <pt x="1851" y="-244" on="1"/>
        <pt x="1828" y="-244" on="0"/>
        <pt x="1723" y="-177" on="0"/>
        <pt x="1723" y="-156" on="1"/>
        <pt x="1723" y="-134" on="0"/>
        <pt x="1796" y="-49" on="0"/>
        <pt x="1820" y="-49" on="1"/>
        <pt x="1861" y="-49" on="0"/>
        <pt x="1892" y="-89" on="1"/>
        <pt x="1917" y="-122" on="0"/>
      </contour>
      <contour>
        <pt x="2245" y="-627" on="1"/>
        <pt x="2245" y="-671" on="0"/>
        <pt x="2211" y="-691" on="1"/>
        <pt x="2127" y="-741" on="0"/>
        <pt x="1888" y="-857" on="0"/>
        <pt x="1870" y="-857" on="1"/>
        <pt x="1828" y="-857" on="1"/>
        <pt x="1815" y="-844" on="0"/>
        <pt x="1815" y="-822" on="1"/>
        <pt x="1815" y="-783" on="0"/>
        <pt x="1997" y="-693" on="1"/>
        <pt x="2141" y="-621" on="0"/>
        <pt x="2231" y="-592" on="1"/>
        <pt x="2245" y="-606" on="0"/>
      </contour>
      <contour>
        <pt x="2132" y="242" on="1"/>
        <pt x="2132" y="188" on="0"/>
        <pt x="2107" y="138" on="1"/>
        <pt x="2097" y="131" on="0"/>
        <pt x="2077" y="115" on="1"/>
        <pt x="2062" y="122" on="0"/>
        <pt x="2004" y="163" on="1"/>
        <pt x="1957" y="197" on="0"/>
        <pt x="1942" y="197" on="1"/>
        <pt x="1898" y="197" on="0"/>
        <pt x="1688" y="101" on="1"/>
        <pt x="1636" y="77" on="0"/>
        <pt x="1591" y="14" on="1"/>
        <pt x="1562" y="-25" on="0"/>
        <pt x="1565" y="-105" on="1"/>
        <pt x="1566" y="-127" on="0"/>
        <pt x="1575" y="-196" on="1"/>
        <pt x="1584" y="-261" on="0"/>
        <pt x="1584" y="-296" on="1"/>
        <pt x="1584" y="-335" on="0"/>
        <pt x="1575" y="-362" on="1"/>
        <pt x="1569" y="-382" on="0"/>
        <pt x="1526" y="-424" on="1"/>
        <pt x="1480" y="-469" on="0"/>
        <pt x="1457" y="-469" on="1"/>
        <pt x="1440" y="-469" on="0"/>
        <pt x="1392" y="-420" on="0"/>
        <pt x="1387" y="-403" on="1"/>
        <pt x="1367" y="-348" on="0"/>
        <pt x="1336" y="-240" on="1"/>
        <pt x="1330" y="-211" on="0"/>
        <pt x="1330" y="-185" on="1"/>
        <pt x="1330" y="-144" on="0"/>
        <pt x="1364" y="-51" on="0"/>
        <pt x="1364" y="-32" on="1"/>
        <pt x="1364" y="16" on="1"/>
        <pt x="1358" y="22" on="0"/>
        <pt x="1339" y="22" on="1"/>
        <pt x="1329" y="22" on="0"/>
        <pt x="1279" y="14" on="1"/>
        <pt x="1222" y="4" on="0"/>
        <pt x="1195" y="2" on="1"/>
        <pt x="1209" y="3" on="0"/>
        <pt x="1113" y="5" on="1"/>
        <pt x="1057" y="7" on="0"/>
        <pt x="1039" y="-15" on="1"/>
        <pt x="1013" y="-233" on="0"/>
        <pt x="929" y="-233" on="1"/>
        <pt x="888" y="-233" on="0"/>
        <pt x="831" y="-166" on="1"/>
        <pt x="781" y="-108" on="0"/>
        <pt x="773" y="-76" on="1"/>
        <pt x="773" y="-33" on="0"/>
        <pt x="772" y="65" on="1"/>
        <pt x="769" y="65" on="0"/>
        <pt x="749" y="74" on="0"/>
        <pt x="734" y="74" on="1"/>
        <pt x="683" y="74" on="0"/>
        <pt x="606" y="41" on="1"/>
        <pt x="504" y="-1" on="0"/>
        <pt x="504" y="-64" on="1"/>
        <pt x="596" y="-842" on="1"/>
        <pt x="596" y="-952" on="0"/>
        <pt x="538" y="-980" on="1"/>
        <pt x="422" y="-141" on="1"/>
        <pt x="457" y="120" on="0"/>
        <pt x="640" y="202" on="1"/>
        <pt x="688" y="211" on="0"/>
        <pt x="774" y="229" on="1"/>
        <pt x="792" y="234" on="0"/>
        <pt x="810" y="261" on="1"/>
        <pt x="837" y="300" on="0"/>
        <pt x="846" y="309" on="1"/>
        <pt x="895" y="262" on="0"/>
        <pt x="993" y="188" on="1"/>
        <pt x="1073" y="145" on="0"/>
        <pt x="1190" y="145" on="1"/>
        <pt x="1330" y="145" on="0"/>
        <pt x="1459" y="198" on="1"/>
        <pt x="1507" y="218" on="0"/>
        <pt x="1552" y="297" on="1"/>
        <pt x="1556" y="304" on="0"/>
        <pt x="1602" y="349" on="1"/>
        <pt x="1639" y="349" on="1"/>
        <pt x="1639" y="345" on="0"/>
        <pt x="1651" y="334" on="0"/>
        <pt x="1651" y="319" on="1"/>
        <pt x="1651" y="288" on="0"/>
        <pt x="1575" y="182" on="1"/>
        <pt x="1532" y="124" on="0"/>
        <pt x="1489" y="66" on="1"/>
        <pt x="1446" y="-9" on="0"/>
        <pt x="1446" y="-39" on="1"/>
        <pt x="1446" y="-55" on="0"/>
        <pt x="1462" y="-90" on="1"/>
        <pt x="1485" y="-30" on="0"/>
        <pt x="1507" y="30" on="1"/>
        <pt x="1537" y="102" on="0"/>
        <pt x="1562" y="129" on="1"/>
        <pt x="1611" y="181" on="0"/>
        <pt x="1762" y="263" on="1"/>
        <pt x="1924" y="350" on="0"/>
        <pt x="1994" y="350" on="1"/>
        <pt x="2030" y="350" on="0"/>
        <pt x="2078" y="319" on="1"/>
        <pt x="2132" y="285" on="0"/>
      </contour>
      <contour>
        <pt x="1732" y="-618" on="1"/>
        <pt x="1733" y="-645" on="0"/>
        <pt x="1557" y="-736" on="1"/>
        <pt x="1385" y="-825" on="0"/>
        <pt x="1296" y="-847" on="1"/>
        <pt x="1282" y="-833" on="0"/>
        <pt x="1282" y="-811" on="1"/>
        <pt x="1282" y="-761" on="0"/>
        <pt x="1367" y="-719" on="1"/>
        <pt x="1423" y="-695" on="0"/>
        <pt x="1480" y="-671" on="1"/>
        <pt x="1556" y="-626" on="0"/>
        <pt x="1707" y="-561" on="1"/>
        <pt x="1722" y="-572" on="0"/>
        <pt x="1732" y="-572" on="1"/>
      </contour>
    </TTGlyph>
    <TTGlyph name="gaffinalarabic" xMin="142" yMin="226" xMax="842" yMax="1588">
      <contour>
        <pt x="142" y="226" on="1"/>
        <pt x="142" y="1588" on="1"/>
        <pt x="842" y="1588" on="1"/>
        <pt x="842" y="226" on="1"/>
      </contour>
      <contour>
        <pt x="284" y="368" on="1"/>
        <pt x="700" y="368" on="1"/>
        <pt x="700" y="1447" on="1"/>
        <pt x="284" y="1447" on="1"/>
      </contour>
    </TTGlyph>
    <TTGlyph name="gafinitialarabic" xMin="142" yMin="226" xMax="842" yMax="1588">
      <contour>
        <pt x="142" y="226" on="1"/>
        <pt x="142" y="1588" on="1"/>
        <pt x="842" y="1588" on="1"/>
        <pt x="842" y="226" on="1"/>
      </contour>
      <contour>
        <pt x="284" y="368" on="1"/>
        <pt x="700" y="368" on="1"/>
        <pt x="700" y="1447" on="1"/>
        <pt x="284" y="1447" on="1"/>
      </contour>
    </TTGlyph>
    <TTGlyph name="gafmedialarabic" xMin="142" yMin="226" xMax="842" yMax="1588">
      <contour>
        <pt x="142" y="226" on="1"/>
        <pt x="142" y="1588" on="1"/>
        <pt x="842" y="1588" on="1"/>
        <pt x="842" y="226" on="1"/>
      </contour>
      <contour>
        <pt x="284" y="368" on="1"/>
        <pt x="700" y="368" on="1"/>
        <pt x="700" y="1447" on="1"/>
        <pt x="284" y="1447" on="1"/>
      </contour>
    </TTGlyph>
    <TTGlyph name="glyph41" xMin="142" yMin="226" xMax="842" yMax="1588">
      <contour>
        <pt x="142" y="226" on="1"/>
        <pt x="142" y="1588" on="1"/>
        <pt x="842" y="1588" on="1"/>
        <pt x="842" y="226" on="1"/>
      </contour>
      <contour>
        <pt x="284" y="368" on="1"/>
        <pt x="700" y="368" on="1"/>
        <pt x="700" y="1447" on="1"/>
        <pt x="284" y="1447" on="1"/>
      </contour>
    </TTGlyph>
    <TTGlyph name="glyph42" xMin="142" yMin="226" xMax="842" yMax="1588">
      <contour>
        <pt x="142" y="226" on="1"/>
        <pt x="142" y="1588" on="1"/>
        <pt x="842" y="1588" on="1"/>
        <pt x="842" y="226" on="1"/>
      </contour>
      <contour>
        <pt x="284" y="368" on="1"/>
        <pt x="700" y="368" on="1"/>
        <pt x="700" y="1447" on="1"/>
        <pt x="284" y="1447" on="1"/>
      </contour>
    </TTGlyph>
    <TTGlyph name="glyph43" xMin="142" yMin="226" xMax="842" yMax="1588">
      <contour>
        <pt x="142" y="226" on="1"/>
        <pt x="142" y="1588" on="1"/>
        <pt x="842" y="1588" on="1"/>
        <pt x="842" y="226" on="1"/>
      </contour>
      <contour>
        <pt x="284" y="368" on="1"/>
        <pt x="700" y="368" on="1"/>
        <pt x="700" y="1447" on="1"/>
        <pt x="284" y="1447" on="1"/>
      </contour>
    </TTGlyph>
    <TTGlyph name="glyph44" xMin="142" yMin="226" xMax="842" yMax="1588">
      <contour>
        <pt x="142" y="226" on="1"/>
        <pt x="142" y="1588" on="1"/>
        <pt x="842" y="1588" on="1"/>
        <pt x="842" y="226" on="1"/>
      </contour>
      <contour>
        <pt x="284" y="368" on="1"/>
        <pt x="700" y="368" on="1"/>
        <pt x="700" y="1447" on="1"/>
        <pt x="284" y="1447" on="1"/>
      </contour>
    </TTGlyph>
    <TTGlyph name="glyph45" xMin="142" yMin="226" xMax="842" yMax="1588">
      <contour>
        <pt x="142" y="226" on="1"/>
        <pt x="142" y="1588" on="1"/>
        <pt x="842" y="1588" on="1"/>
        <pt x="842" y="226" on="1"/>
      </contour>
      <contour>
        <pt x="284" y="368" on="1"/>
        <pt x="700" y="368" on="1"/>
        <pt x="700" y="1447" on="1"/>
        <pt x="284" y="1447" on="1"/>
      </contour>
    </TTGlyph>
    <TTGlyph name="glyph46" xMin="142" yMin="226" xMax="842" yMax="1588">
      <contour>
        <pt x="142" y="226" on="1"/>
        <pt x="142" y="1588" on="1"/>
        <pt x="842" y="1588" on="1"/>
        <pt x="842" y="226" on="1"/>
      </contour>
      <contour>
        <pt x="284" y="368" on="1"/>
        <pt x="700" y="368" on="1"/>
        <pt x="700" y="1447" on="1"/>
        <pt x="284" y="1447" on="1"/>
      </contour>
    </TTGlyph>
    <TTGlyph name="glyph47" xMin="142" yMin="226" xMax="842" yMax="1588">
      <contour>
        <pt x="142" y="226" on="1"/>
        <pt x="142" y="1588" on="1"/>
        <pt x="842" y="1588" on="1"/>
        <pt x="842" y="226" on="1"/>
      </contour>
      <contour>
        <pt x="284" y="368" on="1"/>
        <pt x="700" y="368" on="1"/>
        <pt x="700" y="1447" on="1"/>
        <pt x="284" y="1447" on="1"/>
      </contour>
    </TTGlyph>
    <TTGlyph name="glyph48" xMin="142" yMin="226" xMax="842" yMax="1588">
      <contour>
        <pt x="142" y="226" on="1"/>
        <pt x="142" y="1588" on="1"/>
        <pt x="842" y="1588" on="1"/>
        <pt x="842" y="226" on="1"/>
      </contour>
      <contour>
        <pt x="284" y="368" on="1"/>
        <pt x="700" y="368" on="1"/>
        <pt x="700" y="1447" on="1"/>
        <pt x="284" y="1447" on="1"/>
      </contour>
    </TTGlyph>
    <TTGlyph name="glyph50" xMin="142" yMin="226" xMax="842" yMax="1588">
      <contour>
        <pt x="142" y="226" on="1"/>
        <pt x="142" y="1588" on="1"/>
        <pt x="842" y="1588" on="1"/>
        <pt x="842" y="226" on="1"/>
      </contour>
      <contour>
        <pt x="284" y="368" on="1"/>
        <pt x="700" y="368" on="1"/>
        <pt x="700" y="1447" on="1"/>
        <pt x="284" y="1447" on="1"/>
      </contour>
    </TTGlyph>
    <TTGlyph name="glyph51" xMin="142" yMin="226" xMax="842" yMax="1588">
      <contour>
        <pt x="142" y="226" on="1"/>
        <pt x="142" y="1588" on="1"/>
        <pt x="842" y="1588" on="1"/>
        <pt x="842" y="226" on="1"/>
      </contour>
      <contour>
        <pt x="284" y="368" on="1"/>
        <pt x="700" y="368" on="1"/>
        <pt x="700" y="1447" on="1"/>
        <pt x="284" y="1447" on="1"/>
      </contour>
    </TTGlyph>
    <TTGlyph name="greater" xMin="142" yMin="226" xMax="842" yMax="1588">
      <contour>
        <pt x="142" y="226" on="1"/>
        <pt x="142" y="1588" on="1"/>
        <pt x="842" y="1588" on="1"/>
        <pt x="842" y="226" on="1"/>
      </contour>
      <contour>
        <pt x="284" y="368" on="1"/>
        <pt x="700" y="368" on="1"/>
        <pt x="700" y="1447" on="1"/>
        <pt x="284" y="1447" on="1"/>
      </contour>
    </TTGlyph>
    <TTGlyph name="hahhamzabovefinal" xMin="142" yMin="226" xMax="842" yMax="1588">
      <contour>
        <pt x="142" y="226" on="1"/>
        <pt x="142" y="1588" on="1"/>
        <pt x="842" y="1588" on="1"/>
        <pt x="842" y="226" on="1"/>
      </contour>
      <contour>
        <pt x="284" y="368" on="1"/>
        <pt x="700" y="368" on="1"/>
        <pt x="700" y="1447" on="1"/>
        <pt x="284" y="1447" on="1"/>
      </contour>
    </TTGlyph>
    <TTGlyph name="hahhamzaboveinitial" xMin="142" yMin="226" xMax="842" yMax="1588">
      <contour>
        <pt x="142" y="226" on="1"/>
        <pt x="142" y="1588" on="1"/>
        <pt x="842" y="1588" on="1"/>
        <pt x="842" y="226" on="1"/>
      </contour>
      <contour>
        <pt x="284" y="368" on="1"/>
        <pt x="700" y="368" on="1"/>
        <pt x="700" y="1447" on="1"/>
        <pt x="284" y="1447" on="1"/>
      </contour>
    </TTGlyph>
    <TTGlyph name="hahhamzabovemedial" xMin="142" yMin="226" xMax="842" yMax="1588">
      <contour>
        <pt x="142" y="226" on="1"/>
        <pt x="142" y="1588" on="1"/>
        <pt x="842" y="1588" on="1"/>
        <pt x="842" y="226" on="1"/>
      </contour>
      <contour>
        <pt x="284" y="368" on="1"/>
        <pt x="700" y="368" on="1"/>
        <pt x="700" y="1447" on="1"/>
        <pt x="284" y="1447" on="1"/>
      </contour>
    </TTGlyph>
    <TTGlyph name="hahthreedotsabovefinal" xMin="142" yMin="226" xMax="842" yMax="1588">
      <contour>
        <pt x="142" y="226" on="1"/>
        <pt x="142" y="1588" on="1"/>
        <pt x="842" y="1588" on="1"/>
        <pt x="842" y="226" on="1"/>
      </contour>
      <contour>
        <pt x="284" y="368" on="1"/>
        <pt x="700" y="368" on="1"/>
        <pt x="700" y="1447" on="1"/>
        <pt x="284" y="1447" on="1"/>
      </contour>
    </TTGlyph>
    <TTGlyph name="hahthreedotsaboveinitial" xMin="142" yMin="226" xMax="842" yMax="1588">
      <contour>
        <pt x="142" y="226" on="1"/>
        <pt x="142" y="1588" on="1"/>
        <pt x="842" y="1588" on="1"/>
        <pt x="842" y="226" on="1"/>
      </contour>
      <contour>
        <pt x="284" y="368" on="1"/>
        <pt x="700" y="368" on="1"/>
        <pt x="700" y="1447" on="1"/>
        <pt x="284" y="1447" on="1"/>
      </contour>
    </TTGlyph>
    <TTGlyph name="hahthreedotsabovemedial" xMin="142" yMin="226" xMax="842" yMax="1588">
      <contour>
        <pt x="142" y="226" on="1"/>
        <pt x="142" y="1588" on="1"/>
        <pt x="842" y="1588" on="1"/>
        <pt x="842" y="226" on="1"/>
      </contour>
      <contour>
        <pt x="284" y="368" on="1"/>
        <pt x="700" y="368" on="1"/>
        <pt x="700" y="1447" on="1"/>
        <pt x="284" y="1447" on="1"/>
      </contour>
    </TTGlyph>
    <TTGlyph name="hehdoachashmeefinalarabic" xMin="142" yMin="226" xMax="842" yMax="1588">
      <contour>
        <pt x="142" y="226" on="1"/>
        <pt x="142" y="1588" on="1"/>
        <pt x="842" y="1588" on="1"/>
        <pt x="842" y="226" on="1"/>
      </contour>
      <contour>
        <pt x="284" y="368" on="1"/>
        <pt x="700" y="368" on="1"/>
        <pt x="700" y="1447" on="1"/>
        <pt x="284" y="1447" on="1"/>
      </contour>
    </TTGlyph>
    <TTGlyph name="hehdoachashmeeinitialarabic" xMin="142" yMin="226" xMax="842" yMax="1588">
      <contour>
        <pt x="142" y="226" on="1"/>
        <pt x="142" y="1588" on="1"/>
        <pt x="842" y="1588" on="1"/>
        <pt x="842" y="226" on="1"/>
      </contour>
      <contour>
        <pt x="284" y="368" on="1"/>
        <pt x="700" y="368" on="1"/>
        <pt x="700" y="1447" on="1"/>
        <pt x="284" y="1447" on="1"/>
      </contour>
    </TTGlyph>
    <TTGlyph name="hehdoachashmeemedialarabic" xMin="142" yMin="226" xMax="842" yMax="1588">
      <contour>
        <pt x="142" y="226" on="1"/>
        <pt x="142" y="1588" on="1"/>
        <pt x="842" y="1588" on="1"/>
        <pt x="842" y="226" on="1"/>
      </contour>
      <contour>
        <pt x="284" y="368" on="1"/>
        <pt x="700" y="368" on="1"/>
        <pt x="700" y="1447" on="1"/>
        <pt x="284" y="1447" on="1"/>
      </contour>
    </TTGlyph>
    <TTGlyph name="hehfinalaltonearabic" xMin="142" yMin="226" xMax="842" yMax="1588">
      <contour>
        <pt x="142" y="226" on="1"/>
        <pt x="142" y="1588" on="1"/>
        <pt x="842" y="1588" on="1"/>
        <pt x="842" y="226" on="1"/>
      </contour>
      <contour>
        <pt x="284" y="368" on="1"/>
        <pt x="700" y="368" on="1"/>
        <pt x="700" y="1447" on="1"/>
        <pt x="284" y="1447" on="1"/>
      </contour>
    </TTGlyph>
    <TTGlyph name="hehhamzaabovefinalarabic" xMin="142" yMin="226" xMax="842" yMax="1588">
      <contour>
        <pt x="142" y="226" on="1"/>
        <pt x="142" y="1588" on="1"/>
        <pt x="842" y="1588" on="1"/>
        <pt x="842" y="226" on="1"/>
      </contour>
      <contour>
        <pt x="284" y="368" on="1"/>
        <pt x="700" y="368" on="1"/>
        <pt x="700" y="1447" on="1"/>
        <pt x="284" y="1447" on="1"/>
      </contour>
    </TTGlyph>
    <TTGlyph name="hehinitialaltonearabic" xMin="142" yMin="226" xMax="842" yMax="1588">
      <contour>
        <pt x="142" y="226" on="1"/>
        <pt x="142" y="1588" on="1"/>
        <pt x="842" y="1588" on="1"/>
        <pt x="842" y="226" on="1"/>
      </contour>
      <contour>
        <pt x="284" y="368" on="1"/>
        <pt x="700" y="368" on="1"/>
        <pt x="700" y="1447" on="1"/>
        <pt x="284" y="1447" on="1"/>
      </contour>
    </TTGlyph>
    <TTGlyph name="hehmedialaltonearabic" xMin="142" yMin="226" xMax="842" yMax="1588">
      <contour>
        <pt x="142" y="226" on="1"/>
        <pt x="142" y="1588" on="1"/>
        <pt x="842" y="1588" on="1"/>
        <pt x="842" y="226" on="1"/>
      </contour>
      <contour>
        <pt x="284" y="368" on="1"/>
        <pt x="700" y="368" on="1"/>
        <pt x="700" y="1447" on="1"/>
        <pt x="284" y="1447" on="1"/>
      </contour>
    </TTGlyph>
    <TTGlyph name="hyphen" xMin="422" yMin="-980" xMax="3002" yMax="1128">
      <contour>
        <pt x="3002" y="1098" on="1"/>
        <pt x="3002" y="1035" on="0"/>
        <pt x="2897" y="983" on="0"/>
        <pt x="2712" y="871" on="1"/>
        <pt x="2581" y="790" on="0"/>
        <pt x="2494" y="770" on="1"/>
        <pt x="2470" y="794" on="0"/>
        <pt x="2470" y="805" on="1"/>
        <pt x="2470" y="852" on="0"/>
        <pt x="2519" y="879" on="1"/>
        <pt x="2567" y="902" on="0"/>
        <pt x="2616" y="925" on="1"/>
        <pt x="2649" y="945" on="0"/>
        <pt x="2882" y="1082" on="1"/>
        <pt x="2930" y="1111" on="0"/>
        <pt x="2989" y="1128" on="1"/>
        <pt x="3002" y="1114" on="0"/>
      </contour>
      <contour>
        <pt x="2132" y="907" on="1"/>
        <pt x="2133" y="856" on="0"/>
        <pt x="2059" y="794" on="1"/>
        <pt x="2020" y="784" on="0"/>
        <pt x="1945" y="756" on="1"/>
        <pt x="1868" y="718" on="0"/>
        <pt x="1861" y="718" on="1"/>
        <pt x="1841" y="718" on="0"/>
        <pt x="1808" y="734" on="1"/>
        <pt x="1764" y="754" on="0"/>
        <pt x="1764" y="785" on="1"/>
        <pt x="1764" y="807" on="0"/>
        <pt x="1789" y="853" on="1"/>
        <pt x="1817" y="904" on="0"/>
        <pt x="1847" y="923" on="1"/>
        <pt x="1847" y="904" on="0"/>
        <pt x="1849" y="869" on="1"/>
        <pt x="1850" y="854" on="0"/>
        <pt x="1854" y="840" on="1"/>
        <pt x="1856" y="840" on="0"/>
        <pt x="1866" y="831" on="0"/>
        <pt x="1881" y="831" on="1"/>
        <pt x="1906" y="831" on="0"/>
        <pt x="1934" y="890" on="1"/>
        <pt x="1954" y="930" on="0"/>
        <pt x="1960" y="953" on="1"/>
        <pt x="1965" y="953" on="0"/>
        <pt x="1990" y="964" on="0"/>
        <pt x="1996" y="964" on="1"/>
        <pt x="2010" y="953" on="0"/>
        <pt x="2008" y="901" on="1"/>
        <pt x="2011" y="901" on="0"/>
        <pt x="2020" y="893" on="0"/>
        <pt x="2035" y="893" on="1"/>
        <pt x="2060" y="893" on="0"/>
        <pt x="2093" y="1004" on="1"/>
        <pt x="2132" y="1004" on="1"/>
      </contour>
      <contour>
        <pt x="3002" y="181" on="1"/>
        <pt x="3002" y="29" on="0"/>
        <pt x="2897" y="-140" on="1"/>
        <pt x="2780" y="-329" on="0"/>
        <pt x="2620" y="-374" on="1"/>
        <pt x="2573" y="-387" on="0"/>
        <pt x="2363" y="-387" on="1"/>
        <pt x="2167" y="-387" on="0"/>
        <pt x="2102" y="-343" on="1"/>
        <pt x="2102" y="-307" on="1"/>
        <pt x="2148" y="-285" on="0"/>
        <pt x="2163" y="-285" on="1"/>
        <pt x="2176" y="-285" on="0"/>
        <pt x="2278" y="-305" on="0"/>
        <pt x="2291" y="-305" on="1"/>
        <pt x="2414" y="-305" on="0"/>
        <pt x="2555" y="-251" on="1"/>
        <pt x="2603" y="-233" on="0"/>
        <pt x="2676" y="-181" on="1"/>
        <pt x="2721" y="-149" on="0"/>
        <pt x="2810" y="-54" on="1"/>
        <pt x="2921" y="61" on="0"/>
        <pt x="2921" y="104" on="1"/>
        <pt x="2921" y="149" on="0"/>
        <pt x="2846" y="218" on="1"/>
        <pt x="2803" y="256" on="0"/>
        <pt x="2760" y="294" on="1"/>
        <pt x="2746" y="334" on="0"/>
        <pt x="2746" y="334" on="1"/>
        <pt x="2746" y="377" on="0"/>
        <pt x="2791" y="442" on="1"/>
        <pt x="2859" y="420" on="0"/>
        <pt x="2928" y="340" on="1"/>
        <pt x="3002" y="254" on="0"/>
      </contour>
      <contour>
        <pt x="1128" y="917" on="1"/>
        <pt x="1091" y="869" on="0"/>
        <pt x="995" y="811" on="1"/>
        <pt x="893" y="750" on="0"/>
        <pt x="842" y="750" on="1"/>
        <pt x="815" y="750" on="0"/>
        <pt x="791" y="773" on="1"/>
        <pt x="797" y="808" on="0"/>
        <pt x="843" y="831" on="1"/>
        <pt x="909" y="864" on="0"/>
        <pt x="914" y="868" on="1"/>
        <pt x="898" y="903" on="0"/>
        <pt x="832" y="903" on="1"/>
        <pt x="803" y="903" on="0"/>
        <pt x="702" y="841" on="1"/>
        <pt x="688" y="843" on="0"/>
        <pt x="688" y="867" on="1"/>
        <pt x="688" y="929" on="0"/>
        <pt x="773" y="977" on="1"/>
        <pt x="841" y="1016" on="0"/>
        <pt x="883" y="1016" on="1"/>
        <pt x="914" y="1016" on="0"/>
        <pt x="1128" y="963" on="1"/>
      </contour>
      <contour>
        <pt x="1917" y="-141" on="1"/>
        <pt x="1917" y="-163" on="0"/>
        <pt x="1897" y="-200" on="1"/>
        <pt x="1875" y="-244" on="0"/>
        <pt x="1851" y="-244" on="1"/>
        <pt x="1828" y="-244" on="0"/>
        <pt x="1723" y="-177" on="0"/>
        <pt x="1723" y="-156" on="1"/>
        <pt x="1723" y="-134" on="0"/>
        <pt x="1796" y="-49" on="0"/>
        <pt x="1820" y="-49" on="1"/>
        <pt x="1861" y="-49" on="0"/>
        <pt x="1892" y="-89" on="1"/>
        <pt x="1917" y="-122" on="0"/>
      </contour>
      <contour>
        <pt x="2245" y="-627" on="1"/>
        <pt x="2245" y="-671" on="0"/>
        <pt x="2211" y="-691" on="1"/>
        <pt x="2127" y="-741" on="0"/>
        <pt x="1888" y="-857" on="0"/>
        <pt x="1870" y="-857" on="1"/>
        <pt x="1828" y="-857" on="1"/>
        <pt x="1815" y="-844" on="0"/>
        <pt x="1815" y="-822" on="1"/>
        <pt x="1815" y="-783" on="0"/>
        <pt x="1997" y="-693" on="1"/>
        <pt x="2141" y="-621" on="0"/>
        <pt x="2231" y="-592" on="1"/>
        <pt x="2245" y="-606" on="0"/>
      </contour>
      <contour>
        <pt x="2132" y="242" on="1"/>
        <pt x="2132" y="188" on="0"/>
        <pt x="2107" y="138" on="1"/>
        <pt x="2097" y="131" on="0"/>
        <pt x="2077" y="115" on="1"/>
        <pt x="2062" y="122" on="0"/>
        <pt x="2004" y="163" on="1"/>
        <pt x="1957" y="197" on="0"/>
        <pt x="1942" y="197" on="1"/>
        <pt x="1898" y="197" on="0"/>
        <pt x="1688" y="101" on="1"/>
        <pt x="1636" y="77" on="0"/>
        <pt x="1591" y="14" on="1"/>
        <pt x="1562" y="-25" on="0"/>
        <pt x="1565" y="-105" on="1"/>
        <pt x="1566" y="-127" on="0"/>
        <pt x="1575" y="-196" on="1"/>
        <pt x="1584" y="-261" on="0"/>
        <pt x="1584" y="-296" on="1"/>
        <pt x="1584" y="-335" on="0"/>
        <pt x="1575" y="-362" on="1"/>
        <pt x="1569" y="-382" on="0"/>
        <pt x="1526" y="-424" on="1"/>
        <pt x="1480" y="-469" on="0"/>
        <pt x="1457" y="-469" on="1"/>
        <pt x="1440" y="-469" on="0"/>
        <pt x="1392" y="-420" on="0"/>
        <pt x="1387" y="-403" on="1"/>
        <pt x="1367" y="-348" on="0"/>
        <pt x="1336" y="-240" on="1"/>
        <pt x="1330" y="-211" on="0"/>
        <pt x="1330" y="-185" on="1"/>
        <pt x="1330" y="-144" on="0"/>
        <pt x="1364" y="-51" on="0"/>
        <pt x="1364" y="-32" on="1"/>
        <pt x="1364" y="16" on="1"/>
        <pt x="1358" y="22" on="0"/>
        <pt x="1339" y="22" on="1"/>
        <pt x="1329" y="22" on="0"/>
        <pt x="1279" y="14" on="1"/>
        <pt x="1222" y="4" on="0"/>
        <pt x="1195" y="2" on="1"/>
        <pt x="1209" y="3" on="0"/>
        <pt x="1113" y="5" on="1"/>
        <pt x="1057" y="7" on="0"/>
        <pt x="1039" y="-15" on="1"/>
        <pt x="1013" y="-233" on="0"/>
        <pt x="929" y="-233" on="1"/>
        <pt x="888" y="-233" on="0"/>
        <pt x="831" y="-166" on="1"/>
        <pt x="781" y="-108" on="0"/>
        <pt x="773" y="-76" on="1"/>
        <pt x="773" y="-33" on="0"/>
        <pt x="772" y="65" on="1"/>
        <pt x="769" y="65" on="0"/>
        <pt x="749" y="74" on="0"/>
        <pt x="734" y="74" on="1"/>
        <pt x="683" y="74" on="0"/>
        <pt x="606" y="41" on="1"/>
        <pt x="504" y="-1" on="0"/>
        <pt x="504" y="-64" on="1"/>
        <pt x="596" y="-842" on="1"/>
        <pt x="596" y="-952" on="0"/>
        <pt x="538" y="-980" on="1"/>
        <pt x="422" y="-141" on="1"/>
        <pt x="457" y="120" on="0"/>
        <pt x="640" y="202" on="1"/>
        <pt x="688" y="211" on="0"/>
        <pt x="774" y="229" on="1"/>
        <pt x="792" y="234" on="0"/>
        <pt x="810" y="261" on="1"/>
        <pt x="837" y="300" on="0"/>
        <pt x="846" y="309" on="1"/>
        <pt x="895" y="262" on="0"/>
        <pt x="993" y="188" on="1"/>
        <pt x="1073" y="145" on="0"/>
        <pt x="1190" y="145" on="1"/>
        <pt x="1330" y="145" on="0"/>
        <pt x="1459" y="198" on="1"/>
        <pt x="1507" y="218" on="0"/>
        <pt x="1552" y="297" on="1"/>
        <pt x="1556" y="304" on="0"/>
        <pt x="1602" y="349" on="1"/>
        <pt x="1639" y="349" on="1"/>
        <pt x="1639" y="345" on="0"/>
        <pt x="1651" y="334" on="0"/>
        <pt x="1651" y="319" on="1"/>
        <pt x="1651" y="288" on="0"/>
        <pt x="1575" y="182" on="1"/>
        <pt x="1532" y="124" on="0"/>
        <pt x="1489" y="66" on="1"/>
        <pt x="1446" y="-9" on="0"/>
        <pt x="1446" y="-39" on="1"/>
        <pt x="1446" y="-55" on="0"/>
        <pt x="1462" y="-90" on="1"/>
        <pt x="1485" y="-30" on="0"/>
        <pt x="1507" y="30" on="1"/>
        <pt x="1537" y="102" on="0"/>
        <pt x="1562" y="129" on="1"/>
        <pt x="1611" y="181" on="0"/>
        <pt x="1762" y="263" on="1"/>
        <pt x="1924" y="350" on="0"/>
        <pt x="1994" y="350" on="1"/>
        <pt x="2030" y="350" on="0"/>
        <pt x="2078" y="319" on="1"/>
        <pt x="2132" y="285" on="0"/>
      </contour>
      <contour>
        <pt x="1732" y="-618" on="1"/>
        <pt x="1733" y="-645" on="0"/>
        <pt x="1557" y="-736" on="1"/>
        <pt x="1385" y="-825" on="0"/>
        <pt x="1296" y="-847" on="1"/>
        <pt x="1282" y="-833" on="0"/>
        <pt x="1282" y="-811" on="1"/>
        <pt x="1282" y="-761" on="0"/>
        <pt x="1367" y="-719" on="1"/>
        <pt x="1423" y="-695" on="0"/>
        <pt x="1480" y="-671" on="1"/>
        <pt x="1556" y="-626" on="0"/>
        <pt x="1707" y="-561" on="1"/>
        <pt x="1722" y="-572" on="0"/>
        <pt x="1732" y="-572" on="1"/>
      </contour>
    </TTGlyph>
    <TTGlyph name="irghizufinal" xMin="142" yMin="226" xMax="842" yMax="1588">
      <contour>
        <pt x="142" y="226" on="1"/>
        <pt x="142" y="1588" on="1"/>
        <pt x="842" y="1588" on="1"/>
        <pt x="842" y="226" on="1"/>
      </contour>
      <contour>
        <pt x="284" y="368" on="1"/>
        <pt x="700" y="368" on="1"/>
        <pt x="700" y="1447" on="1"/>
        <pt x="284" y="1447" on="1"/>
      </contour>
    </TTGlyph>
    <TTGlyph name="jehfinalarabic" xMin="142" yMin="226" xMax="842" yMax="1588">
      <contour>
        <pt x="142" y="226" on="1"/>
        <pt x="142" y="1588" on="1"/>
        <pt x="842" y="1588" on="1"/>
        <pt x="842" y="226" on="1"/>
      </contour>
      <contour>
        <pt x="284" y="368" on="1"/>
        <pt x="700" y="368" on="1"/>
        <pt x="700" y="1447" on="1"/>
        <pt x="284" y="1447" on="1"/>
      </contour>
    </TTGlyph>
    <TTGlyph name="kafringfinal" xMin="142" yMin="226" xMax="842" yMax="1588">
      <contour>
        <pt x="142" y="226" on="1"/>
        <pt x="142" y="1588" on="1"/>
        <pt x="842" y="1588" on="1"/>
        <pt x="842" y="226" on="1"/>
      </contour>
      <contour>
        <pt x="284" y="368" on="1"/>
        <pt x="700" y="368" on="1"/>
        <pt x="700" y="1447" on="1"/>
        <pt x="284" y="1447" on="1"/>
      </contour>
    </TTGlyph>
    <TTGlyph name="kafringinitial" xMin="142" yMin="226" xMax="842" yMax="1588">
      <contour>
        <pt x="142" y="226" on="1"/>
        <pt x="142" y="1588" on="1"/>
        <pt x="842" y="1588" on="1"/>
        <pt x="842" y="226" on="1"/>
      </contour>
      <contour>
        <pt x="284" y="368" on="1"/>
        <pt x="700" y="368" on="1"/>
        <pt x="700" y="1447" on="1"/>
        <pt x="284" y="1447" on="1"/>
      </contour>
    </TTGlyph>
    <TTGlyph name="kafringmedial" xMin="142" yMin="226" xMax="842" yMax="1588">
      <contour>
        <pt x="142" y="226" on="1"/>
        <pt x="142" y="1588" on="1"/>
        <pt x="842" y="1588" on="1"/>
        <pt x="842" y="226" on="1"/>
      </contour>
      <contour>
        <pt x="284" y="368" on="1"/>
        <pt x="700" y="368" on="1"/>
        <pt x="700" y="1447" on="1"/>
        <pt x="284" y="1447" on="1"/>
      </contour>
    </TTGlyph>
    <TTGlyph name="kashidaautoarabic" xMin="142" yMin="226" xMax="842" yMax="1588">
      <contour>
        <pt x="142" y="226" on="1"/>
        <pt x="142" y="1588" on="1"/>
        <pt x="842" y="1588" on="1"/>
        <pt x="842" y="226" on="1"/>
      </contour>
      <contour>
        <pt x="284" y="368" on="1"/>
        <pt x="700" y="368" on="1"/>
        <pt x="700" y="1447" on="1"/>
        <pt x="284" y="1447" on="1"/>
      </contour>
    </TTGlyph>
    <TTGlyph name="kashidaautonosidebearingarabic" xMin="142" yMin="226" xMax="842" yMax="1588">
      <contour>
        <pt x="142" y="226" on="1"/>
        <pt x="142" y="1588" on="1"/>
        <pt x="842" y="1588" on="1"/>
        <pt x="842" y="226" on="1"/>
      </contour>
      <contour>
        <pt x="284" y="368" on="1"/>
        <pt x="700" y="368" on="1"/>
        <pt x="700" y="1447" on="1"/>
        <pt x="284" y="1447" on="1"/>
      </contour>
    </TTGlyph>
    <TTGlyph name="kehehfinalarabic" xMin="142" yMin="226" xMax="842" yMax="1588">
      <contour>
        <pt x="142" y="226" on="1"/>
        <pt x="142" y="1588" on="1"/>
        <pt x="842" y="1588" on="1"/>
        <pt x="842" y="226" on="1"/>
      </contour>
      <contour>
        <pt x="284" y="368" on="1"/>
        <pt x="700" y="368" on="1"/>
        <pt x="700" y="1447" on="1"/>
        <pt x="284" y="1447" on="1"/>
      </contour>
    </TTGlyph>
    <TTGlyph name="kehehinitialarabic" xMin="142" yMin="226" xMax="842" yMax="1588">
      <contour>
        <pt x="142" y="226" on="1"/>
        <pt x="142" y="1588" on="1"/>
        <pt x="842" y="1588" on="1"/>
        <pt x="842" y="226" on="1"/>
      </contour>
      <contour>
        <pt x="284" y="368" on="1"/>
        <pt x="700" y="368" on="1"/>
        <pt x="700" y="1447" on="1"/>
        <pt x="284" y="1447" on="1"/>
      </contour>
    </TTGlyph>
    <TTGlyph name="kehehmedialarabic" xMin="142" yMin="226" xMax="842" yMax="1588">
      <contour>
        <pt x="142" y="226" on="1"/>
        <pt x="142" y="1588" on="1"/>
        <pt x="842" y="1588" on="1"/>
        <pt x="842" y="226" on="1"/>
      </contour>
      <contour>
        <pt x="284" y="368" on="1"/>
        <pt x="700" y="368" on="1"/>
        <pt x="700" y="1447" on="1"/>
        <pt x="284" y="1447" on="1"/>
      </contour>
    </TTGlyph>
    <TTGlyph name="kirghizyifinal" xMin="142" yMin="226" xMax="842" yMax="1588">
      <contour>
        <pt x="142" y="226" on="1"/>
        <pt x="142" y="1588" on="1"/>
        <pt x="842" y="1588" on="1"/>
        <pt x="842" y="226" on="1"/>
      </contour>
      <contour>
        <pt x="284" y="368" on="1"/>
        <pt x="700" y="368" on="1"/>
        <pt x="700" y="1447" on="1"/>
        <pt x="284" y="1447" on="1"/>
      </contour>
    </TTGlyph>
    <TTGlyph name="lammeemjeeminitialarabic" xMin="142" yMin="226" xMax="842" yMax="1588">
      <contour>
        <pt x="142" y="226" on="1"/>
        <pt x="142" y="1588" on="1"/>
        <pt x="842" y="1588" on="1"/>
        <pt x="842" y="226" on="1"/>
      </contour>
      <contour>
        <pt x="284" y="368" on="1"/>
        <pt x="700" y="368" on="1"/>
        <pt x="700" y="1447" on="1"/>
        <pt x="284" y="1447" on="1"/>
      </contour>
    </TTGlyph>
    <TTGlyph name="lammeemkhahinitialarabic" xMin="142" yMin="226" xMax="842" yMax="1588">
      <contour>
        <pt x="142" y="226" on="1"/>
        <pt x="142" y="1588" on="1"/>
        <pt x="842" y="1588" on="1"/>
        <pt x="842" y="226" on="1"/>
      </contour>
      <contour>
        <pt x="284" y="368" on="1"/>
        <pt x="700" y="368" on="1"/>
        <pt x="700" y="1447" on="1"/>
        <pt x="284" y="1447" on="1"/>
      </contour>
    </TTGlyph>
    <TTGlyph name="lamthreedotsabovefinal" xMin="142" yMin="226" xMax="842" yMax="1588">
      <contour>
        <pt x="142" y="226" on="1"/>
        <pt x="142" y="1588" on="1"/>
        <pt x="842" y="1588" on="1"/>
        <pt x="842" y="226" on="1"/>
      </contour>
      <contour>
        <pt x="284" y="368" on="1"/>
        <pt x="700" y="368" on="1"/>
        <pt x="700" y="1447" on="1"/>
        <pt x="284" y="1447" on="1"/>
      </contour>
    </TTGlyph>
    <TTGlyph name="lamthreedotsaboveinitial" xMin="142" yMin="226" xMax="842" yMax="1588">
      <contour>
        <pt x="142" y="226" on="1"/>
        <pt x="142" y="1588" on="1"/>
        <pt x="842" y="1588" on="1"/>
        <pt x="842" y="226" on="1"/>
      </contour>
      <contour>
        <pt x="284" y="368" on="1"/>
        <pt x="700" y="368" on="1"/>
        <pt x="700" y="1447" on="1"/>
        <pt x="284" y="1447" on="1"/>
      </contour>
    </TTGlyph>
    <TTGlyph name="lamthreedotsabovemedial" xMin="142" yMin="226" xMax="842" yMax="1588">
      <contour>
        <pt x="142" y="226" on="1"/>
        <pt x="142" y="1588" on="1"/>
        <pt x="842" y="1588" on="1"/>
        <pt x="842" y="226" on="1"/>
      </contour>
      <contour>
        <pt x="284" y="368" on="1"/>
        <pt x="700" y="368" on="1"/>
        <pt x="700" y="1447" on="1"/>
        <pt x="284" y="1447" on="1"/>
      </contour>
    </TTGlyph>
    <TTGlyph name="less" xMin="142" yMin="226" xMax="842" yMax="1588">
      <contour>
        <pt x="142" y="226" on="1"/>
        <pt x="142" y="1588" on="1"/>
        <pt x="842" y="1588" on="1"/>
        <pt x="842" y="226" on="1"/>
      </contour>
      <contour>
        <pt x="284" y="368" on="1"/>
        <pt x="700" y="368" on="1"/>
        <pt x="700" y="1447" on="1"/>
        <pt x="284" y="1447" on="1"/>
      </contour>
    </TTGlyph>
    <TTGlyph name="meemmeemisolatedarabic" xMin="142" yMin="226" xMax="842" yMax="1588">
      <contour>
        <pt x="142" y="226" on="1"/>
        <pt x="142" y="1588" on="1"/>
        <pt x="842" y="1588" on="1"/>
        <pt x="842" y="226" on="1"/>
      </contour>
      <contour>
        <pt x="284" y="368" on="1"/>
        <pt x="700" y="368" on="1"/>
        <pt x="700" y="1447" on="1"/>
        <pt x="284" y="1447" on="1"/>
      </contour>
    </TTGlyph>
    <TTGlyph name="multiply" xMin="142" yMin="226" xMax="842" yMax="1588">
      <contour>
        <pt x="142" y="226" on="1"/>
        <pt x="142" y="1588" on="1"/>
        <pt x="842" y="1588" on="1"/>
        <pt x="842" y="226" on="1"/>
      </contour>
      <contour>
        <pt x="284" y="368" on="1"/>
        <pt x="700" y="368" on="1"/>
        <pt x="700" y="1447" on="1"/>
        <pt x="284" y="1447" on="1"/>
      </contour>
    </TTGlyph>
    <TTGlyph name="noonghunnafinalarabic" xMin="142" yMin="226" xMax="842" yMax="1588">
      <contour>
        <pt x="142" y="226" on="1"/>
        <pt x="142" y="1588" on="1"/>
        <pt x="842" y="1588" on="1"/>
        <pt x="842" y="226" on="1"/>
      </contour>
      <contour>
        <pt x="284" y="368" on="1"/>
        <pt x="700" y="368" on="1"/>
        <pt x="700" y="1447" on="1"/>
        <pt x="284" y="1447" on="1"/>
      </contour>
    </TTGlyph>
    <TTGlyph name="noonjeemisolatedarabic" xMin="142" yMin="226" xMax="842" yMax="1588">
      <contour>
        <pt x="142" y="226" on="1"/>
        <pt x="142" y="1588" on="1"/>
        <pt x="842" y="1588" on="1"/>
        <pt x="842" y="226" on="1"/>
      </contour>
      <contour>
        <pt x="284" y="368" on="1"/>
        <pt x="700" y="368" on="1"/>
        <pt x="700" y="1447" on="1"/>
        <pt x="284" y="1447" on="1"/>
      </contour>
    </TTGlyph>
    <TTGlyph name="noonmeemisolatedarabic" xMin="142" yMin="226" xMax="842" yMax="1588">
      <contour>
        <pt x="142" y="226" on="1"/>
        <pt x="142" y="1588" on="1"/>
        <pt x="842" y="1588" on="1"/>
        <pt x="842" y="226" on="1"/>
      </contour>
      <contour>
        <pt x="284" y="368" on="1"/>
        <pt x="700" y="368" on="1"/>
        <pt x="700" y="1447" on="1"/>
        <pt x="284" y="1447" on="1"/>
      </contour>
    </TTGlyph>
    <TTGlyph name="noonringfinal" xMin="142" yMin="226" xMax="842" yMax="1588">
      <contour>
        <pt x="142" y="226" on="1"/>
        <pt x="142" y="1588" on="1"/>
        <pt x="842" y="1588" on="1"/>
        <pt x="842" y="226" on="1"/>
      </contour>
      <contour>
        <pt x="284" y="368" on="1"/>
        <pt x="700" y="368" on="1"/>
        <pt x="700" y="1447" on="1"/>
        <pt x="284" y="1447" on="1"/>
      </contour>
    </TTGlyph>
    <TTGlyph name="noonringinitial" xMin="142" yMin="226" xMax="842" yMax="1588">
      <contour>
        <pt x="142" y="226" on="1"/>
        <pt x="142" y="1588" on="1"/>
        <pt x="842" y="1588" on="1"/>
        <pt x="842" y="226" on="1"/>
      </contour>
      <contour>
        <pt x="284" y="368" on="1"/>
        <pt x="700" y="368" on="1"/>
        <pt x="700" y="1447" on="1"/>
        <pt x="284" y="1447" on="1"/>
      </contour>
    </TTGlyph>
    <TTGlyph name="noonringmedial" xMin="142" yMin="226" xMax="842" yMax="1588">
      <contour>
        <pt x="142" y="226" on="1"/>
        <pt x="142" y="1588" on="1"/>
        <pt x="842" y="1588" on="1"/>
        <pt x="842" y="226" on="1"/>
      </contour>
      <contour>
        <pt x="284" y="368" on="1"/>
        <pt x="700" y="368" on="1"/>
        <pt x="700" y="1447" on="1"/>
        <pt x="284" y="1447" on="1"/>
      </contour>
    </TTGlyph>
    <TTGlyph name="numbersign" xMin="142" yMin="226" xMax="842" yMax="1588">
      <contour>
        <pt x="142" y="226" on="1"/>
        <pt x="142" y="1588" on="1"/>
        <pt x="842" y="1588" on="1"/>
        <pt x="842" y="226" on="1"/>
      </contour>
      <contour>
        <pt x="284" y="368" on="1"/>
        <pt x="700" y="368" on="1"/>
        <pt x="700" y="1447" on="1"/>
        <pt x="284" y="1447" on="1"/>
      </contour>
    </TTGlyph>
    <TTGlyph name="parenleft" xMin="142" yMin="226" xMax="842" yMax="1588">
      <contour>
        <pt x="142" y="226" on="1"/>
        <pt x="142" y="1588" on="1"/>
        <pt x="842" y="1588" on="1"/>
        <pt x="842" y="226" on="1"/>
      </contour>
      <contour>
        <pt x="284" y="368" on="1"/>
        <pt x="700" y="368" on="1"/>
        <pt x="700" y="1447" on="1"/>
        <pt x="284" y="1447" on="1"/>
      </contour>
    </TTGlyph>
    <TTGlyph name="parenright" xMin="142" yMin="226" xMax="842" yMax="1588">
      <contour>
        <pt x="142" y="226" on="1"/>
        <pt x="142" y="1588" on="1"/>
        <pt x="842" y="1588" on="1"/>
        <pt x="842" y="226" on="1"/>
      </contour>
      <contour>
        <pt x="284" y="368" on="1"/>
        <pt x="700" y="368" on="1"/>
        <pt x="700" y="1447" on="1"/>
        <pt x="284" y="1447" on="1"/>
      </contour>
    </TTGlyph>
    <TTGlyph name="pashtoefinal" xMin="142" yMin="226" xMax="842" yMax="1588">
      <contour>
        <pt x="142" y="226" on="1"/>
        <pt x="142" y="1588" on="1"/>
        <pt x="842" y="1588" on="1"/>
        <pt x="842" y="226" on="1"/>
      </contour>
      <contour>
        <pt x="284" y="368" on="1"/>
        <pt x="700" y="368" on="1"/>
        <pt x="700" y="1447" on="1"/>
        <pt x="284" y="1447" on="1"/>
      </contour>
    </TTGlyph>
    <TTGlyph name="pashtoeinitial" xMin="142" yMin="226" xMax="842" yMax="1588">
      <contour>
        <pt x="142" y="226" on="1"/>
        <pt x="142" y="1588" on="1"/>
        <pt x="842" y="1588" on="1"/>
        <pt x="842" y="226" on="1"/>
      </contour>
      <contour>
        <pt x="284" y="368" on="1"/>
        <pt x="700" y="368" on="1"/>
        <pt x="700" y="1447" on="1"/>
        <pt x="284" y="1447" on="1"/>
      </contour>
    </TTGlyph>
    <TTGlyph name="pashtoemedial" xMin="142" yMin="226" xMax="842" yMax="1588">
      <contour>
        <pt x="142" y="226" on="1"/>
        <pt x="142" y="1588" on="1"/>
        <pt x="842" y="1588" on="1"/>
        <pt x="842" y="226" on="1"/>
      </contour>
      <contour>
        <pt x="284" y="368" on="1"/>
        <pt x="700" y="368" on="1"/>
        <pt x="700" y="1447" on="1"/>
        <pt x="284" y="1447" on="1"/>
      </contour>
    </TTGlyph>
    <TTGlyph name="pehfinalarabic" xMin="142" yMin="226" xMax="842" yMax="1588">
      <contour>
        <pt x="142" y="226" on="1"/>
        <pt x="142" y="1588" on="1"/>
        <pt x="842" y="1588" on="1"/>
        <pt x="842" y="226" on="1"/>
      </contour>
      <contour>
        <pt x="284" y="368" on="1"/>
        <pt x="700" y="368" on="1"/>
        <pt x="700" y="1447" on="1"/>
        <pt x="284" y="1447" on="1"/>
      </contour>
    </TTGlyph>
    <TTGlyph name="pehinitialarabic" xMin="142" yMin="226" xMax="842" yMax="1588">
      <contour>
        <pt x="142" y="226" on="1"/>
        <pt x="142" y="1588" on="1"/>
        <pt x="842" y="1588" on="1"/>
        <pt x="842" y="226" on="1"/>
      </contour>
      <contour>
        <pt x="284" y="368" on="1"/>
        <pt x="700" y="368" on="1"/>
        <pt x="700" y="1447" on="1"/>
        <pt x="284" y="1447" on="1"/>
      </contour>
    </TTGlyph>
    <TTGlyph name="pehmedialarabic" xMin="142" yMin="226" xMax="842" yMax="1588">
      <contour>
        <pt x="142" y="226" on="1"/>
        <pt x="142" y="1588" on="1"/>
        <pt x="842" y="1588" on="1"/>
        <pt x="842" y="226" on="1"/>
      </contour>
      <contour>
        <pt x="284" y="368" on="1"/>
        <pt x="700" y="368" on="1"/>
        <pt x="700" y="1447" on="1"/>
        <pt x="284" y="1447" on="1"/>
      </contour>
    </TTGlyph>
    <TTGlyph name="percent" xMin="142" yMin="226" xMax="842" yMax="1588">
      <contour>
        <pt x="142" y="226" on="1"/>
        <pt x="142" y="1588" on="1"/>
        <pt x="842" y="1588" on="1"/>
        <pt x="842" y="226" on="1"/>
      </contour>
      <contour>
        <pt x="284" y="368" on="1"/>
        <pt x="700" y="368" on="1"/>
        <pt x="700" y="1447" on="1"/>
        <pt x="284" y="1447" on="1"/>
      </contour>
    </TTGlyph>
    <TTGlyph name="period" xMin="142" yMin="226" xMax="842" yMax="1588">
      <contour>
        <pt x="142" y="226" on="1"/>
        <pt x="142" y="1588" on="1"/>
        <pt x="842" y="1588" on="1"/>
        <pt x="842" y="226" on="1"/>
      </contour>
      <contour>
        <pt x="284" y="368" on="1"/>
        <pt x="700" y="368" on="1"/>
        <pt x="700" y="1447" on="1"/>
        <pt x="284" y="1447" on="1"/>
      </contour>
    </TTGlyph>
    <TTGlyph name="plus" xMin="142" yMin="226" xMax="842" yMax="1588">
      <contour>
        <pt x="142" y="226" on="1"/>
        <pt x="142" y="1588" on="1"/>
        <pt x="842" y="1588" on="1"/>
        <pt x="842" y="226" on="1"/>
      </contour>
      <contour>
        <pt x="284" y="368" on="1"/>
        <pt x="700" y="368" on="1"/>
        <pt x="700" y="1447" on="1"/>
        <pt x="284" y="1447" on="1"/>
      </contour>
    </TTGlyph>
    <TTGlyph name="quotedbl" xMin="142" yMin="226" xMax="842" yMax="1588">
      <contour>
        <pt x="142" y="226" on="1"/>
        <pt x="142" y="1588" on="1"/>
        <pt x="842" y="1588" on="1"/>
        <pt x="842" y="226" on="1"/>
      </contour>
      <contour>
        <pt x="284" y="368" on="1"/>
        <pt x="700" y="368" on="1"/>
        <pt x="700" y="1447" on="1"/>
        <pt x="284" y="1447" on="1"/>
      </contour>
    </TTGlyph>
    <TTGlyph name="quotesingle" xMin="142" yMin="226" xMax="842" yMax="1588">
      <contour>
        <pt x="142" y="226" on="1"/>
        <pt x="142" y="1588" on="1"/>
        <pt x="842" y="1588" on="1"/>
        <pt x="842" y="226" on="1"/>
      </contour>
      <contour>
        <pt x="284" y="368" on="1"/>
        <pt x="700" y="368" on="1"/>
        <pt x="700" y="1447" on="1"/>
        <pt x="284" y="1447" on="1"/>
      </contour>
    </TTGlyph>
    <TTGlyph name="rehdotbelowdotabovefinal" xMin="142" yMin="226" xMax="842" yMax="1588">
      <contour>
        <pt x="142" y="226" on="1"/>
        <pt x="142" y="1588" on="1"/>
        <pt x="842" y="1588" on="1"/>
        <pt x="842" y="226" on="1"/>
      </contour>
      <contour>
        <pt x="284" y="368" on="1"/>
        <pt x="700" y="368" on="1"/>
        <pt x="700" y="1447" on="1"/>
        <pt x="284" y="1447" on="1"/>
      </contour>
    </TTGlyph>
    <TTGlyph name="rehringfinal" xMin="142" yMin="226" xMax="842" yMax="1588">
      <contour>
        <pt x="142" y="226" on="1"/>
        <pt x="142" y="1588" on="1"/>
        <pt x="842" y="1588" on="1"/>
        <pt x="842" y="226" on="1"/>
      </contour>
      <contour>
        <pt x="284" y="368" on="1"/>
        <pt x="700" y="368" on="1"/>
        <pt x="700" y="1447" on="1"/>
        <pt x="284" y="1447" on="1"/>
      </contour>
    </TTGlyph>
    <TTGlyph name="rrehfinalarabic" xMin="142" yMin="226" xMax="842" yMax="1588">
      <contour>
        <pt x="142" y="226" on="1"/>
        <pt x="142" y="1588" on="1"/>
        <pt x="842" y="1588" on="1"/>
        <pt x="842" y="226" on="1"/>
      </contour>
      <contour>
        <pt x="284" y="368" on="1"/>
        <pt x="700" y="368" on="1"/>
        <pt x="700" y="1447" on="1"/>
        <pt x="284" y="1447" on="1"/>
      </contour>
    </TTGlyph>
    <TTGlyph name="seendotbelowdotabovefinal" xMin="142" yMin="226" xMax="842" yMax="1588">
      <contour>
        <pt x="142" y="226" on="1"/>
        <pt x="142" y="1588" on="1"/>
        <pt x="842" y="1588" on="1"/>
        <pt x="842" y="226" on="1"/>
      </contour>
      <contour>
        <pt x="284" y="368" on="1"/>
        <pt x="700" y="368" on="1"/>
        <pt x="700" y="1447" on="1"/>
        <pt x="284" y="1447" on="1"/>
      </contour>
    </TTGlyph>
    <TTGlyph name="seendotbelowdotaboveinitial" xMin="142" yMin="226" xMax="842" yMax="1588">
      <contour>
        <pt x="142" y="226" on="1"/>
        <pt x="142" y="1588" on="1"/>
        <pt x="842" y="1588" on="1"/>
        <pt x="842" y="226" on="1"/>
      </contour>
      <contour>
        <pt x="284" y="368" on="1"/>
        <pt x="700" y="368" on="1"/>
        <pt x="700" y="1447" on="1"/>
        <pt x="284" y="1447" on="1"/>
      </contour>
    </TTGlyph>
    <TTGlyph name="seendotbelowdotabovemedial" xMin="142" yMin="226" xMax="842" yMax="1588">
      <contour>
        <pt x="142" y="226" on="1"/>
        <pt x="142" y="1588" on="1"/>
        <pt x="842" y="1588" on="1"/>
        <pt x="842" y="226" on="1"/>
      </contour>
      <contour>
        <pt x="284" y="368" on="1"/>
        <pt x="700" y="368" on="1"/>
        <pt x="700" y="1447" on="1"/>
        <pt x="284" y="1447" on="1"/>
      </contour>
    </TTGlyph>
    <TTGlyph name="shaddadammaarabic" xMin="142" yMin="226" xMax="842" yMax="1588">
      <contour>
        <pt x="142" y="226" on="1"/>
        <pt x="142" y="1588" on="1"/>
        <pt x="842" y="1588" on="1"/>
        <pt x="842" y="226" on="1"/>
      </contour>
      <contour>
        <pt x="284" y="368" on="1"/>
        <pt x="700" y="368" on="1"/>
        <pt x="700" y="1447" on="1"/>
        <pt x="284" y="1447" on="1"/>
      </contour>
    </TTGlyph>
    <TTGlyph name="shaddadammatanarabic" xMin="142" yMin="226" xMax="842" yMax="1588">
      <contour>
        <pt x="142" y="226" on="1"/>
        <pt x="142" y="1588" on="1"/>
        <pt x="842" y="1588" on="1"/>
        <pt x="842" y="226" on="1"/>
      </contour>
      <contour>
        <pt x="284" y="368" on="1"/>
        <pt x="700" y="368" on="1"/>
        <pt x="700" y="1447" on="1"/>
        <pt x="284" y="1447" on="1"/>
      </contour>
    </TTGlyph>
    <TTGlyph name="shaddafathaarabic" xMin="142" yMin="226" xMax="842" yMax="1588">
      <contour>
        <pt x="142" y="226" on="1"/>
        <pt x="142" y="1588" on="1"/>
        <pt x="842" y="1588" on="1"/>
        <pt x="842" y="226" on="1"/>
      </contour>
      <contour>
        <pt x="284" y="368" on="1"/>
        <pt x="700" y="368" on="1"/>
        <pt x="700" y="1447" on="1"/>
        <pt x="284" y="1447" on="1"/>
      </contour>
    </TTGlyph>
    <TTGlyph name="shaddakasraarabic" xMin="142" yMin="226" xMax="842" yMax="1588">
      <contour>
        <pt x="142" y="226" on="1"/>
        <pt x="142" y="1588" on="1"/>
        <pt x="842" y="1588" on="1"/>
        <pt x="842" y="226" on="1"/>
      </contour>
      <contour>
        <pt x="284" y="368" on="1"/>
        <pt x="700" y="368" on="1"/>
        <pt x="700" y="1447" on="1"/>
        <pt x="284" y="1447" on="1"/>
      </contour>
    </TTGlyph>
    <TTGlyph name="shaddakasratanarabic" xMin="142" yMin="226" xMax="842" yMax="1588">
      <contour>
        <pt x="142" y="226" on="1"/>
        <pt x="142" y="1588" on="1"/>
        <pt x="842" y="1588" on="1"/>
        <pt x="842" y="226" on="1"/>
      </contour>
      <contour>
        <pt x="284" y="368" on="1"/>
        <pt x="700" y="368" on="1"/>
        <pt x="700" y="1447" on="1"/>
        <pt x="284" y="1447" on="1"/>
      </contour>
    </TTGlyph>
    <TTGlyph name="slash" xMin="142" yMin="226" xMax="842" yMax="1588">
      <contour>
        <pt x="142" y="226" on="1"/>
        <pt x="142" y="1588" on="1"/>
        <pt x="842" y="1588" on="1"/>
        <pt x="842" y="226" on="1"/>
      </contour>
      <contour>
        <pt x="284" y="368" on="1"/>
        <pt x="700" y="368" on="1"/>
        <pt x="700" y="1447" on="1"/>
        <pt x="284" y="1447" on="1"/>
      </contour>
    </TTGlyph>
    <TTGlyph name="space" xMin="142" yMin="226" xMax="842" yMax="1588">
      <contour>
        <pt x="142" y="226" on="1"/>
        <pt x="142" y="1588" on="1"/>
        <pt x="842" y="1588" on="1"/>
        <pt x="842" y="226" on="1"/>
      </contour>
      <contour>
        <pt x="284" y="368" on="1"/>
        <pt x="700" y="368" on="1"/>
        <pt x="700" y="1447" on="1"/>
        <pt x="284" y="1447" on="1"/>
      </contour>
    </TTGlyph>
    <TTGlyph name="tchehfinalarabic" xMin="142" yMin="226" xMax="842" yMax="1588">
      <contour>
        <pt x="142" y="226" on="1"/>
        <pt x="142" y="1588" on="1"/>
        <pt x="842" y="1588" on="1"/>
        <pt x="842" y="226" on="1"/>
      </contour>
      <contour>
        <pt x="284" y="368" on="1"/>
        <pt x="700" y="368" on="1"/>
        <pt x="700" y="1447" on="1"/>
        <pt x="284" y="1447" on="1"/>
      </contour>
    </TTGlyph>
    <TTGlyph name="tchehinitialarabic" xMin="142" yMin="226" xMax="842" yMax="1588">
      <contour>
        <pt x="142" y="226" on="1"/>
        <pt x="142" y="1588" on="1"/>
        <pt x="842" y="1588" on="1"/>
        <pt x="842" y="226" on="1"/>
      </contour>
      <contour>
        <pt x="284" y="368" on="1"/>
        <pt x="700" y="368" on="1"/>
        <pt x="700" y="1447" on="1"/>
        <pt x="284" y="1447" on="1"/>
      </contour>
    </TTGlyph>
    <TTGlyph name="tchehmedialarabic" xMin="142" yMin="226" xMax="842" yMax="1588">
      <contour>
        <pt x="142" y="226" on="1"/>
        <pt x="142" y="1588" on="1"/>
        <pt x="842" y="1588" on="1"/>
        <pt x="842" y="226" on="1"/>
      </contour>
      <contour>
        <pt x="284" y="368" on="1"/>
        <pt x="700" y="368" on="1"/>
        <pt x="700" y="1447" on="1"/>
        <pt x="284" y="1447" on="1"/>
      </contour>
    </TTGlyph>
    <TTGlyph name="tehhahisolatedarabic" xMin="142" yMin="226" xMax="842" yMax="1588">
      <contour>
        <pt x="142" y="226" on="1"/>
        <pt x="142" y="1588" on="1"/>
        <pt x="842" y="1588" on="1"/>
        <pt x="842" y="226" on="1"/>
      </contour>
      <contour>
        <pt x="284" y="368" on="1"/>
        <pt x="700" y="368" on="1"/>
        <pt x="700" y="1447" on="1"/>
        <pt x="284" y="1447" on="1"/>
      </contour>
    </TTGlyph>
    <TTGlyph name="tehjeemisolatedarabic" xMin="142" yMin="226" xMax="842" yMax="1588">
      <contour>
        <pt x="142" y="226" on="1"/>
        <pt x="142" y="1588" on="1"/>
        <pt x="842" y="1588" on="1"/>
        <pt x="842" y="226" on="1"/>
      </contour>
      <contour>
        <pt x="284" y="368" on="1"/>
        <pt x="700" y="368" on="1"/>
        <pt x="700" y="1447" on="1"/>
        <pt x="284" y="1447" on="1"/>
      </contour>
    </TTGlyph>
    <TTGlyph name="tehmeemisolatedarabic" xMin="142" yMin="226" xMax="842" yMax="1588">
      <contour>
        <pt x="142" y="226" on="1"/>
        <pt x="142" y="1588" on="1"/>
        <pt x="842" y="1588" on="1"/>
        <pt x="842" y="226" on="1"/>
      </contour>
      <contour>
        <pt x="284" y="368" on="1"/>
        <pt x="700" y="368" on="1"/>
        <pt x="700" y="1447" on="1"/>
        <pt x="284" y="1447" on="1"/>
      </contour>
    </TTGlyph>
    <TTGlyph name="tehnoonfinalarabic" xMin="142" yMin="226" xMax="842" yMax="1588">
      <contour>
        <pt x="142" y="226" on="1"/>
        <pt x="142" y="1588" on="1"/>
        <pt x="842" y="1588" on="1"/>
        <pt x="842" y="226" on="1"/>
      </contour>
      <contour>
        <pt x="284" y="368" on="1"/>
        <pt x="700" y="368" on="1"/>
        <pt x="700" y="1447" on="1"/>
        <pt x="284" y="1447" on="1"/>
      </contour>
    </TTGlyph>
    <TTGlyph name="tehringfinal" xMin="142" yMin="226" xMax="842" yMax="1588">
      <contour>
        <pt x="142" y="226" on="1"/>
        <pt x="142" y="1588" on="1"/>
        <pt x="842" y="1588" on="1"/>
        <pt x="842" y="226" on="1"/>
      </contour>
      <contour>
        <pt x="284" y="368" on="1"/>
        <pt x="700" y="368" on="1"/>
        <pt x="700" y="1447" on="1"/>
        <pt x="284" y="1447" on="1"/>
      </contour>
    </TTGlyph>
    <TTGlyph name="tehringinitial" xMin="142" yMin="226" xMax="842" yMax="1588">
      <contour>
        <pt x="142" y="226" on="1"/>
        <pt x="142" y="1588" on="1"/>
        <pt x="842" y="1588" on="1"/>
        <pt x="842" y="226" on="1"/>
      </contour>
      <contour>
        <pt x="284" y="368" on="1"/>
        <pt x="700" y="368" on="1"/>
        <pt x="700" y="1447" on="1"/>
        <pt x="284" y="1447" on="1"/>
      </contour>
    </TTGlyph>
    <TTGlyph name="tehringmedial" xMin="142" yMin="226" xMax="842" yMax="1588">
      <contour>
        <pt x="142" y="226" on="1"/>
        <pt x="142" y="1588" on="1"/>
        <pt x="842" y="1588" on="1"/>
        <pt x="842" y="226" on="1"/>
      </contour>
      <contour>
        <pt x="284" y="368" on="1"/>
        <pt x="700" y="368" on="1"/>
        <pt x="700" y="1447" on="1"/>
        <pt x="284" y="1447" on="1"/>
      </contour>
    </TTGlyph>
    <TTGlyph name="ttehfinalarabic" xMin="142" yMin="226" xMax="842" yMax="1588">
      <contour>
        <pt x="142" y="226" on="1"/>
        <pt x="142" y="1588" on="1"/>
        <pt x="842" y="1588" on="1"/>
        <pt x="842" y="226" on="1"/>
      </contour>
      <contour>
        <pt x="284" y="368" on="1"/>
        <pt x="700" y="368" on="1"/>
        <pt x="700" y="1447" on="1"/>
        <pt x="284" y="1447" on="1"/>
      </contour>
    </TTGlyph>
    <TTGlyph name="ttehinitialarabic" xMin="142" yMin="226" xMax="842" yMax="1588">
      <contour>
        <pt x="142" y="226" on="1"/>
        <pt x="142" y="1588" on="1"/>
        <pt x="842" y="1588" on="1"/>
        <pt x="842" y="226" on="1"/>
      </contour>
      <contour>
        <pt x="284" y="368" on="1"/>
        <pt x="700" y="368" on="1"/>
        <pt x="700" y="1447" on="1"/>
        <pt x="284" y="1447" on="1"/>
      </contour>
    </TTGlyph>
    <TTGlyph name="ttehmedialarabic" xMin="142" yMin="226" xMax="842" yMax="1588">
      <contour>
        <pt x="142" y="226" on="1"/>
        <pt x="142" y="1588" on="1"/>
        <pt x="842" y="1588" on="1"/>
        <pt x="842" y="226" on="1"/>
      </contour>
      <contour>
        <pt x="284" y="368" on="1"/>
        <pt x="700" y="368" on="1"/>
        <pt x="700" y="1447" on="1"/>
        <pt x="284" y="1447" on="1"/>
      </contour>
    </TTGlyph>
    <TTGlyph name="uni000D" xMin="142" yMin="226" xMax="842" yMax="1588">
      <contour>
        <pt x="142" y="226" on="1"/>
        <pt x="142" y="1588" on="1"/>
        <pt x="842" y="1588" on="1"/>
        <pt x="842" y="226" on="1"/>
      </contour>
      <contour>
        <pt x="284" y="368" on="1"/>
        <pt x="700" y="368" on="1"/>
        <pt x="700" y="1447" on="1"/>
        <pt x="284" y="1447" on="1"/>
      </contour>
    </TTGlyph>
    <TTGlyph name="uni00A0" xMin="142" yMin="226" xMax="842" yMax="1588">
      <contour>
        <pt x="142" y="226" on="1"/>
        <pt x="142" y="1588" on="1"/>
        <pt x="842" y="1588" on="1"/>
        <pt x="842" y="226" on="1"/>
      </contour>
      <contour>
        <pt x="284" y="368" on="1"/>
        <pt x="700" y="368" on="1"/>
        <pt x="700" y="1447" on="1"/>
        <pt x="284" y="1447" on="1"/>
      </contour>
    </TTGlyph>
    <TTGlyph name="uni00AD" xMin="142" yMin="226" xMax="842" yMax="1588">
      <contour>
        <pt x="142" y="226" on="1"/>
        <pt x="142" y="1588" on="1"/>
        <pt x="842" y="1588" on="1"/>
        <pt x="842" y="226" on="1"/>
      </contour>
      <contour>
        <pt x="284" y="368" on="1"/>
        <pt x="700" y="368" on="1"/>
        <pt x="700" y="1447" on="1"/>
        <pt x="284" y="1447" on="1"/>
      </contour>
    </TTGlyph>
    <TTGlyph name="uni0653" xMin="142" yMin="226" xMax="842" yMax="1588">
      <contour>
        <pt x="142" y="226" on="1"/>
        <pt x="142" y="1588" on="1"/>
        <pt x="842" y="1588" on="1"/>
        <pt x="842" y="226" on="1"/>
      </contour>
      <contour>
        <pt x="284" y="368" on="1"/>
        <pt x="700" y="368" on="1"/>
        <pt x="700" y="1447" on="1"/>
        <pt x="284" y="1447" on="1"/>
      </contour>
    </TTGlyph>
    <TTGlyph name="uni0654" xMin="142" yMin="226" xMax="842" yMax="1588">
      <contour>
        <pt x="142" y="226" on="1"/>
        <pt x="142" y="1588" on="1"/>
        <pt x="842" y="1588" on="1"/>
        <pt x="842" y="226" on="1"/>
      </contour>
      <contour>
        <pt x="284" y="368" on="1"/>
        <pt x="700" y="368" on="1"/>
        <pt x="700" y="1447" on="1"/>
        <pt x="284" y="1447" on="1"/>
      </contour>
    </TTGlyph>
    <TTGlyph name="uni0655" xMin="142" yMin="226" xMax="842" yMax="1588">
      <contour>
        <pt x="142" y="226" on="1"/>
        <pt x="142" y="1588" on="1"/>
        <pt x="842" y="1588" on="1"/>
        <pt x="842" y="226" on="1"/>
      </contour>
      <contour>
        <pt x="284" y="368" on="1"/>
        <pt x="700" y="368" on="1"/>
        <pt x="700" y="1447" on="1"/>
        <pt x="284" y="1447" on="1"/>
      </contour>
    </TTGlyph>
    <TTGlyph name="uni066B" xMin="142" yMin="226" xMax="842" yMax="1588">
      <contour>
        <pt x="142" y="226" on="1"/>
        <pt x="142" y="1588" on="1"/>
        <pt x="842" y="1588" on="1"/>
        <pt x="842" y="226" on="1"/>
      </contour>
      <contour>
        <pt x="284" y="368" on="1"/>
        <pt x="700" y="368" on="1"/>
        <pt x="700" y="1447" on="1"/>
        <pt x="284" y="1447" on="1"/>
      </contour>
    </TTGlyph>
    <TTGlyph name="uni066C" xMin="142" yMin="226" xMax="842" yMax="1588">
      <contour>
        <pt x="142" y="226" on="1"/>
        <pt x="142" y="1588" on="1"/>
        <pt x="842" y="1588" on="1"/>
        <pt x="842" y="226" on="1"/>
      </contour>
      <contour>
        <pt x="284" y="368" on="1"/>
        <pt x="700" y="368" on="1"/>
        <pt x="700" y="1447" on="1"/>
        <pt x="284" y="1447" on="1"/>
      </contour>
    </TTGlyph>
    <TTGlyph name="uni0671" xMin="142" yMin="226" xMax="842" yMax="1588">
      <contour>
        <pt x="142" y="226" on="1"/>
        <pt x="142" y="1588" on="1"/>
        <pt x="842" y="1588" on="1"/>
        <pt x="842" y="226" on="1"/>
      </contour>
      <contour>
        <pt x="284" y="368" on="1"/>
        <pt x="700" y="368" on="1"/>
        <pt x="700" y="1447" on="1"/>
        <pt x="284" y="1447" on="1"/>
      </contour>
    </TTGlyph>
    <TTGlyph name="uni067C" xMin="142" yMin="226" xMax="842" yMax="1588">
      <contour>
        <pt x="142" y="226" on="1"/>
        <pt x="142" y="1588" on="1"/>
        <pt x="842" y="1588" on="1"/>
        <pt x="842" y="226" on="1"/>
      </contour>
      <contour>
        <pt x="284" y="368" on="1"/>
        <pt x="700" y="368" on="1"/>
        <pt x="700" y="1447" on="1"/>
        <pt x="284" y="1447" on="1"/>
      </contour>
    </TTGlyph>
    <TTGlyph name="uni0681" xMin="142" yMin="226" xMax="842" yMax="1588">
      <contour>
        <pt x="142" y="226" on="1"/>
        <pt x="142" y="1588" on="1"/>
        <pt x="842" y="1588" on="1"/>
        <pt x="842" y="226" on="1"/>
      </contour>
      <contour>
        <pt x="284" y="368" on="1"/>
        <pt x="700" y="368" on="1"/>
        <pt x="700" y="1447" on="1"/>
        <pt x="284" y="1447" on="1"/>
      </contour>
    </TTGlyph>
    <TTGlyph name="uni0685" xMin="142" yMin="226" xMax="842" yMax="1588">
      <contour>
        <pt x="142" y="226" on="1"/>
        <pt x="142" y="1588" on="1"/>
        <pt x="842" y="1588" on="1"/>
        <pt x="842" y="226" on="1"/>
      </contour>
      <contour>
        <pt x="284" y="368" on="1"/>
        <pt x="700" y="368" on="1"/>
        <pt x="700" y="1447" on="1"/>
        <pt x="284" y="1447" on="1"/>
      </contour>
    </TTGlyph>
    <TTGlyph name="uni0689" xMin="142" yMin="226" xMax="842" yMax="1588">
      <contour>
        <pt x="142" y="226" on="1"/>
        <pt x="142" y="1588" on="1"/>
        <pt x="842" y="1588" on="1"/>
        <pt x="842" y="226" on="1"/>
      </contour>
      <contour>
        <pt x="284" y="368" on="1"/>
        <pt x="700" y="368" on="1"/>
        <pt x="700" y="1447" on="1"/>
        <pt x="284" y="1447" on="1"/>
      </contour>
    </TTGlyph>
    <TTGlyph name="uni0693" xMin="142" yMin="226" xMax="842" yMax="1588">
      <contour>
        <pt x="142" y="226" on="1"/>
        <pt x="142" y="1588" on="1"/>
        <pt x="842" y="1588" on="1"/>
        <pt x="842" y="226" on="1"/>
      </contour>
      <contour>
        <pt x="284" y="368" on="1"/>
        <pt x="700" y="368" on="1"/>
        <pt x="700" y="1447" on="1"/>
        <pt x="284" y="1447" on="1"/>
      </contour>
    </TTGlyph>
    <TTGlyph name="uni0696" xMin="142" yMin="226" xMax="842" yMax="1588">
      <contour>
        <pt x="142" y="226" on="1"/>
        <pt x="142" y="1588" on="1"/>
        <pt x="842" y="1588" on="1"/>
        <pt x="842" y="226" on="1"/>
      </contour>
      <contour>
        <pt x="284" y="368" on="1"/>
        <pt x="700" y="368" on="1"/>
        <pt x="700" y="1447" on="1"/>
        <pt x="284" y="1447" on="1"/>
      </contour>
    </TTGlyph>
    <TTGlyph name="uni069A" xMin="142" yMin="226" xMax="842" yMax="1588">
      <contour>
        <pt x="142" y="226" on="1"/>
        <pt x="142" y="1588" on="1"/>
        <pt x="842" y="1588" on="1"/>
        <pt x="842" y="226" on="1"/>
      </contour>
      <contour>
        <pt x="284" y="368" on="1"/>
        <pt x="700" y="368" on="1"/>
        <pt x="700" y="1447" on="1"/>
        <pt x="284" y="1447" on="1"/>
      </contour>
    </TTGlyph>
    <TTGlyph name="uni06A9" xMin="142" yMin="226" xMax="842" yMax="1588">
      <contour>
        <pt x="142" y="226" on="1"/>
        <pt x="142" y="1588" on="1"/>
        <pt x="842" y="1588" on="1"/>
        <pt x="842" y="226" on="1"/>
      </contour>
      <contour>
        <pt x="284" y="368" on="1"/>
        <pt x="700" y="368" on="1"/>
        <pt x="700" y="1447" on="1"/>
        <pt x="284" y="1447" on="1"/>
      </contour>
    </TTGlyph>
    <TTGlyph name="uni06AB" xMin="142" yMin="226" xMax="842" yMax="1588">
      <contour>
        <pt x="142" y="226" on="1"/>
        <pt x="142" y="1588" on="1"/>
        <pt x="842" y="1588" on="1"/>
        <pt x="842" y="226" on="1"/>
      </contour>
      <contour>
        <pt x="284" y="368" on="1"/>
        <pt x="700" y="368" on="1"/>
        <pt x="700" y="1447" on="1"/>
        <pt x="284" y="1447" on="1"/>
      </contour>
    </TTGlyph>
    <TTGlyph name="uni06B7" xMin="142" yMin="226" xMax="842" yMax="1588">
      <contour>
        <pt x="142" y="226" on="1"/>
        <pt x="142" y="1588" on="1"/>
        <pt x="842" y="1588" on="1"/>
        <pt x="842" y="226" on="1"/>
      </contour>
      <contour>
        <pt x="284" y="368" on="1"/>
        <pt x="700" y="368" on="1"/>
        <pt x="700" y="1447" on="1"/>
        <pt x="284" y="1447" on="1"/>
      </contour>
    </TTGlyph>
    <TTGlyph name="uni06BC" xMin="142" yMin="226" xMax="842" yMax="1588">
      <contour>
        <pt x="142" y="226" on="1"/>
        <pt x="142" y="1588" on="1"/>
        <pt x="842" y="1588" on="1"/>
        <pt x="842" y="226" on="1"/>
      </contour>
      <contour>
        <pt x="284" y="368" on="1"/>
        <pt x="700" y="368" on="1"/>
        <pt x="700" y="1447" on="1"/>
        <pt x="284" y="1447" on="1"/>
      </contour>
    </TTGlyph>
    <TTGlyph name="uni06BE" xMin="142" yMin="226" xMax="842" yMax="1588">
      <contour>
        <pt x="142" y="226" on="1"/>
        <pt x="142" y="1588" on="1"/>
        <pt x="842" y="1588" on="1"/>
        <pt x="842" y="226" on="1"/>
      </contour>
      <contour>
        <pt x="284" y="368" on="1"/>
        <pt x="700" y="368" on="1"/>
        <pt x="700" y="1447" on="1"/>
        <pt x="284" y="1447" on="1"/>
      </contour>
    </TTGlyph>
    <TTGlyph name="uni06C2" xMin="142" yMin="226" xMax="842" yMax="1588">
      <contour>
        <pt x="142" y="226" on="1"/>
        <pt x="142" y="1588" on="1"/>
        <pt x="842" y="1588" on="1"/>
        <pt x="842" y="226" on="1"/>
      </contour>
      <contour>
        <pt x="284" y="368" on="1"/>
        <pt x="700" y="368" on="1"/>
        <pt x="700" y="1447" on="1"/>
        <pt x="284" y="1447" on="1"/>
      </contour>
    </TTGlyph>
    <TTGlyph name="uni06C7" xMin="142" yMin="226" xMax="842" yMax="1588">
      <contour>
        <pt x="142" y="226" on="1"/>
        <pt x="142" y="1588" on="1"/>
        <pt x="842" y="1588" on="1"/>
        <pt x="842" y="226" on="1"/>
      </contour>
      <contour>
        <pt x="284" y="368" on="1"/>
        <pt x="700" y="368" on="1"/>
        <pt x="700" y="1447" on="1"/>
        <pt x="284" y="1447" on="1"/>
      </contour>
    </TTGlyph>
    <TTGlyph name="uni06C9" xMin="142" yMin="226" xMax="842" yMax="1588">
      <contour>
        <pt x="142" y="226" on="1"/>
        <pt x="142" y="1588" on="1"/>
        <pt x="842" y="1588" on="1"/>
        <pt x="842" y="226" on="1"/>
      </contour>
      <contour>
        <pt x="284" y="368" on="1"/>
        <pt x="700" y="368" on="1"/>
        <pt x="700" y="1447" on="1"/>
        <pt x="284" y="1447" on="1"/>
      </contour>
    </TTGlyph>
    <TTGlyph name="uni06CC" xMin="142" yMin="226" xMax="842" yMax="1588">
      <contour>
        <pt x="142" y="226" on="1"/>
        <pt x="142" y="1588" on="1"/>
        <pt x="842" y="1588" on="1"/>
        <pt x="842" y="226" on="1"/>
      </contour>
      <contour>
        <pt x="284" y="368" on="1"/>
        <pt x="700" y="368" on="1"/>
        <pt x="700" y="1447" on="1"/>
        <pt x="284" y="1447" on="1"/>
      </contour>
    </TTGlyph>
    <TTGlyph name="uni06CD" xMin="142" yMin="226" xMax="842" yMax="1588">
      <contour>
        <pt x="142" y="226" on="1"/>
        <pt x="142" y="1588" on="1"/>
        <pt x="842" y="1588" on="1"/>
        <pt x="842" y="226" on="1"/>
      </contour>
      <contour>
        <pt x="284" y="368" on="1"/>
        <pt x="700" y="368" on="1"/>
        <pt x="700" y="1447" on="1"/>
        <pt x="284" y="1447" on="1"/>
      </contour>
    </TTGlyph>
    <TTGlyph name="uni06D0" xMin="142" yMin="226" xMax="842" yMax="1588">
      <contour>
        <pt x="142" y="226" on="1"/>
        <pt x="142" y="1588" on="1"/>
        <pt x="842" y="1588" on="1"/>
        <pt x="842" y="226" on="1"/>
      </contour>
      <contour>
        <pt x="284" y="368" on="1"/>
        <pt x="700" y="368" on="1"/>
        <pt x="700" y="1447" on="1"/>
        <pt x="284" y="1447" on="1"/>
      </contour>
    </TTGlyph>
    <TTGlyph name="uni06D1" xMin="142" yMin="226" xMax="842" yMax="1588">
      <contour>
        <pt x="142" y="226" on="1"/>
        <pt x="142" y="1588" on="1"/>
        <pt x="842" y="1588" on="1"/>
        <pt x="842" y="226" on="1"/>
      </contour>
      <contour>
        <pt x="284" y="368" on="1"/>
        <pt x="700" y="368" on="1"/>
        <pt x="700" y="1447" on="1"/>
        <pt x="284" y="1447" on="1"/>
      </contour>
    </TTGlyph>
    <TTGlyph name="uni06D3" xMin="142" yMin="226" xMax="842" yMax="1588">
      <contour>
        <pt x="142" y="226" on="1"/>
        <pt x="142" y="1588" on="1"/>
        <pt x="842" y="1588" on="1"/>
        <pt x="842" y="226" on="1"/>
      </contour>
      <contour>
        <pt x="284" y="368" on="1"/>
        <pt x="700" y="368" on="1"/>
        <pt x="700" y="1447" on="1"/>
        <pt x="284" y="1447" on="1"/>
      </contour>
    </TTGlyph>
    <TTGlyph name="uni06D4" xMin="142" yMin="226" xMax="842" yMax="1588">
      <contour>
        <pt x="142" y="226" on="1"/>
        <pt x="142" y="1588" on="1"/>
        <pt x="842" y="1588" on="1"/>
        <pt x="842" y="226" on="1"/>
      </contour>
      <contour>
        <pt x="284" y="368" on="1"/>
        <pt x="700" y="368" on="1"/>
        <pt x="700" y="1447" on="1"/>
        <pt x="284" y="1447" on="1"/>
      </contour>
    </TTGlyph>
    <TTGlyph name="uni06F0" xMin="142" yMin="226" xMax="842" yMax="1588">
      <contour>
        <pt x="142" y="226" on="1"/>
        <pt x="142" y="1588" on="1"/>
        <pt x="842" y="1588" on="1"/>
        <pt x="842" y="226" on="1"/>
      </contour>
      <contour>
        <pt x="284" y="368" on="1"/>
        <pt x="700" y="368" on="1"/>
        <pt x="700" y="1447" on="1"/>
        <pt x="284" y="1447" on="1"/>
      </contour>
    </TTGlyph>
    <TTGlyph name="uni06F1" xMin="142" yMin="226" xMax="842" yMax="1588">
      <contour>
        <pt x="142" y="226" on="1"/>
        <pt x="142" y="1588" on="1"/>
        <pt x="842" y="1588" on="1"/>
        <pt x="842" y="226" on="1"/>
      </contour>
      <contour>
        <pt x="284" y="368" on="1"/>
        <pt x="700" y="368" on="1"/>
        <pt x="700" y="1447" on="1"/>
        <pt x="284" y="1447" on="1"/>
      </contour>
    </TTGlyph>
    <TTGlyph name="uni06F2" xMin="142" yMin="226" xMax="842" yMax="1588">
      <contour>
        <pt x="142" y="226" on="1"/>
        <pt x="142" y="1588" on="1"/>
        <pt x="842" y="1588" on="1"/>
        <pt x="842" y="226" on="1"/>
      </contour>
      <contour>
        <pt x="284" y="368" on="1"/>
        <pt x="700" y="368" on="1"/>
        <pt x="700" y="1447" on="1"/>
        <pt x="284" y="1447" on="1"/>
      </contour>
    </TTGlyph>
    <TTGlyph name="uni06F3" xMin="142" yMin="226" xMax="842" yMax="1588">
      <contour>
        <pt x="142" y="226" on="1"/>
        <pt x="142" y="1588" on="1"/>
        <pt x="842" y="1588" on="1"/>
        <pt x="842" y="226" on="1"/>
      </contour>
      <contour>
        <pt x="284" y="368" on="1"/>
        <pt x="700" y="368" on="1"/>
        <pt x="700" y="1447" on="1"/>
        <pt x="284" y="1447" on="1"/>
      </contour>
    </TTGlyph>
    <TTGlyph name="uni06F4" xMin="142" yMin="226" xMax="842" yMax="1588">
      <contour>
        <pt x="142" y="226" on="1"/>
        <pt x="142" y="1588" on="1"/>
        <pt x="842" y="1588" on="1"/>
        <pt x="842" y="226" on="1"/>
      </contour>
      <contour>
        <pt x="284" y="368" on="1"/>
        <pt x="700" y="368" on="1"/>
        <pt x="700" y="1447" on="1"/>
        <pt x="284" y="1447" on="1"/>
      </contour>
    </TTGlyph>
    <TTGlyph name="uni06F5" xMin="142" yMin="226" xMax="842" yMax="1588">
      <contour>
        <pt x="142" y="226" on="1"/>
        <pt x="142" y="1588" on="1"/>
        <pt x="842" y="1588" on="1"/>
        <pt x="842" y="226" on="1"/>
      </contour>
      <contour>
        <pt x="284" y="368" on="1"/>
        <pt x="700" y="368" on="1"/>
        <pt x="700" y="1447" on="1"/>
        <pt x="284" y="1447" on="1"/>
      </contour>
    </TTGlyph>
    <TTGlyph name="uni06F6" xMin="142" yMin="226" xMax="842" yMax="1588">
      <contour>
        <pt x="142" y="226" on="1"/>
        <pt x="142" y="1588" on="1"/>
        <pt x="842" y="1588" on="1"/>
        <pt x="842" y="226" on="1"/>
      </contour>
      <contour>
        <pt x="284" y="368" on="1"/>
        <pt x="700" y="368" on="1"/>
        <pt x="700" y="1447" on="1"/>
        <pt x="284" y="1447" on="1"/>
      </contour>
    </TTGlyph>
    <TTGlyph name="uni06F7" xMin="142" yMin="226" xMax="842" yMax="1588">
      <contour>
        <pt x="142" y="226" on="1"/>
        <pt x="142" y="1588" on="1"/>
        <pt x="842" y="1588" on="1"/>
        <pt x="842" y="226" on="1"/>
      </contour>
      <contour>
        <pt x="284" y="368" on="1"/>
        <pt x="700" y="368" on="1"/>
        <pt x="700" y="1447" on="1"/>
        <pt x="284" y="1447" on="1"/>
      </contour>
    </TTGlyph>
    <TTGlyph name="uni06F8" xMin="142" yMin="226" xMax="842" yMax="1588">
      <contour>
        <pt x="142" y="226" on="1"/>
        <pt x="142" y="1588" on="1"/>
        <pt x="842" y="1588" on="1"/>
        <pt x="842" y="226" on="1"/>
      </contour>
      <contour>
        <pt x="284" y="368" on="1"/>
        <pt x="700" y="368" on="1"/>
        <pt x="700" y="1447" on="1"/>
        <pt x="284" y="1447" on="1"/>
      </contour>
    </TTGlyph>
    <TTGlyph name="uni06F9" xMin="142" yMin="226" xMax="842" yMax="1588">
      <contour>
        <pt x="142" y="226" on="1"/>
        <pt x="142" y="1588" on="1"/>
        <pt x="842" y="1588" on="1"/>
        <pt x="842" y="226" on="1"/>
      </contour>
      <contour>
        <pt x="284" y="368" on="1"/>
        <pt x="700" y="368" on="1"/>
        <pt x="700" y="1447" on="1"/>
        <pt x="284" y="1447" on="1"/>
      </contour>
    </TTGlyph>
    <TTGlyph name="uni2010" xMin="422" yMin="-980" xMax="3002" yMax="1128">
      <contour>
        <pt x="3002" y="1098" on="1"/>
        <pt x="3002" y="1035" on="0"/>
        <pt x="2897" y="983" on="0"/>
        <pt x="2712" y="871" on="1"/>
        <pt x="2581" y="790" on="0"/>
        <pt x="2494" y="770" on="1"/>
        <pt x="2470" y="794" on="0"/>
        <pt x="2470" y="805" on="1"/>
        <pt x="2470" y="852" on="0"/>
        <pt x="2519" y="879" on="1"/>
        <pt x="2567" y="902" on="0"/>
        <pt x="2616" y="925" on="1"/>
        <pt x="2649" y="945" on="0"/>
        <pt x="2882" y="1082" on="1"/>
        <pt x="2930" y="1111" on="0"/>
        <pt x="2989" y="1128" on="1"/>
        <pt x="3002" y="1114" on="0"/>
      </contour>
      <contour>
        <pt x="2132" y="907" on="1"/>
        <pt x="2133" y="856" on="0"/>
        <pt x="2059" y="794" on="1"/>
        <pt x="2020" y="784" on="0"/>
        <pt x="1945" y="756" on="1"/>
        <pt x="1868" y="718" on="0"/>
        <pt x="1861" y="718" on="1"/>
        <pt x="1841" y="718" on="0"/>
        <pt x="1808" y="734" on="1"/>
        <pt x="1764" y="754" on="0"/>
        <pt x="1764" y="785" on="1"/>
        <pt x="1764" y="807" on="0"/>
        <pt x="1789" y="853" on="1"/>
        <pt x="1817" y="904" on="0"/>
        <pt x="1847" y="923" on="1"/>
        <pt x="1847" y="904" on="0"/>
        <pt x="1849" y="869" on="1"/>
        <pt x="1850" y="854" on="0"/>
        <pt x="1854" y="840" on="1"/>
        <pt x="1856" y="840" on="0"/>
        <pt x="1866" y="831" on="0"/>
        <pt x="1881" y="831" on="1"/>
        <pt x="1906" y="831" on="0"/>
        <pt x="1934" y="890" on="1"/>
        <pt x="1954" y="930" on="0"/>
        <pt x="1960" y="953" on="1"/>
        <pt x="1965" y="953" on="0"/>
        <pt x="1990" y="964" on="0"/>
        <pt x="1996" y="964" on="1"/>
        <pt x="2010" y="953" on="0"/>
        <pt x="2008" y="901" on="1"/>
        <pt x="2011" y="901" on="0"/>
        <pt x="2020" y="893" on="0"/>
        <pt x="2035" y="893" on="1"/>
        <pt x="2060" y="893" on="0"/>
        <pt x="2093" y="1004" on="1"/>
        <pt x="2132" y="1004" on="1"/>
      </contour>
      <contour>
        <pt x="3002" y="181" on="1"/>
        <pt x="3002" y="29" on="0"/>
        <pt x="2897" y="-140" on="1"/>
        <pt x="2780" y="-329" on="0"/>
        <pt x="2620" y="-374" on="1"/>
        <pt x="2573" y="-387" on="0"/>
        <pt x="2363" y="-387" on="1"/>
        <pt x="2167" y="-387" on="0"/>
        <pt x="2102" y="-343" on="1"/>
        <pt x="2102" y="-307" on="1"/>
        <pt x="2148" y="-285" on="0"/>
        <pt x="2163" y="-285" on="1"/>
        <pt x="2176" y="-285" on="0"/>
        <pt x="2278" y="-305" on="0"/>
        <pt x="2291" y="-305" on="1"/>
        <pt x="2414" y="-305" on="0"/>
        <pt x="2555" y="-251" on="1"/>
        <pt x="2603" y="-233" on="0"/>
        <pt x="2676" y="-181" on="1"/>
        <pt x="2721" y="-149" on="0"/>
        <pt x="2810" y="-54" on="1"/>
        <pt x="2921" y="61" on="0"/>
        <pt x="2921" y="104" on="1"/>
        <pt x="2921" y="149" on="0"/>
        <pt x="2846" y="218" on="1"/>
        <pt x="2803" y="256" on="0"/>
        <pt x="2760" y="294" on="1"/>
        <pt x="2746" y="334" on="0"/>
        <pt x="2746" y="334" on="1"/>
        <pt x="2746" y="377" on="0"/>
        <pt x="2791" y="442" on="1"/>
        <pt x="2859" y="420" on="0"/>
        <pt x="2928" y="340" on="1"/>
        <pt x="3002" y="254" on="0"/>
      </contour>
      <contour>
        <pt x="1128" y="917" on="1"/>
        <pt x="1091" y="869" on="0"/>
        <pt x="995" y="811" on="1"/>
        <pt x="893" y="750" on="0"/>
        <pt x="842" y="750" on="1"/>
        <pt x="815" y="750" on="0"/>
        <pt x="791" y="773" on="1"/>
        <pt x="797" y="808" on="0"/>
        <pt x="843" y="831" on="1"/>
        <pt x="909" y="864" on="0"/>
        <pt x="914" y="868" on="1"/>
        <pt x="898" y="903" on="0"/>
        <pt x="832" y="903" on="1"/>
        <pt x="803" y="903" on="0"/>
        <pt x="702" y="841" on="1"/>
        <pt x="688" y="843" on="0"/>
        <pt x="688" y="867" on="1"/>
        <pt x="688" y="929" on="0"/>
        <pt x="773" y="977" on="1"/>
        <pt x="841" y="1016" on="0"/>
        <pt x="883" y="1016" on="1"/>
        <pt x="914" y="1016" on="0"/>
        <pt x="1128" y="963" on="1"/>
      </contour>
      <contour>
        <pt x="1917" y="-141" on="1"/>
        <pt x="1917" y="-163" on="0"/>
        <pt x="1897" y="-200" on="1"/>
        <pt x="1875" y="-244" on="0"/>
        <pt x="1851" y="-244" on="1"/>
        <pt x="1828" y="-244" on="0"/>
        <pt x="1723" y="-177" on="0"/>
        <pt x="1723" y="-156" on="1"/>
        <pt x="1723" y="-134" on="0"/>
        <pt x="1796" y="-49" on="0"/>
        <pt x="1820" y="-49" on="1"/>
        <pt x="1861" y="-49" on="0"/>
        <pt x="1892" y="-89" on="1"/>
        <pt x="1917" y="-122" on="0"/>
      </contour>
      <contour>
        <pt x="2245" y="-627" on="1"/>
        <pt x="2245" y="-671" on="0"/>
        <pt x="2211" y="-691" on="1"/>
        <pt x="2127" y="-741" on="0"/>
        <pt x="1888" y="-857" on="0"/>
        <pt x="1870" y="-857" on="1"/>
        <pt x="1828" y="-857" on="1"/>
        <pt x="1815" y="-844" on="0"/>
        <pt x="1815" y="-822" on="1"/>
        <pt x="1815" y="-783" on="0"/>
        <pt x="1997" y="-693" on="1"/>
        <pt x="2141" y="-621" on="0"/>
        <pt x="2231" y="-592" on="1"/>
        <pt x="2245" y="-606" on="0"/>
      </contour>
      <contour>
        <pt x="2132" y="242" on="1"/>
        <pt x="2132" y="188" on="0"/>
        <pt x="2107" y="138" on="1"/>
        <pt x="2097" y="131" on="0"/>
        <pt x="2077" y="115" on="1"/>
        <pt x="2062" y="122" on="0"/>
        <pt x="2004" y="163" on="1"/>
        <pt x="1957" y="197" on="0"/>
        <pt x="1942" y="197" on="1"/>
        <pt x="1898" y="197" on="0"/>
        <pt x="1688" y="101" on="1"/>
        <pt x="1636" y="77" on="0"/>
        <pt x="1591" y="14" on="1"/>
        <pt x="1562" y="-25" on="0"/>
        <pt x="1565" y="-105" on="1"/>
        <pt x="1566" y="-127" on="0"/>
        <pt x="1575" y="-196" on="1"/>
        <pt x="1584" y="-261" on="0"/>
        <pt x="1584" y="-296" on="1"/>
        <pt x="1584" y="-335" on="0"/>
        <pt x="1575" y="-362" on="1"/>
        <pt x="1569" y="-382" on="0"/>
        <pt x="1526" y="-424" on="1"/>
        <pt x="1480" y="-469" on="0"/>
        <pt x="1457" y="-469" on="1"/>
        <pt x="1440" y="-469" on="0"/>
        <pt x="1392" y="-420" on="0"/>
        <pt x="1387" y="-403" on="1"/>
        <pt x="1367" y="-348" on="0"/>
        <pt x="1336" y="-240" on="1"/>
        <pt x="1330" y="-211" on="0"/>
        <pt x="1330" y="-185" on="1"/>
        <pt x="1330" y="-144" on="0"/>
        <pt x="1364" y="-51" on="0"/>
        <pt x="1364" y="-32" on="1"/>
        <pt x="1364" y="16" on="1"/>
        <pt x="1358" y="22" on="0"/>
        <pt x="1339" y="22" on="1"/>
        <pt x="1329" y="22" on="0"/>
        <pt x="1279" y="14" on="1"/>
        <pt x="1222" y="4" on="0"/>
        <pt x="1195" y="2" on="1"/>
        <pt x="1209" y="3" on="0"/>
        <pt x="1113" y="5" on="1"/>
        <pt x="1057" y="7" on="0"/>
        <pt x="1039" y="-15" on="1"/>
        <pt x="1013" y="-233" on="0"/>
        <pt x="929" y="-233" on="1"/>
        <pt x="888" y="-233" on="0"/>
        <pt x="831" y="-166" on="1"/>
        <pt x="781" y="-108" on="0"/>
        <pt x="773" y="-76" on="1"/>
        <pt x="773" y="-33" on="0"/>
        <pt x="772" y="65" on="1"/>
        <pt x="769" y="65" on="0"/>
        <pt x="749" y="74" on="0"/>
        <pt x="734" y="74" on="1"/>
        <pt x="683" y="74" on="0"/>
        <pt x="606" y="41" on="1"/>
        <pt x="504" y="-1" on="0"/>
        <pt x="504" y="-64" on="1"/>
        <pt x="596" y="-842" on="1"/>
        <pt x="596" y="-952" on="0"/>
        <pt x="538" y="-980" on="1"/>
        <pt x="422" y="-141" on="1"/>
        <pt x="457" y="120" on="0"/>
        <pt x="640" y="202" on="1"/>
        <pt x="688" y="211" on="0"/>
        <pt x="774" y="229" on="1"/>
        <pt x="792" y="234" on="0"/>
        <pt x="810" y="261" on="1"/>
        <pt x="837" y="300" on="0"/>
        <pt x="846" y="309" on="1"/>
        <pt x="895" y="262" on="0"/>
        <pt x="993" y="188" on="1"/>
        <pt x="1073" y="145" on="0"/>
        <pt x="1190" y="145" on="1"/>
        <pt x="1330" y="145" on="0"/>
        <pt x="1459" y="198" on="1"/>
        <pt x="1507" y="218" on="0"/>
        <pt x="1552" y="297" on="1"/>
        <pt x="1556" y="304" on="0"/>
        <pt x="1602" y="349" on="1"/>
        <pt x="1639" y="349" on="1"/>
        <pt x="1639" y="345" on="0"/>
        <pt x="1651" y="334" on="0"/>
        <pt x="1651" y="319" on="1"/>
        <pt x="1651" y="288" on="0"/>
        <pt x="1575" y="182" on="1"/>
        <pt x="1532" y="124" on="0"/>
        <pt x="1489" y="66" on="1"/>
        <pt x="1446" y="-9" on="0"/>
        <pt x="1446" y="-39" on="1"/>
        <pt x="1446" y="-55" on="0"/>
        <pt x="1462" y="-90" on="1"/>
        <pt x="1485" y="-30" on="0"/>
        <pt x="1507" y="30" on="1"/>
        <pt x="1537" y="102" on="0"/>
        <pt x="1562" y="129" on="1"/>
        <pt x="1611" y="181" on="0"/>
        <pt x="1762" y="263" on="1"/>
        <pt x="1924" y="350" on="0"/>
        <pt x="1994" y="350" on="1"/>
        <pt x="2030" y="350" on="0"/>
        <pt x="2078" y="319" on="1"/>
        <pt x="2132" y="285" on="0"/>
      </contour>
      <contour>
        <pt x="1732" y="-618" on="1"/>
        <pt x="1733" y="-645" on="0"/>
        <pt x="1557" y="-736" on="1"/>
        <pt x="1385" y="-825" on="0"/>
        <pt x="1296" y="-847" on="1"/>
        <pt x="1282" y="-833" on="0"/>
        <pt x="1282" y="-811" on="1"/>
        <pt x="1282" y="-761" on="0"/>
        <pt x="1367" y="-719" on="1"/>
        <pt x="1423" y="-695" on="0"/>
        <pt x="1480" y="-671" on="1"/>
        <pt x="1556" y="-626" on="0"/>
        <pt x="1707" y="-561" on="1"/>
        <pt x="1722" y="-572" on="0"/>
        <pt x="1732" y="-572" on="1"/>
      </contour>
    </TTGlyph>
    <TTGlyph name="uni2011" xMin="422" yMin="-980" xMax="3002" yMax="1128">
      <contour>
        <pt x="3002" y="1098" on="1"/>
        <pt x="3002" y="1035" on="0"/>
        <pt x="2897" y="983" on="0"/>
        <pt x="2712" y="871" on="1"/>
        <pt x="2581" y="790" on="0"/>
        <pt x="2494" y="770" on="1"/>
        <pt x="2470" y="794" on="0"/>
        <pt x="2470" y="805" on="1"/>
        <pt x="2470" y="852" on="0"/>
        <pt x="2519" y="879" on="1"/>
        <pt x="2567" y="902" on="0"/>
        <pt x="2616" y="925" on="1"/>
        <pt x="2649" y="945" on="0"/>
        <pt x="2882" y="1082" on="1"/>
        <pt x="2930" y="1111" on="0"/>
        <pt x="2989" y="1128" on="1"/>
        <pt x="3002" y="1114" on="0"/>
      </contour>
      <contour>
        <pt x="2132" y="907" on="1"/>
        <pt x="2133" y="856" on="0"/>
        <pt x="2059" y="794" on="1"/>
        <pt x="2020" y="784" on="0"/>
        <pt x="1945" y="756" on="1"/>
        <pt x="1868" y="718" on="0"/>
        <pt x="1861" y="718" on="1"/>
        <pt x="1841" y="718" on="0"/>
        <pt x="1808" y="734" on="1"/>
        <pt x="1764" y="754" on="0"/>
        <pt x="1764" y="785" on="1"/>
        <pt x="1764" y="807" on="0"/>
        <pt x="1789" y="853" on="1"/>
        <pt x="1817" y="904" on="0"/>
        <pt x="1847" y="923" on="1"/>
        <pt x="1847" y="904" on="0"/>
        <pt x="1849" y="869" on="1"/>
        <pt x="1850" y="854" on="0"/>
        <pt x="1854" y="840" on="1"/>
        <pt x="1856" y="840" on="0"/>
        <pt x="1866" y="831" on="0"/>
        <pt x="1881" y="831" on="1"/>
        <pt x="1906" y="831" on="0"/>
        <pt x="1934" y="890" on="1"/>
        <pt x="1954" y="930" on="0"/>
        <pt x="1960" y="953" on="1"/>
        <pt x="1965" y="953" on="0"/>
        <pt x="1990" y="964" on="0"/>
        <pt x="1996" y="964" on="1"/>
        <pt x="2010" y="953" on="0"/>
        <pt x="2008" y="901" on="1"/>
        <pt x="2011" y="901" on="0"/>
        <pt x="2020" y="893" on="0"/>
        <pt x="2035" y="893" on="1"/>
        <pt x="2060" y="893" on="0"/>
        <pt x="2093" y="1004" on="1"/>
        <pt x="2132" y="1004" on="1"/>
      </contour>
      <contour>
        <pt x="3002" y="181" on="1"/>
        <pt x="3002" y="29" on="0"/>
        <pt x="2897" y="-140" on="1"/>
        <pt x="2780" y="-329" on="0"/>
        <pt x="2620" y="-374" on="1"/>
        <pt x="2573" y="-387" on="0"/>
        <pt x="2363" y="-387" on="1"/>
        <pt x="2167" y="-387" on="0"/>
        <pt x="2102" y="-343" on="1"/>
        <pt x="2102" y="-307" on="1"/>
        <pt x="2148" y="-285" on="0"/>
        <pt x="2163" y="-285" on="1"/>
        <pt x="2176" y="-285" on="0"/>
        <pt x="2278" y="-305" on="0"/>
        <pt x="2291" y="-305" on="1"/>
        <pt x="2414" y="-305" on="0"/>
        <pt x="2555" y="-251" on="1"/>
        <pt x="2603" y="-233" on="0"/>
        <pt x="2676" y="-181" on="1"/>
        <pt x="2721" y="-149" on="0"/>
        <pt x="2810" y="-54" on="1"/>
        <pt x="2921" y="61" on="0"/>
        <pt x="2921" y="104" on="1"/>
        <pt x="2921" y="149" on="0"/>
        <pt x="2846" y="218" on="1"/>
        <pt x="2803" y="256" on="0"/>
        <pt x="2760" y="294" on="1"/>
        <pt x="2746" y="334" on="0"/>
        <pt x="2746" y="334" on="1"/>
        <pt x="2746" y="377" on="0"/>
        <pt x="2791" y="442" on="1"/>
        <pt x="2859" y="420" on="0"/>
        <pt x="2928" y="340" on="1"/>
        <pt x="3002" y="254" on="0"/>
      </contour>
      <contour>
        <pt x="1128" y="917" on="1"/>
        <pt x="1091" y="869" on="0"/>
        <pt x="995" y="811" on="1"/>
        <pt x="893" y="750" on="0"/>
        <pt x="842" y="750" on="1"/>
        <pt x="815" y="750" on="0"/>
        <pt x="791" y="773" on="1"/>
        <pt x="797" y="808" on="0"/>
        <pt x="843" y="831" on="1"/>
        <pt x="909" y="864" on="0"/>
        <pt x="914" y="868" on="1"/>
        <pt x="898" y="903" on="0"/>
        <pt x="832" y="903" on="1"/>
        <pt x="803" y="903" on="0"/>
        <pt x="702" y="841" on="1"/>
        <pt x="688" y="843" on="0"/>
        <pt x="688" y="867" on="1"/>
        <pt x="688" y="929" on="0"/>
        <pt x="773" y="977" on="1"/>
        <pt x="841" y="1016" on="0"/>
        <pt x="883" y="1016" on="1"/>
        <pt x="914" y="1016" on="0"/>
        <pt x="1128" y="963" on="1"/>
      </contour>
      <contour>
        <pt x="1917" y="-141" on="1"/>
        <pt x="1917" y="-163" on="0"/>
        <pt x="1897" y="-200" on="1"/>
        <pt x="1875" y="-244" on="0"/>
        <pt x="1851" y="-244" on="1"/>
        <pt x="1828" y="-244" on="0"/>
        <pt x="1723" y="-177" on="0"/>
        <pt x="1723" y="-156" on="1"/>
        <pt x="1723" y="-134" on="0"/>
        <pt x="1796" y="-49" on="0"/>
        <pt x="1820" y="-49" on="1"/>
        <pt x="1861" y="-49" on="0"/>
        <pt x="1892" y="-89" on="1"/>
        <pt x="1917" y="-122" on="0"/>
      </contour>
      <contour>
        <pt x="2245" y="-627" on="1"/>
        <pt x="2245" y="-671" on="0"/>
        <pt x="2211" y="-691" on="1"/>
        <pt x="2127" y="-741" on="0"/>
        <pt x="1888" y="-857" on="0"/>
        <pt x="1870" y="-857" on="1"/>
        <pt x="1828" y="-857" on="1"/>
        <pt x="1815" y="-844" on="0"/>
        <pt x="1815" y="-822" on="1"/>
        <pt x="1815" y="-783" on="0"/>
        <pt x="1997" y="-693" on="1"/>
        <pt x="2141" y="-621" on="0"/>
        <pt x="2231" y="-592" on="1"/>
        <pt x="2245" y="-606" on="0"/>
      </contour>
      <contour>
        <pt x="2132" y="242" on="1"/>
        <pt x="2132" y="188" on="0"/>
        <pt x="2107" y="138" on="1"/>
        <pt x="2097" y="131" on="0"/>
        <pt x="2077" y="115" on="1"/>
        <pt x="2062" y="122" on="0"/>
        <pt x="2004" y="163" on="1"/>
        <pt x="1957" y="197" on="0"/>
        <pt x="1942" y="197" on="1"/>
        <pt x="1898" y="197" on="0"/>
        <pt x="1688" y="101" on="1"/>
        <pt x="1636" y="77" on="0"/>
        <pt x="1591" y="14" on="1"/>
        <pt x="1562" y="-25" on="0"/>
        <pt x="1565" y="-105" on="1"/>
        <pt x="1566" y="-127" on="0"/>
        <pt x="1575" y="-196" on="1"/>
        <pt x="1584" y="-261" on="0"/>
        <pt x="1584" y="-296" on="1"/>
        <pt x="1584" y="-335" on="0"/>
        <pt x="1575" y="-362" on="1"/>
        <pt x="1569" y="-382" on="0"/>
        <pt x="1526" y="-424" on="1"/>
        <pt x="1480" y="-469" on="0"/>
        <pt x="1457" y="-469" on="1"/>
        <pt x="1440" y="-469" on="0"/>
        <pt x="1392" y="-420" on="0"/>
        <pt x="1387" y="-403" on="1"/>
        <pt x="1367" y="-348" on="0"/>
        <pt x="1336" y="-240" on="1"/>
        <pt x="1330" y="-211" on="0"/>
        <pt x="1330" y="-185" on="1"/>
        <pt x="1330" y="-144" on="0"/>
        <pt x="1364" y="-51" on="0"/>
        <pt x="1364" y="-32" on="1"/>
        <pt x="1364" y="16" on="1"/>
        <pt x="1358" y="22" on="0"/>
        <pt x="1339" y="22" on="1"/>
        <pt x="1329" y="22" on="0"/>
        <pt x="1279" y="14" on="1"/>
        <pt x="1222" y="4" on="0"/>
        <pt x="1195" y="2" on="1"/>
        <pt x="1209" y="3" on="0"/>
        <pt x="1113" y="5" on="1"/>
        <pt x="1057" y="7" on="0"/>
        <pt x="1039" y="-15" on="1"/>
        <pt x="1013" y="-233" on="0"/>
        <pt x="929" y="-233" on="1"/>
        <pt x="888" y="-233" on="0"/>
        <pt x="831" y="-166" on="1"/>
        <pt x="781" y="-108" on="0"/>
        <pt x="773" y="-76" on="1"/>
        <pt x="773" y="-33" on="0"/>
        <pt x="772" y="65" on="1"/>
        <pt x="769" y="65" on="0"/>
        <pt x="749" y="74" on="0"/>
        <pt x="734" y="74" on="1"/>
        <pt x="683" y="74" on="0"/>
        <pt x="606" y="41" on="1"/>
        <pt x="504" y="-1" on="0"/>
        <pt x="504" y="-64" on="1"/>
        <pt x="596" y="-842" on="1"/>
        <pt x="596" y="-952" on="0"/>
        <pt x="538" y="-980" on="1"/>
        <pt x="422" y="-141" on="1"/>
        <pt x="457" y="120" on="0"/>
        <pt x="640" y="202" on="1"/>
        <pt x="688" y="211" on="0"/>
        <pt x="774" y="229" on="1"/>
        <pt x="792" y="234" on="0"/>
        <pt x="810" y="261" on="1"/>
        <pt x="837" y="300" on="0"/>
        <pt x="846" y="309" on="1"/>
        <pt x="895" y="262" on="0"/>
        <pt x="993" y="188" on="1"/>
        <pt x="1073" y="145" on="0"/>
        <pt x="1190" y="145" on="1"/>
        <pt x="1330" y="145" on="0"/>
        <pt x="1459" y="198" on="1"/>
        <pt x="1507" y="218" on="0"/>
        <pt x="1552" y="297" on="1"/>
        <pt x="1556" y="304" on="0"/>
        <pt x="1602" y="349" on="1"/>
        <pt x="1639" y="349" on="1"/>
        <pt x="1639" y="345" on="0"/>
        <pt x="1651" y="334" on="0"/>
        <pt x="1651" y="319" on="1"/>
        <pt x="1651" y="288" on="0"/>
        <pt x="1575" y="182" on="1"/>
        <pt x="1532" y="124" on="0"/>
        <pt x="1489" y="66" on="1"/>
        <pt x="1446" y="-9" on="0"/>
        <pt x="1446" y="-39" on="1"/>
        <pt x="1446" y="-55" on="0"/>
        <pt x="1462" y="-90" on="1"/>
        <pt x="1485" y="-30" on="0"/>
        <pt x="1507" y="30" on="1"/>
        <pt x="1537" y="102" on="0"/>
        <pt x="1562" y="129" on="1"/>
        <pt x="1611" y="181" on="0"/>
        <pt x="1762" y="263" on="1"/>
        <pt x="1924" y="350" on="0"/>
        <pt x="1994" y="350" on="1"/>
        <pt x="2030" y="350" on="0"/>
        <pt x="2078" y="319" on="1"/>
        <pt x="2132" y="285" on="0"/>
      </contour>
      <contour>
        <pt x="1732" y="-618" on="1"/>
        <pt x="1733" y="-645" on="0"/>
        <pt x="1557" y="-736" on="1"/>
        <pt x="1385" y="-825" on="0"/>
        <pt x="1296" y="-847" on="1"/>
        <pt x="1282" y="-833" on="0"/>
        <pt x="1282" y="-811" on="1"/>
        <pt x="1282" y="-761" on="0"/>
        <pt x="1367" y="-719" on="1"/>
        <pt x="1423" y="-695" on="0"/>
        <pt x="1480" y="-671" on="1"/>
        <pt x="1556" y="-626" on="0"/>
        <pt x="1707" y="-561" on="1"/>
        <pt x="1722" y="-572" on="0"/>
        <pt x="1732" y="-572" on="1"/>
      </contour>
    </TTGlyph>
    <TTGlyph name="uniE000" xMin="0" yMin="0" xMax="1155" yMax="1155">
      <contour>
        <pt x="0" y="1155" on="1"/>
        <pt x="1155" y="1155" on="1"/>
        <pt x="1155" y="0" on="1"/>
        <pt x="0" y="0" on="1"/>
      </contour>
    </TTGlyph>
    <TTGlyph name="uniFB51" xMin="302" yMin="-465" xMax="3752" yMax="1950">
      <contour>
        <pt x="3742" y="1235" on="1"/>
        <pt x="3742" y="1180" on="0"/>
        <pt x="3535" y="1081" on="1"/>
        <pt x="3401" y="1019" on="0"/>
        <pt x="3267" y="958" on="1"/>
        <pt x="3249" y="960" on="0"/>
        <pt x="3220" y="972" on="1"/>
        <pt x="3228" y="1005" on="0"/>
        <pt x="3256" y="1049" on="1"/>
        <pt x="3484" y="1177" on="0"/>
        <pt x="3728" y="1275" on="1"/>
        <pt x="3742" y="1261" on="0"/>
      </contour>
      <contour>
        <pt x="3190" y="1444" on="1"/>
        <pt x="3190" y="1420" on="0"/>
        <pt x="3164" y="1360" on="1"/>
        <pt x="3113" y="1235" on="0"/>
        <pt x="2949" y="1235" on="1"/>
        <pt x="2937" y="1235" on="0"/>
        <pt x="2887" y="1244" on="0"/>
        <pt x="2877" y="1244" on="1"/>
        <pt x="2863" y="1244" on="0"/>
        <pt x="2831" y="1223" on="1"/>
        <pt x="2795" y="1198" on="0"/>
        <pt x="2781" y="1194" on="1"/>
        <pt x="2781" y="1228" on="1"/>
        <pt x="2780" y="1244" on="0"/>
        <pt x="2838" y="1316" on="0"/>
        <pt x="2864" y="1332" on="1"/>
        <pt x="2887" y="1338" on="0"/>
        <pt x="2924" y="1358" on="1"/>
        <pt x="2971" y="1414" on="0"/>
        <pt x="3069" y="1507" on="1"/>
        <pt x="3081" y="1511" on="0"/>
        <pt x="3113" y="1511" on="1"/>
        <pt x="3190" y="1511" on="0"/>
      </contour>
      <contour>
        <pt x="2707" y="1914" on="1"/>
        <pt x="2708" y="1851" on="0"/>
        <pt x="2510" y="1783" on="1"/>
        <pt x="2466" y="1762" on="0"/>
        <pt x="2377" y="1722" on="1"/>
        <pt x="2293" y="1683" on="0"/>
        <pt x="2129" y="1613" on="1"/>
        <pt x="2114" y="1628" on="0"/>
        <pt x="2114" y="1644" on="1"/>
        <pt x="2114" y="1690" on="0"/>
        <pt x="2199" y="1736" on="1"/>
        <pt x="2261" y="1762" on="0"/>
        <pt x="2322" y="1789" on="1"/>
        <pt x="2440" y="1850" on="0"/>
        <pt x="2671" y="1950" on="1"/>
        <pt x="2707" y="1950" on="1"/>
      </contour>
      <contour>
        <pt x="2596" y="1516" on="1"/>
        <pt x="2596" y="1501" on="0"/>
        <pt x="2571" y="1432" on="1"/>
        <pt x="2556" y="1392" on="0"/>
        <pt x="2501" y="1361" on="1"/>
        <pt x="2387" y="1296" on="0"/>
        <pt x="2344" y="1296" on="1"/>
        <pt x="2303" y="1296" on="1"/>
        <pt x="2282" y="1296" on="0"/>
        <pt x="2267" y="1329" on="1"/>
        <pt x="2257" y="1353" on="0"/>
        <pt x="2257" y="1367" on="1"/>
        <pt x="2257" y="1402" on="0"/>
        <pt x="2289" y="1447" on="1"/>
        <pt x="2317" y="1488" on="0"/>
        <pt x="2342" y="1500" on="1"/>
        <pt x="2343" y="1474" on="0"/>
        <pt x="2357" y="1418" on="1"/>
        <pt x="2384" y="1418" on="1"/>
        <pt x="2405" y="1454" on="0"/>
        <pt x="2452" y="1521" on="1"/>
        <pt x="2461" y="1497" on="0"/>
        <pt x="2479" y="1459" on="1"/>
        <pt x="2505" y="1495" on="0"/>
        <pt x="2583" y="1561" on="1"/>
        <pt x="2583" y="1558" on="0"/>
        <pt x="2596" y="1530" on="0"/>
      </contour>
      <contour>
        <pt x="3015" y="256" on="1"/>
        <pt x="3015" y="169" on="0"/>
        <pt x="2980" y="80" on="1"/>
        <pt x="2963" y="52" on="0"/>
        <pt x="2963" y="48" on="1"/>
        <pt x="2942" y="48" on="0"/>
        <pt x="2926" y="70" on="1"/>
        <pt x="2914" y="223" on="0"/>
        <pt x="2876" y="618" on="1"/>
        <pt x="2842" y="975" on="0"/>
        <pt x="2842" y="983" on="1"/>
        <pt x="2842" y="1093" on="0"/>
        <pt x="2920" y="1152" on="1"/>
      </contour>
      <contour>
        <pt x="3752" y="159" on="1"/>
        <pt x="3752" y="147" on="0"/>
        <pt x="3734" y="113" on="0"/>
        <pt x="3734" y="102" on="1"/>
        <pt x="3730" y="-8" on="0"/>
        <pt x="3642" y="-139" on="1"/>
        <pt x="3562" y="-258" on="0"/>
        <pt x="3453" y="-339" on="1"/>
        <pt x="3427" y="-357" on="0"/>
        <pt x="3340" y="-380" on="1"/>
        <pt x="3250" y="-403" on="0"/>
        <pt x="3195" y="-403" on="1"/>
        <pt x="3143" y="-403" on="0"/>
        <pt x="2991" y="-362" on="1"/>
        <pt x="2852" y="-324" on="0"/>
        <pt x="2821" y="-308" on="1"/>
        <pt x="2824" y="-260" on="0"/>
        <pt x="2862" y="-260" on="1"/>
        <pt x="2874" y="-260" on="0"/>
        <pt x="3115" y="-301" on="0"/>
        <pt x="3128" y="-301" on="1"/>
        <pt x="3141" y="-301" on="0"/>
        <pt x="3187" y="-285" on="0"/>
        <pt x="3194" y="-285" on="1"/>
        <pt x="3331" y="-266" on="0"/>
        <pt x="3467" y="-145" on="1"/>
        <pt x="3578" y="-45" on="0"/>
        <pt x="3639" y="73" on="1"/>
        <pt x="3633" y="108" on="1"/>
        <pt x="3574" y="47" on="0"/>
        <pt x="3532" y="47" on="1"/>
        <pt x="3470" y="47" on="0"/>
        <pt x="3425" y="107" on="1"/>
        <pt x="3384" y="161" on="0"/>
        <pt x="3384" y="215" on="1"/>
        <pt x="3384" y="277" on="0"/>
        <pt x="3427" y="369" on="1"/>
        <pt x="3483" y="487" on="0"/>
        <pt x="3558" y="487" on="1"/>
        <pt x="3619" y="487" on="0"/>
        <pt x="3691" y="328" on="1"/>
        <pt x="3752" y="194" on="0"/>
      </contour>
      <contour>
        <pt x="2063" y="1044" on="1"/>
        <pt x="2063" y="1020" on="0"/>
        <pt x="1999" y="937" on="0"/>
        <pt x="1976" y="937" on="1"/>
        <pt x="1954" y="937" on="0"/>
        <pt x="1913" y="967" on="1"/>
        <pt x="1868" y="999" on="0"/>
        <pt x="1868" y="1024" on="1"/>
        <pt x="1868" y="1044" on="0"/>
        <pt x="1932" y="1132" on="0"/>
        <pt x="1950" y="1132" on="1"/>
        <pt x="1975" y="1132" on="0"/>
        <pt x="2063" y="1065" on="0"/>
      </contour>
      <contour>
        <pt x="2585" y="241" on="1"/>
        <pt x="2585" y="194" on="0"/>
        <pt x="2581" y="183" on="1"/>
        <pt x="2561" y="119" on="0"/>
        <pt x="2509" y="-1" on="1"/>
        <pt x="2497" y="-22" on="0"/>
        <pt x="2459" y="-40" on="1"/>
        <pt x="2425" y="-55" on="0"/>
        <pt x="2405" y="-55" on="1"/>
        <pt x="2356" y="-55" on="1"/>
        <pt x="2289" y="-55" on="0"/>
        <pt x="2211" y="22" on="1"/>
        <pt x="2149" y="84" on="0"/>
        <pt x="2108" y="159" on="1"/>
        <pt x="2052" y="84" on="0"/>
        <pt x="1926" y="23" on="1"/>
        <pt x="1807" y="-35" on="0"/>
        <pt x="1731" y="-35" on="1"/>
        <pt x="1633" y="-35" on="1"/>
        <pt x="1569" y="-35" on="0"/>
        <pt x="1511" y="7" on="1"/>
        <pt x="1509" y="14" on="0"/>
        <pt x="1509" y="25" on="1"/>
        <pt x="1509" y="73" on="0"/>
        <pt x="1554" y="159" on="1"/>
        <pt x="1586" y="159" on="1"/>
        <pt x="1601" y="159" on="0"/>
        <pt x="1609" y="147" on="1"/>
        <pt x="1619" y="130" on="0"/>
        <pt x="1620" y="130" on="1"/>
        <pt x="1632" y="129" on="0"/>
        <pt x="1710" y="129" on="1"/>
        <pt x="1833" y="129" on="0"/>
        <pt x="1935" y="165" on="1"/>
        <pt x="2073" y="215" on="0"/>
        <pt x="2073" y="313" on="1"/>
        <pt x="2073" y="322" on="0"/>
        <pt x="2022" y="555" on="0"/>
        <pt x="2022" y="569" on="1"/>
        <pt x="2022" y="672" on="0"/>
        <pt x="2087" y="763" on="1"/>
        <pt x="2108" y="753" on="0"/>
        <pt x="2117" y="718" on="1"/>
        <pt x="2112" y="690" on="0"/>
        <pt x="2112" y="653" on="1"/>
        <pt x="2112" y="431" on="0"/>
        <pt x="2208" y="248" on="1"/>
        <pt x="2277" y="118" on="0"/>
        <pt x="2406" y="118" on="1"/>
        <pt x="2458" y="118" on="0"/>
        <pt x="2484" y="144" on="1"/>
        <pt x="2484" y="295" on="0"/>
        <pt x="2479" y="328" on="1"/>
        <pt x="2432" y="696" on="0"/>
        <pt x="2398" y="890" on="1"/>
        <pt x="2394" y="908" on="0"/>
        <pt x="2370" y="963" on="1"/>
        <pt x="2350" y="1014" on="0"/>
        <pt x="2350" y="1030" on="1"/>
        <pt x="2350" y="1051" on="0"/>
        <pt x="2398" y="1139" on="1"/>
        <pt x="2443" y="1219" on="0"/>
        <pt x="2456" y="1235" on="1"/>
        <pt x="2485" y="1216" on="0"/>
        <pt x="2488" y="1164" on="1"/>
        <pt x="2493" y="1103" on="0"/>
        <pt x="2495" y="1099" on="1"/>
        <pt x="2505" y="1081" on="0"/>
        <pt x="2529" y="1064" on="1"/>
        <pt x="2559" y="1043" on="0"/>
        <pt x="2565" y="1037" on="1"/>
        <pt x="2503" y="850" on="0"/>
        <pt x="2503" y="835" on="1"/>
        <pt x="2503" y="822" on="0"/>
        <pt x="2585" y="254" on="0"/>
      </contour>
      <contour>
        <pt x="978" y="1480" on="1"/>
        <pt x="978" y="1447" on="0"/>
        <pt x="956" y="1412" on="1"/>
        <pt x="881" y="1381" on="0"/>
        <pt x="665" y="1274" on="1"/>
        <pt x="483" y="1184" on="0"/>
        <pt x="470" y="1184" on="1"/>
        <pt x="415" y="1184" on="1"/>
        <pt x="415" y="1217" on="1"/>
        <pt x="415" y="1230" on="0"/>
        <pt x="439" y="1263" on="0"/>
        <pt x="439" y="1269" on="1"/>
        <pt x="606" y="1352" on="0"/>
        <pt x="963" y="1520" on="1"/>
        <pt x="978" y="1507" on="0"/>
      </contour>
      <contour>
        <pt x="2207" y="-224" on="1"/>
        <pt x="2207" y="-267" on="0"/>
        <pt x="2162" y="-288" on="1"/>
        <pt x="2071" y="-330" on="0"/>
        <pt x="1922" y="-384" on="1"/>
        <pt x="1781" y="-434" on="0"/>
        <pt x="1759" y="-434" on="1"/>
        <pt x="1717" y="-434" on="1"/>
        <pt x="1704" y="-432" on="0"/>
        <pt x="1704" y="-408" on="1"/>
        <pt x="1704" y="-402" on="0"/>
        <pt x="1744" y="-342" on="0"/>
        <pt x="1759" y="-336" on="1"/>
        <pt x="2126" y="-189" on="0"/>
        <pt x="2152" y="-189" on="1"/>
        <pt x="2183" y="-189" on="1"/>
        <pt x="2207" y="-212" on="0"/>
      </contour>
      <contour>
        <pt x="773" y="740" on="1"/>
        <pt x="744" y="620" on="0"/>
        <pt x="671" y="620" on="1"/>
        <pt x="640" y="620" on="0"/>
        <pt x="603" y="654" on="1"/>
        <pt x="568" y="685" on="0"/>
        <pt x="568" y="702" on="1"/>
        <pt x="568" y="738" on="0"/>
        <pt x="644" y="814" on="1"/>
        <pt x="730" y="772" on="0"/>
      </contour>
      <contour>
        <pt x="1490" y="528" on="1"/>
        <pt x="1490" y="505" on="0"/>
        <pt x="1469" y="445" on="1"/>
        <pt x="1445" y="375" on="0"/>
        <pt x="1423" y="357" on="1"/>
        <pt x="1391" y="332" on="0"/>
        <pt x="1322" y="313" on="1"/>
        <pt x="1261" y="297" on="0"/>
        <pt x="1201" y="280" on="1"/>
        <pt x="1192" y="188" on="0"/>
        <pt x="1147" y="19" on="1"/>
        <pt x="1120" y="-40" on="0"/>
        <pt x="1016" y="-104" on="1"/>
        <pt x="967" y="-133" on="0"/>
        <pt x="849" y="-165" on="1"/>
        <pt x="726" y="-199" on="0"/>
        <pt x="655" y="-199" on="1"/>
        <pt x="527" y="-199" on="0"/>
        <pt x="423" y="-128" on="1"/>
        <pt x="302" y="-47" on="0"/>
        <pt x="302" y="83" on="1"/>
        <pt x="302" y="163" on="0"/>
        <pt x="354" y="264" on="1"/>
        <pt x="404" y="360" on="0"/>
        <pt x="469" y="415" on="1"/>
        <pt x="507" y="415" on="0"/>
        <pt x="507" y="390" on="1"/>
        <pt x="507" y="383" on="0"/>
        <pt x="395" y="188" on="0"/>
        <pt x="395" y="165" on="1"/>
        <pt x="395" y="116" on="0"/>
        <pt x="503" y="-3" on="0"/>
        <pt x="565" y="-22" on="1"/>
        <pt x="635" y="-45" on="0"/>
        <pt x="732" y="-45" on="1"/>
        <pt x="805" y="-45" on="0"/>
        <pt x="938" y="10" on="1"/>
        <pt x="1101" y="78" on="0"/>
        <pt x="1101" y="159" on="1"/>
        <pt x="1101" y="225" on="0"/>
        <pt x="1025" y="377" on="1"/>
        <pt x="1011" y="401" on="0"/>
        <pt x="997" y="424" on="1"/>
        <pt x="978" y="456" on="0"/>
        <pt x="978" y="471" on="1"/>
        <pt x="978" y="514" on="0"/>
        <pt x="1034" y="589" on="1"/>
        <pt x="1063" y="546" on="0"/>
        <pt x="1129" y="478" on="1"/>
        <pt x="1161" y="456" on="0"/>
        <pt x="1244" y="456" on="1"/>
        <pt x="1298" y="456" on="0"/>
        <pt x="1305" y="457" on="1"/>
        <pt x="1337" y="464" on="0"/>
        <pt x="1377" y="503" on="1"/>
        <pt x="1315" y="626" on="0"/>
        <pt x="1315" y="635" on="1"/>
        <pt x="1315" y="677" on="0"/>
        <pt x="1382" y="743" on="1"/>
        <pt x="1428" y="705" on="0"/>
        <pt x="1460" y="639" on="1"/>
        <pt x="1490" y="578" on="0"/>
      </contour>
      <contour>
        <pt x="1459" y="-337" on="1"/>
        <pt x="1459" y="-371" on="0"/>
        <pt x="1415" y="-401" on="1"/>
        <pt x="1381" y="-424" on="0"/>
        <pt x="1367" y="-424" on="1"/>
        <pt x="1330" y="-424" on="0"/>
        <pt x="1288" y="-383" on="1"/>
        <pt x="1282" y="-383" on="0"/>
        <pt x="1272" y="-386" on="1"/>
        <pt x="1261" y="-394" on="0"/>
        <pt x="1233" y="-437" on="1"/>
        <pt x="1213" y="-465" on="0"/>
        <pt x="1178" y="-465" on="1"/>
        <pt x="1148" y="-465" on="0"/>
        <pt x="1060" y="-399" on="0"/>
        <pt x="1060" y="-373" on="1"/>
        <pt x="1060" y="-348" on="0"/>
        <pt x="1100" y="-303" on="1"/>
        <pt x="1138" y="-260" on="0"/>
        <pt x="1152" y="-260" on="1"/>
        <pt x="1161" y="-260" on="0"/>
        <pt x="1229" y="-312" on="0"/>
        <pt x="1244" y="-312" on="1"/>
        <pt x="1256" y="-312" on="0"/>
        <pt x="1343" y="-230" on="0"/>
        <pt x="1356" y="-230" on="1"/>
        <pt x="1388" y="-230" on="0"/>
        <pt x="1459" y="-312" on="0"/>
      </contour>
      <contour>
        <pt x="3097" y="1393" on="1"/>
        <pt x="3073" y="1418" on="1"/>
        <pt x="3029" y="1397" on="0"/>
        <pt x="3006" y="1375" on="1"/>
        <pt x="3006" y="1338" on="1"/>
        <pt x="3087" y="1362" on="0"/>
      </contour>
      <contour>
        <pt x="3578" y="233" on="1"/>
        <pt x="3578" y="279" on="1"/>
        <pt x="3544" y="312" on="1"/>
        <pt x="3508" y="312" on="1"/>
        <pt x="3508" y="309" on="0"/>
        <pt x="3487" y="261" on="0"/>
        <pt x="3487" y="243" on="1"/>
        <pt x="3553" y="220" on="0"/>
      </contour>
    </TTGlyph>
    <TTGlyph name="uniFB52" xMin="416" yMin="-498" xMax="5841" yMax="1683">
      <contour>
        <pt x="5760" y="1233" on="1"/>
        <pt x="5760" y="1216" on="0"/>
        <pt x="5724" y="1181" on="0"/>
        <pt x="5709" y="1181" on="1"/>
        <pt x="5696" y="1181" on="0"/>
        <pt x="5629" y="1222" on="0"/>
        <pt x="5616" y="1222" on="1"/>
        <pt x="5607" y="1222" on="0"/>
        <pt x="5551" y="1167" on="1"/>
        <pt x="5485" y="1103" on="0"/>
        <pt x="5450" y="1082" on="1"/>
        <pt x="5384" y="1041" on="0"/>
        <pt x="5223" y="999" on="1"/>
        <pt x="5187" y="999" on="1"/>
        <pt x="5205" y="1040" on="0"/>
        <pt x="5251" y="1064" on="1"/>
        <pt x="5525" y="1211" on="0"/>
        <pt x="5525" y="1263" on="1"/>
        <pt x="5525" y="1276" on="0"/>
        <pt x="5495" y="1298" on="1"/>
        <pt x="5451" y="1329" on="0"/>
        <pt x="5443" y="1336" on="1"/>
        <pt x="5441" y="1349" on="0"/>
        <pt x="5441" y="1363" on="1"/>
        <pt x="5441" y="1438" on="0"/>
        <pt x="5546" y="1581" on="0"/>
        <pt x="5602" y="1581" on="1"/>
        <pt x="5686" y="1581" on="0"/>
        <pt x="5686" y="1425" on="1"/>
        <pt x="5686" y="1399" on="0"/>
        <pt x="5680" y="1339" on="0"/>
        <pt x="5680" y="1343" on="1"/>
        <pt x="5760" y="1281" on="0"/>
      </contour>
      <contour>
        <pt x="5279" y="1427" on="1"/>
        <pt x="5279" y="1370" on="0"/>
        <pt x="5178" y="1312" on="1"/>
        <pt x="5115" y="1281" on="0"/>
        <pt x="5051" y="1250" on="1"/>
        <pt x="4940" y="1176" on="0"/>
        <pt x="4895" y="1151" on="1"/>
        <pt x="4797" y="1094" on="0"/>
        <pt x="4748" y="1090" on="1"/>
        <pt x="4748" y="1094" on="0"/>
        <pt x="4736" y="1110" on="0"/>
        <pt x="4736" y="1125" on="1"/>
        <pt x="4736" y="1173" on="0"/>
        <pt x="4780" y="1198" on="1"/>
        <pt x="5067" y="1358" on="0"/>
        <pt x="5233" y="1457" on="1"/>
        <pt x="5235" y="1456" on="0"/>
        <pt x="5260" y="1448" on="1"/>
        <pt x="5279" y="1443" on="0"/>
      </contour>
      <contour>
        <pt x="4849" y="1499" on="1"/>
        <pt x="4849" y="1396" on="0"/>
        <pt x="4641" y="1320" on="1"/>
        <pt x="4486" y="1263" on="0"/>
        <pt x="4409" y="1263" on="1"/>
        <pt x="4396" y="1263" on="0"/>
        <pt x="4261" y="1315" on="0"/>
        <pt x="4250" y="1315" on="1"/>
        <pt x="4238" y="1315" on="0"/>
        <pt x="4213" y="1288" on="1"/>
        <pt x="4182" y="1255" on="0"/>
        <pt x="4161" y="1244" on="1"/>
        <pt x="4157" y="1275" on="0"/>
        <pt x="4200" y="1352" on="1"/>
        <pt x="4247" y="1438" on="0"/>
        <pt x="4291" y="1438" on="1"/>
        <pt x="4302" y="1438" on="0"/>
        <pt x="4428" y="1366" on="0"/>
        <pt x="4439" y="1366" on="1"/>
        <pt x="4528" y="1366" on="0"/>
        <pt x="4688" y="1439" on="1"/>
        <pt x="4733" y="1460" on="0"/>
        <pt x="4811" y="1519" on="1"/>
        <pt x="4849" y="1519" on="0"/>
      </contour>
      <contour>
        <pt x="5841" y="110" on="1"/>
        <pt x="5772" y="25" on="0"/>
        <pt x="5709" y="25" on="1"/>
        <pt x="5696" y="25" on="0"/>
        <pt x="5476" y="45" on="0"/>
        <pt x="5463" y="45" on="1"/>
        <pt x="5420" y="45" on="0"/>
        <pt x="5317" y="7" on="1"/>
        <pt x="5250" y="-18" on="0"/>
        <pt x="5183" y="-44" on="1"/>
        <pt x="5074" y="-77" on="0"/>
        <pt x="4965" y="-110" on="1"/>
        <pt x="4826" y="-149" on="0"/>
        <pt x="4757" y="-149" on="1"/>
        <pt x="4564" y="-149" on="0"/>
        <pt x="4524" y="-54" on="1"/>
        <pt x="4471" y="74" on="0"/>
        <pt x="4451" y="356" on="1"/>
        <pt x="4443" y="556" on="0"/>
        <pt x="4435" y="756" on="1"/>
        <pt x="4433" y="795" on="0"/>
        <pt x="4410" y="908" on="1"/>
        <pt x="4388" y="1018" on="0"/>
        <pt x="4388" y="1028" on="1"/>
        <pt x="4388" y="1064" on="0"/>
        <pt x="4453" y="1150" on="1"/>
        <pt x="4473" y="1147" on="0"/>
        <pt x="4496" y="1093" on="1"/>
        <pt x="4514" y="1047" on="0"/>
        <pt x="4517" y="1013" on="1"/>
        <pt x="4541" y="760" on="0"/>
        <pt x="4537" y="695" on="1"/>
        <pt x="4537" y="660" on="0"/>
        <pt x="4537" y="625" on="1"/>
        <pt x="4537" y="533" on="0"/>
        <pt x="4549" y="412" on="1"/>
        <pt x="4568" y="219" on="0"/>
        <pt x="4569" y="214" on="1"/>
        <pt x="4584" y="14" on="0"/>
        <pt x="4792" y="14" on="1"/>
        <pt x="4877" y="14" on="0"/>
        <pt x="4963" y="34" on="1"/>
        <pt x="5067" y="57" on="0"/>
        <pt x="5094" y="95" on="1"/>
        <pt x="5065" y="116" on="0"/>
        <pt x="4980" y="141" on="1"/>
        <pt x="4890" y="168" on="0"/>
        <pt x="4839" y="168" on="1"/>
        <pt x="4781" y="168" on="0"/>
        <pt x="4750" y="157" on="1"/>
        <pt x="4726" y="182" on="0"/>
        <pt x="4726" y="193" on="1"/>
        <pt x="4726" y="212" on="0"/>
        <pt x="4750" y="248" on="1"/>
        <pt x="4777" y="288" on="0"/>
        <pt x="4810" y="306" on="1"/>
        <pt x="4876" y="343" on="0"/>
        <pt x="5000" y="382" on="1"/>
        <pt x="5144" y="426" on="0"/>
        <pt x="5189" y="446" on="1"/>
        <pt x="5233" y="465" on="0"/>
        <pt x="5383" y="579" on="1"/>
        <pt x="5420" y="624" on="0"/>
        <pt x="5458" y="669" on="1"/>
        <pt x="5531" y="751" on="0"/>
        <pt x="5565" y="751" on="1"/>
        <pt x="5609" y="751" on="0"/>
        <pt x="5652" y="637" on="1"/>
        <pt x="5688" y="543" on="0"/>
        <pt x="5688" y="510" on="1"/>
        <pt x="5688" y="483" on="0"/>
        <pt x="5655" y="449" on="1"/>
        <pt x="5628" y="422" on="0"/>
        <pt x="5610" y="414" on="1"/>
        <pt x="5575" y="508" on="0"/>
        <pt x="5537" y="564" on="1"/>
        <pt x="5535" y="565" on="0"/>
        <pt x="5529" y="573" on="1"/>
        <pt x="5525" y="578" on="0"/>
        <pt x="5509" y="578" on="1"/>
        <pt x="5500" y="578" on="0"/>
        <pt x="5445" y="516" on="1"/>
        <pt x="5374" y="437" on="0"/>
        <pt x="5348" y="415" on="1"/>
        <pt x="5338" y="405" on="0"/>
        <pt x="5155" y="283" on="1"/>
        <pt x="5155" y="275" on="0"/>
        <pt x="5173" y="262" on="1"/>
        <pt x="5484" y="178" on="0"/>
        <pt x="5545" y="178" on="1"/>
        <pt x="5546" y="178" on="0"/>
        <pt x="5769" y="166" on="0"/>
        <pt x="5824" y="166" on="1"/>
        <pt x="5841" y="176" on="1"/>
      </contour>
      <contour>
        <pt x="5780" y="-344" on="1"/>
        <pt x="5780" y="-383" on="0"/>
        <pt x="5738" y="-407" on="1"/>
        <pt x="5707" y="-425" on="0"/>
        <pt x="5688" y="-425" on="1"/>
        <pt x="5678" y="-425" on="0"/>
        <pt x="5606" y="-395" on="0"/>
        <pt x="5591" y="-395" on="1"/>
        <pt x="5579" y="-395" on="0"/>
        <pt x="5481" y="-457" on="0"/>
        <pt x="5468" y="-457" on="1"/>
        <pt x="5442" y="-457" on="0"/>
        <pt x="5410" y="-422" on="1"/>
        <pt x="5381" y="-392" on="0"/>
        <pt x="5381" y="-375" on="1"/>
        <pt x="5381" y="-356" on="0"/>
        <pt x="5450" y="-272" on="0"/>
        <pt x="5468" y="-272" on="1"/>
        <pt x="5479" y="-272" on="0"/>
        <pt x="5546" y="-313" on="0"/>
        <pt x="5561" y="-313" on="1"/>
        <pt x="5573" y="-313" on="0"/>
        <pt x="5661" y="-241" on="0"/>
        <pt x="5673" y="-241" on="1"/>
        <pt x="5701" y="-241" on="0"/>
        <pt x="5742" y="-285" on="1"/>
        <pt x="5780" y="-325" on="0"/>
      </contour>
      <contour>
        <pt x="3712" y="1371" on="1"/>
        <pt x="3712" y="1350" on="0"/>
        <pt x="3678" y="1304" on="0"/>
        <pt x="3661" y="1304" on="1"/>
        <pt x="3649" y="1304" on="0"/>
        <pt x="3572" y="1345" on="0"/>
        <pt x="3558" y="1345" on="1"/>
        <pt x="3558" y="1345" on="0"/>
        <pt x="3436" y="1244" on="1"/>
        <pt x="3304" y="1135" on="0"/>
        <pt x="3164" y="1099" on="1"/>
        <pt x="3149" y="1112" on="0"/>
        <pt x="3140" y="1112" on="1"/>
        <pt x="3157" y="1144" on="0"/>
        <pt x="3314" y="1253" on="1"/>
        <pt x="3456" y="1353" on="0"/>
        <pt x="3456" y="1397" on="1"/>
        <pt x="3456" y="1407" on="0"/>
        <pt x="3385" y="1485" on="0"/>
        <pt x="3385" y="1499" on="1"/>
        <pt x="3385" y="1553" on="0"/>
        <pt x="3448" y="1620" on="1"/>
        <pt x="3508" y="1683" on="0"/>
        <pt x="3554" y="1683" on="1"/>
        <pt x="3575" y="1683" on="0"/>
        <pt x="3587" y="1679" on="1"/>
        <pt x="3631" y="1642" on="0"/>
        <pt x="3637" y="1607" on="1"/>
        <pt x="3628" y="1571" on="0"/>
        <pt x="3622" y="1505" on="1"/>
        <pt x="3626" y="1481" on="0"/>
        <pt x="3712" y="1382" on="0"/>
      </contour>
      <contour>
        <pt x="3733" y="1104" on="1"/>
        <pt x="3733" y="996" on="0"/>
        <pt x="3649" y="929" on="1"/>
        <pt x="3647" y="927" on="0"/>
        <pt x="3555" y="901" on="1"/>
        <pt x="3423" y="864" on="0"/>
        <pt x="3431" y="864" on="1"/>
        <pt x="3404" y="864" on="0"/>
        <pt x="3364" y="909" on="0"/>
        <pt x="3364" y="936" on="1"/>
        <pt x="3364" y="972" on="0"/>
        <pt x="3393" y="1012" on="1"/>
        <pt x="3419" y="1048" on="0"/>
        <pt x="3445" y="1058" on="1"/>
        <pt x="3445" y="1058" on="0"/>
        <pt x="3445" y="985" on="1"/>
        <pt x="3448" y="985" on="0"/>
        <pt x="3457" y="976" on="0"/>
        <pt x="3472" y="976" on="1"/>
        <pt x="3495" y="976" on="0"/>
        <pt x="3527" y="1038" on="1"/>
        <pt x="3544" y="1073" on="0"/>
        <pt x="3562" y="1108" on="1"/>
        <pt x="3599" y="1108" on="1"/>
        <pt x="3599" y="1035" on="1"/>
        <pt x="3617" y="1017" on="1"/>
        <pt x="3657" y="1038" on="0"/>
        <pt x="3665" y="1085" on="1"/>
        <pt x="3675" y="1138" on="0"/>
        <pt x="3708" y="1161" on="1"/>
        <pt x="3733" y="1135" on="0"/>
      </contour>
      <contour>
        <pt x="3917" y="-195" on="1"/>
        <pt x="3917" y="-228" on="0"/>
        <pt x="3853" y="-303" on="0"/>
        <pt x="3825" y="-303" on="1"/>
        <pt x="3789" y="-303" on="0"/>
        <pt x="3748" y="-253" on="1"/>
        <pt x="3712" y="-211" on="0"/>
        <pt x="3712" y="-200" on="1"/>
        <pt x="3712" y="-181" on="0"/>
        <pt x="3780" y="-98" on="0"/>
        <pt x="3804" y="-98" on="1"/>
        <pt x="3830" y="-98" on="0"/>
        <pt x="3917" y="-172" on="0"/>
      </contour>
      <contour>
        <pt x="4347" y="234" on="1"/>
        <pt x="4347" y="202" on="0"/>
        <pt x="4245" y="127" on="0"/>
        <pt x="4209" y="127" on="1"/>
        <pt x="4196" y="127" on="0"/>
        <pt x="4017" y="147" on="0"/>
        <pt x="4004" y="147" on="1"/>
        <pt x="3915" y="147" on="0"/>
        <pt x="3832" y="124" on="1"/>
        <pt x="3807" y="117" on="0"/>
        <pt x="3607" y="48" on="1"/>
        <pt x="3533" y="35" on="0"/>
        <pt x="3392" y="-9" on="1"/>
        <pt x="3372" y="-18" on="0"/>
        <pt x="3359" y="-55" on="1"/>
        <pt x="3350" y="-86" on="0"/>
        <pt x="3340" y="-115" on="1"/>
        <pt x="3325" y="-148" on="0"/>
        <pt x="3299" y="-208" on="1"/>
        <pt x="3264" y="-289" on="0"/>
        <pt x="3164" y="-403" on="1"/>
        <pt x="3118" y="-457" on="0"/>
        <pt x="3074" y="-474" on="1"/>
        <pt x="3012" y="-498" on="0"/>
        <pt x="2851" y="-498" on="1"/>
        <pt x="2695" y="-498" on="1"/>
        <pt x="2679" y="-498" on="0"/>
        <pt x="2555" y="-462" on="0"/>
        <pt x="2546" y="-453" on="1"/>
        <pt x="2546" y="-418" on="1"/>
        <pt x="2569" y="-395" on="0"/>
        <pt x="2602" y="-395" on="1"/>
        <pt x="2614" y="-395" on="0"/>
        <pt x="2696" y="-405" on="0"/>
        <pt x="2709" y="-405" on="1"/>
        <pt x="2878" y="-405" on="0"/>
        <pt x="3018" y="-329" on="1"/>
        <pt x="3186" y="-239" on="0"/>
        <pt x="3262" y="-61" on="1"/>
        <pt x="3262" y="-50" on="0"/>
        <pt x="3246" y="-40" on="1"/>
        <pt x="3232" y="-41" on="0"/>
        <pt x="3218" y="-41" on="1"/>
        <pt x="3128" y="-41" on="0"/>
        <pt x="3050" y="-4" on="1"/>
        <pt x="2965" y="36" on="0"/>
        <pt x="2965" y="91" on="1"/>
        <pt x="2965" y="142" on="0"/>
        <pt x="3015" y="246" on="1"/>
        <pt x="3076" y="373" on="0"/>
        <pt x="3144" y="373" on="1"/>
        <pt x="3185" y="373" on="0"/>
        <pt x="3259" y="275" on="1"/>
        <pt x="3310" y="206" on="0"/>
        <pt x="3361" y="137" on="1"/>
        <pt x="3509" y="165" on="0"/>
        <pt x="3510" y="165" on="1"/>
        <pt x="3604" y="188" on="0"/>
        <pt x="3692" y="226" on="1"/>
        <pt x="3693" y="229" on="0"/>
        <pt x="3689" y="242" on="1"/>
        <pt x="3616" y="321" on="0"/>
        <pt x="3523" y="321" on="1"/>
        <pt x="3499" y="321" on="0"/>
        <pt x="3324" y="288" on="1"/>
        <pt x="3303" y="300" on="1"/>
        <pt x="3321" y="342" on="0"/>
        <pt x="3368" y="412" on="1"/>
        <pt x="3408" y="448" on="0"/>
        <pt x="3535" y="526" on="0"/>
        <pt x="3554" y="526" on="1"/>
        <pt x="3563" y="526" on="0"/>
        <pt x="3681" y="460" on="1"/>
        <pt x="3820" y="382" on="0"/>
        <pt x="3883" y="354" on="1"/>
        <pt x="3958" y="321" on="0"/>
        <pt x="4102" y="301" on="1"/>
        <pt x="4277" y="275" on="0"/>
        <pt x="4335" y="259" on="1"/>
        <pt x="4347" y="258" on="0"/>
      </contour>
      <contour>
        <pt x="2443" y="1243" on="1"/>
        <pt x="2443" y="1224" on="0"/>
        <pt x="2418" y="1185" on="1"/>
        <pt x="2391" y="1143" on="0"/>
        <pt x="2368" y="1133" on="1"/>
        <pt x="2234" y="1082" on="0"/>
        <pt x="1959" y="973" on="1"/>
        <pt x="1501" y="788" on="0"/>
        <pt x="996" y="543" on="1"/>
        <pt x="971" y="531" on="0"/>
        <pt x="808" y="437" on="1"/>
        <pt x="686" y="369" on="0"/>
        <pt x="604" y="342" on="1"/>
        <pt x="590" y="356" on="0"/>
        <pt x="590" y="378" on="1"/>
        <pt x="590" y="434" on="0"/>
        <pt x="643" y="470" on="1"/>
        <pt x="717" y="507" on="0"/>
        <pt x="858" y="579" on="1"/>
        <pt x="1081" y="696" on="0"/>
        <pt x="1299" y="795" on="1"/>
        <pt x="2037" y="1130" on="0"/>
        <pt x="2429" y="1273" on="1"/>
        <pt x="2443" y="1259" on="0"/>
      </contour>
      <contour>
        <pt x="1808" y="214" on="1"/>
        <pt x="1808" y="166" on="0"/>
        <pt x="1755" y="133" on="1"/>
        <pt x="1712" y="106" on="0"/>
        <pt x="1685" y="106" on="1"/>
        <pt x="1650" y="106" on="0"/>
        <pt x="1614" y="150" on="1"/>
        <pt x="1583" y="189" on="0"/>
        <pt x="1583" y="214" on="1"/>
        <pt x="1583" y="231" on="0"/>
        <pt x="1656" y="311" on="0"/>
        <pt x="1675" y="311" on="1"/>
        <pt x="1699" y="311" on="0"/>
        <pt x="1755" y="268" on="1"/>
        <pt x="1808" y="226" on="0"/>
      </contour>
      <contour>
        <pt x="2698" y="178" on="1"/>
        <pt x="2698" y="157" on="0"/>
        <pt x="2678" y="89" on="1"/>
        <pt x="2655" y="13" on="0"/>
        <pt x="2633" y="-24" on="1"/>
        <pt x="2553" y="-157" on="0"/>
        <pt x="2419" y="-217" on="1"/>
        <pt x="2095" y="-366" on="0"/>
        <pt x="1926" y="-378" on="1"/>
        <pt x="1913" y="-379" on="0"/>
        <pt x="1833" y="-405" on="0"/>
        <pt x="1818" y="-405" on="1"/>
        <pt x="1846" y="-405" on="0"/>
        <pt x="1651" y="-411" on="1"/>
        <pt x="1482" y="-416" on="0"/>
        <pt x="1393" y="-412" on="1"/>
        <pt x="1354" y="-412" on="0"/>
        <pt x="1243" y="-403" on="1"/>
        <pt x="1140" y="-395" on="0"/>
        <pt x="1127" y="-395" on="1"/>
        <pt x="1107" y="-395" on="0"/>
        <pt x="978" y="-364" on="1"/>
        <pt x="840" y="-331" on="0"/>
        <pt x="787" y="-310" on="1"/>
        <pt x="743" y="-293" on="0"/>
        <pt x="589" y="-178" on="1"/>
        <pt x="416" y="-49" on="0"/>
        <pt x="416" y="-9" on="1"/>
        <pt x="416" y="43" on="1"/>
        <pt x="418" y="55" on="0"/>
        <pt x="441" y="55" on="1"/>
        <pt x="447" y="55" on="0"/>
        <pt x="568" y="-45" on="1"/>
        <pt x="627" y="-96" on="0"/>
        <pt x="765" y="-136" on="1"/>
        <pt x="875" y="-165" on="0"/>
        <pt x="985" y="-194" on="1"/>
        <pt x="1025" y="-209" on="0"/>
        <pt x="1107" y="-229" on="1"/>
        <pt x="1444" y="-262" on="0"/>
        <pt x="1573" y="-262" on="1"/>
        <pt x="1822" y="-262" on="0"/>
        <pt x="2311" y="-135" on="0"/>
        <pt x="2466" y="-31" on="1"/>
        <pt x="2596" y="57" on="0"/>
        <pt x="2596" y="102" on="1"/>
        <pt x="2596" y="114" on="0"/>
        <pt x="2494" y="278" on="0"/>
        <pt x="2494" y="291" on="1"/>
        <pt x="2494" y="322" on="0"/>
        <pt x="2548" y="402" on="1"/>
        <pt x="2584" y="402" on="1"/>
        <pt x="2698" y="257" on="0"/>
      </contour>
      <contour>
        <pt x="5606" y="1411" on="1"/>
        <pt x="5584" y="1457" on="0"/>
        <pt x="5558" y="1457" on="1"/>
        <pt x="5525" y="1425" on="0"/>
        <pt x="5525" y="1420" on="1"/>
        <pt x="5548" y="1408" on="0"/>
        <pt x="5592" y="1386" on="1"/>
        <pt x="5602" y="1396" on="0"/>
      </contour>
      <contour>
        <pt x="3547" y="1520" on="1"/>
        <pt x="3547" y="1548" on="0"/>
        <pt x="3536" y="1556" on="1"/>
        <pt x="3526" y="1560" on="0"/>
        <pt x="3508" y="1547" on="1"/>
        <pt x="3521" y="1520" on="0"/>
      </contour>
      <contour>
        <pt x="3179" y="134" on="1"/>
        <pt x="3173" y="161" on="0"/>
        <pt x="3126" y="208" on="0"/>
        <pt x="3111" y="208" on="1"/>
        <pt x="3088" y="185" on="0"/>
        <pt x="3088" y="161" on="1"/>
        <pt x="3141" y="125" on="0"/>
      </contour>
    </TTGlyph>
    <TTGlyph name="uniFB53" xMin="261" yMin="-524" xMax="1428" yMax="1196">
      <contour>
        <pt x="957" y="1099" on="1"/>
        <pt x="957" y="1080" on="0"/>
        <pt x="898" y="1001" on="0"/>
        <pt x="880" y="1001" on="1"/>
        <pt x="835" y="1001" on="0"/>
        <pt x="806" y="1034" on="1"/>
        <pt x="783" y="1059" on="0"/>
        <pt x="783" y="1083" on="1"/>
        <pt x="783" y="1115" on="0"/>
        <pt x="835" y="1196" on="0"/>
        <pt x="855" y="1196" on="1"/>
        <pt x="886" y="1196" on="0"/>
        <pt x="924" y="1153" on="1"/>
        <pt x="957" y="1114" on="0"/>
      </contour>
      <contour>
        <pt x="1356" y="120" on="1"/>
        <pt x="1356" y="91" on="0"/>
        <pt x="1321" y="21" on="1"/>
        <pt x="1247" y="-126" on="0"/>
        <pt x="975" y="-235" on="1"/>
        <pt x="911" y="-259" on="0"/>
        <pt x="788" y="-281" on="1"/>
        <pt x="686" y="-299" on="0"/>
        <pt x="655" y="-299" on="1"/>
        <pt x="572" y="-299" on="0"/>
        <pt x="438" y="-240" on="1"/>
        <pt x="337" y="-197" on="0"/>
        <pt x="261" y="-89" on="0"/>
        <pt x="261" y="13" on="1"/>
        <pt x="261" y="89" on="0"/>
        <pt x="318" y="203" on="1"/>
        <pt x="381" y="330" on="0"/>
        <pt x="461" y="377" on="1"/>
        <pt x="476" y="362" on="0"/>
        <pt x="476" y="341" on="1"/>
        <pt x="476" y="338" on="0"/>
        <pt x="365" y="143" on="1"/>
        <pt x="363" y="140" on="0"/>
        <pt x="363" y="100" on="1"/>
        <pt x="363" y="-31" on="0"/>
        <pt x="494" y="-94" on="1"/>
        <pt x="581" y="-135" on="0"/>
        <pt x="691" y="-135" on="1"/>
        <pt x="813" y="-135" on="0"/>
        <pt x="993" y="-67" on="1"/>
        <pt x="1179" y="2" on="0"/>
        <pt x="1233" y="75" on="1"/>
        <pt x="1209" y="115" on="0"/>
        <pt x="1083" y="119" on="1"/>
        <pt x="997" y="119" on="0"/>
        <pt x="912" y="119" on="1"/>
        <pt x="900" y="120" on="0"/>
        <pt x="889" y="120" on="1"/>
        <pt x="844" y="127" on="0"/>
        <pt x="844" y="172" on="1"/>
        <pt x="844" y="235" on="0"/>
        <pt x="910" y="250" on="1"/>
        <pt x="1161" y="308" on="0"/>
        <pt x="1161" y="413" on="1"/>
        <pt x="1161" y="453" on="0"/>
        <pt x="1125" y="489" on="1"/>
        <pt x="1057" y="441" on="0"/>
        <pt x="1032" y="433" on="1"/>
        <pt x="1019" y="428" on="0"/>
        <pt x="967" y="428" on="1"/>
        <pt x="844" y="428" on="0"/>
        <pt x="844" y="551" on="1"/>
        <pt x="844" y="623" on="0"/>
        <pt x="894" y="724" on="1"/>
        <pt x="955" y="848" on="0"/>
        <pt x="1034" y="848" on="1"/>
        <pt x="1074" y="848" on="0"/>
        <pt x="1146" y="735" on="1"/>
        <pt x="1206" y="642" on="0"/>
        <pt x="1229" y="578" on="1"/>
        <pt x="1243" y="539" on="0"/>
        <pt x="1243" y="494" on="1"/>
        <pt x="1243" y="405" on="0"/>
        <pt x="1182" y="269" on="1"/>
        <pt x="1192" y="243" on="0"/>
        <pt x="1248" y="233" on="1"/>
        <pt x="1312" y="222" on="0"/>
        <pt x="1342" y="189" on="1"/>
        <pt x="1356" y="111" on="0"/>
      </contour>
      <contour>
        <pt x="1428" y="-278" on="1"/>
        <pt x="1428" y="-369" on="0"/>
        <pt x="951" y="-524" on="1"/>
        <pt x="926" y="-499" on="1"/>
        <pt x="936" y="-468" on="0"/>
        <pt x="970" y="-425" on="1"/>
        <pt x="1109" y="-367" on="0"/>
        <pt x="1381" y="-248" on="1"/>
        <pt x="1414" y="-248" on="1"/>
        <pt x="1428" y="-261" on="0"/>
      </contour>
      <contour>
        <pt x="1048" y="582" on="1"/>
        <pt x="1048" y="618" on="1"/>
        <pt x="1038" y="641" on="0"/>
        <pt x="1006" y="673" on="1"/>
        <pt x="970" y="673" on="1"/>
        <pt x="947" y="628" on="0"/>
        <pt x="947" y="605" on="1"/>
        <pt x="981" y="571" on="0"/>
        <pt x="1003" y="571" on="1"/>
        <pt x="1018" y="571" on="0"/>
        <pt x="1044" y="582" on="0"/>
      </contour>
    </TTGlyph>
    <TTGlyph name="uniFB54" xMin="217" yMin="-419" xMax="1977" yMax="1607">
      <contour>
        <pt x="1977" y="1407" on="1"/>
        <pt x="1977" y="1352" on="0"/>
        <pt x="1891" y="1272" on="1"/>
        <pt x="1811" y="1198" on="0"/>
        <pt x="1773" y="1198" on="1"/>
        <pt x="1611" y="1198" on="0"/>
        <pt x="1613" y="1198" on="1"/>
        <pt x="1599" y="1212" on="0"/>
        <pt x="1599" y="1229" on="1"/>
        <pt x="1599" y="1262" on="0"/>
        <pt x="1642" y="1305" on="1"/>
        <pt x="1670" y="1314" on="0"/>
        <pt x="1724" y="1343" on="1"/>
        <pt x="1756" y="1386" on="0"/>
        <pt x="1790" y="1430" on="1"/>
        <pt x="1840" y="1495" on="0"/>
        <pt x="1886" y="1495" on="1"/>
        <pt x="1920" y="1495" on="0"/>
        <pt x="1950" y="1460" on="1"/>
        <pt x="1977" y="1430" on="0"/>
      </contour>
      <contour>
        <pt x="1415" y="1550" on="1"/>
        <pt x="1415" y="1538" on="0"/>
        <pt x="1351" y="1492" on="1"/>
        <pt x="1284" y="1443" on="0"/>
        <pt x="1144" y="1362" on="1"/>
        <pt x="977" y="1266" on="0"/>
        <pt x="919" y="1229" on="1"/>
        <pt x="885" y="1229" on="1"/>
        <pt x="862" y="1250" on="0"/>
        <pt x="862" y="1280" on="1"/>
        <pt x="862" y="1319" on="0"/>
        <pt x="1111" y="1466" on="1"/>
        <pt x="1349" y="1607" on="0"/>
        <pt x="1374" y="1607" on="1"/>
        <pt x="1390" y="1607" on="0"/>
        <pt x="1415" y="1584" on="1"/>
      </contour>
      <contour>
        <pt x="1855" y="225" on="1"/>
        <pt x="1855" y="197" on="0"/>
        <pt x="1830" y="129" on="1"/>
        <pt x="1804" y="59" on="0"/>
        <pt x="1786" y="52" on="1"/>
        <pt x="1660" y="998" on="1"/>
        <pt x="1656" y="1031" on="0"/>
        <pt x="1702" y="1121" on="0"/>
        <pt x="1739" y="1146" on="1"/>
      </contour>
      <contour>
        <pt x="1322" y="1203" on="1"/>
        <pt x="1322" y="1073" on="0"/>
        <pt x="1155" y="1031" on="1"/>
        <pt x="1139" y="1026" on="0"/>
        <pt x="1092" y="1003" on="1"/>
        <pt x="1051" y="983" on="0"/>
        <pt x="1035" y="983" on="1"/>
        <pt x="1018" y="983" on="0"/>
        <pt x="987" y="1006" on="1"/>
        <pt x="953" y="1031" on="0"/>
        <pt x="953" y="1049" on="1"/>
        <pt x="953" y="1080" on="0"/>
        <pt x="976" y="1130" on="1"/>
        <pt x="996" y="1175" on="0"/>
        <pt x="1008" y="1186" on="1"/>
        <pt x="1044" y="1186" on="1"/>
        <pt x="1044" y="1183" on="0"/>
        <pt x="1035" y="1156" on="0"/>
        <pt x="1035" y="1141" on="1"/>
        <pt x="1035" y="1106" on="0"/>
        <pt x="1071" y="1106" on="1"/>
        <pt x="1106" y="1106" on="0"/>
        <pt x="1120" y="1153" on="1"/>
        <pt x="1135" y="1212" on="0"/>
        <pt x="1163" y="1229" on="1"/>
        <pt x="1197" y="1212" on="0"/>
        <pt x="1185" y="1182" on="1"/>
        <pt x="1188" y="1175" on="0"/>
        <pt x="1188" y="1155" on="1"/>
        <pt x="1206" y="1155" on="0"/>
        <pt x="1215" y="1147" on="1"/>
        <pt x="1229" y="1161" on="0"/>
        <pt x="1275" y="1248" on="0"/>
        <pt x="1297" y="1270" on="1"/>
        <pt x="1322" y="1244" on="0"/>
      </contour>
      <contour>
        <pt x="1517" y="184" on="1"/>
        <pt x="1517" y="-10" on="0"/>
        <pt x="1394" y="-10" on="1"/>
        <pt x="1283" y="-10" on="0"/>
        <pt x="1173" y="102" on="1"/>
        <pt x="1152" y="92" on="0"/>
        <pt x="1130" y="61" on="1"/>
        <pt x="1116" y="42" on="0"/>
        <pt x="1102" y="22" on="1"/>
        <pt x="1072" y="-10" on="0"/>
        <pt x="1018" y="-48" on="1"/>
        <pt x="954" y="-92" on="0"/>
        <pt x="923" y="-92" on="1"/>
        <pt x="835" y="-92" on="0"/>
        <pt x="782" y="-40" on="1"/>
        <pt x="742" y="0" on="0"/>
        <pt x="690" y="113" on="1"/>
        <pt x="650" y="80" on="0"/>
        <pt x="576" y="30" on="1"/>
        <pt x="514" y="0" on="0"/>
        <pt x="421" y="0" on="1"/>
        <pt x="360" y="0" on="0"/>
        <pt x="300" y="16" on="1"/>
        <pt x="217" y="39" on="0"/>
        <pt x="217" y="82" on="1"/>
        <pt x="217" y="125" on="0"/>
        <pt x="302" y="220" on="1"/>
        <pt x="378" y="304" on="0"/>
        <pt x="516" y="384" on="1"/>
        <pt x="555" y="401" on="0"/>
        <pt x="593" y="418" on="1"/>
        <pt x="653" y="446" on="0"/>
        <pt x="685" y="479" on="1"/>
        <pt x="700" y="496" on="0"/>
        <pt x="701" y="534" on="1"/>
        <pt x="700" y="569" on="0"/>
        <pt x="700" y="603" on="1"/>
        <pt x="768" y="603" on="1"/>
        <pt x="780" y="573" on="0"/>
        <pt x="780" y="494" on="1"/>
        <pt x="780" y="476" on="0"/>
        <pt x="778" y="392" on="0"/>
        <pt x="778" y="369" on="1"/>
        <pt x="778" y="82" on="0"/>
        <pt x="939" y="82" on="1"/>
        <pt x="1002" y="82" on="0"/>
        <pt x="1117" y="174" on="0"/>
        <pt x="1117" y="230" on="1"/>
        <pt x="1076" y="588" on="1"/>
        <pt x="1076" y="717" on="0"/>
        <pt x="1135" y="747" on="1"/>
        <pt x="1171" y="689" on="0"/>
        <pt x="1171" y="568" on="1"/>
        <pt x="1171" y="514" on="0"/>
        <pt x="1212" y="313" on="1"/>
        <pt x="1220" y="278" on="0"/>
        <pt x="1276" y="227" on="1"/>
        <pt x="1327" y="181" on="0"/>
        <pt x="1370" y="164" on="1"/>
        <pt x="1408" y="164" on="1"/>
        <pt x="1415" y="170" on="0"/>
        <pt x="1415" y="189" on="1"/>
        <pt x="1415" y="202" on="0"/>
        <pt x="1302" y="612" on="0"/>
        <pt x="1302" y="624" on="1"/>
        <pt x="1302" y="645" on="0"/>
        <pt x="1325" y="694" on="1"/>
        <pt x="1351" y="747" on="0"/>
        <pt x="1370" y="757" on="1"/>
        <pt x="1393" y="660" on="0"/>
        <pt x="1459" y="411" on="1"/>
        <pt x="1517" y="196" on="0"/>
      </contour>
      <contour>
        <pt x="780" y="-162" on="1"/>
        <pt x="768" y="-198" on="0"/>
        <pt x="736" y="-242" on="1"/>
        <pt x="636" y="-291" on="0"/>
        <pt x="486" y="-354" on="1"/>
        <pt x="331" y="-419" on="0"/>
        <pt x="313" y="-418" on="1"/>
        <pt x="258" y="-418" on="1"/>
        <pt x="263" y="-385" on="0"/>
        <pt x="283" y="-342" on="1"/>
        <pt x="318" y="-318" on="0"/>
        <pt x="476" y="-253" on="1"/>
        <pt x="564" y="-213" on="0"/>
        <pt x="744" y="-147" on="1"/>
        <pt x="751" y="-147" on="0"/>
      </contour>
      <contour>
        <pt x="1874" y="1343" on="1"/>
        <pt x="1874" y="1357" on="0"/>
        <pt x="1847" y="1382" on="0"/>
        <pt x="1838" y="1382" on="1"/>
        <pt x="1802" y="1366" on="0"/>
        <pt x="1784" y="1322" on="1"/>
        <pt x="1819" y="1328" on="0"/>
      </contour>
      <contour>
        <pt x="698" y="271" on="1"/>
        <pt x="698" y="319" on="0"/>
        <pt x="662" y="338" on="1"/>
        <pt x="606" y="313" on="0"/>
        <pt x="391" y="179" on="1"/>
        <pt x="490" y="153" on="0"/>
        <pt x="514" y="153" on="1"/>
        <pt x="570" y="153" on="0"/>
        <pt x="625" y="179" on="1"/>
        <pt x="698" y="212" on="0"/>
      </contour>
    </TTGlyph>
    <TTGlyph name="uniFB55" xMin="266" yMin="-512" xMax="1673" yMax="1618">
      <contour>
        <pt x="687" y="1459" on="1"/>
        <pt x="687" y="1439" on="0"/>
        <pt x="644" y="1378" on="0"/>
        <pt x="626" y="1375" on="1"/>
        <pt x="571" y="1366" on="0"/>
        <pt x="516" y="1358" on="1"/>
        <pt x="429" y="1339" on="0"/>
        <pt x="429" y="1300" on="1"/>
        <pt x="429" y="1292" on="0"/>
        <pt x="451" y="1198" on="1"/>
        <pt x="477" y="1095" on="0"/>
        <pt x="482" y="1050" on="1"/>
        <pt x="495" y="956" on="0"/>
        <pt x="495" y="895" on="1"/>
        <pt x="495" y="859" on="0"/>
        <pt x="454" y="768" on="1"/>
        <pt x="431" y="791" on="0"/>
        <pt x="429" y="853" on="1"/>
        <pt x="426" y="932" on="0"/>
        <pt x="425" y="936" on="1"/>
        <pt x="372" y="1133" on="0"/>
        <pt x="372" y="1229" on="1"/>
        <pt x="372" y="1248" on="0"/>
        <pt x="389" y="1309" on="1"/>
        <pt x="408" y="1375" on="0"/>
        <pt x="422" y="1400" on="1"/>
        <pt x="427" y="1408" on="0"/>
        <pt x="516" y="1471" on="1"/>
        <pt x="509" y="1495" on="0"/>
        <pt x="477" y="1495" on="1"/>
        <pt x="453" y="1495" on="0"/>
        <pt x="444" y="1484" on="1"/>
        <pt x="429" y="1500" on="0"/>
        <pt x="429" y="1520" on="1"/>
        <pt x="429" y="1547" on="0"/>
        <pt x="492" y="1618" on="0"/>
        <pt x="520" y="1618" on="1"/>
        <pt x="566" y="1618" on="0"/>
        <pt x="630" y="1546" on="1"/>
        <pt x="687" y="1482" on="0"/>
      </contour>
      <contour>
        <pt x="716" y="558" on="1"/>
        <pt x="716" y="528" on="0"/>
        <pt x="693" y="496" on="1"/>
        <pt x="667" y="460" on="0"/>
        <pt x="640" y="460" on="1"/>
        <pt x="604" y="460" on="0"/>
        <pt x="525" y="518" on="0"/>
        <pt x="525" y="542" on="1"/>
        <pt x="525" y="567" on="0"/>
        <pt x="586" y="655" on="0"/>
        <pt x="601" y="655" on="1"/>
        <pt x="632" y="655" on="0"/>
        <pt x="676" y="614" on="1"/>
        <pt x="716" y="576" on="0"/>
      </contour>
      <contour>
        <pt x="1634" y="-240" on="1"/>
        <pt x="1634" y="-296" on="0"/>
        <pt x="1428" y="-403" on="1"/>
        <pt x="1277" y="-482" on="0"/>
        <pt x="1189" y="-512" on="1"/>
        <pt x="1176" y="-500" on="0"/>
        <pt x="1166" y="-500" on="1"/>
        <pt x="1166" y="-466" on="1"/>
        <pt x="1166" y="-430" on="0"/>
        <pt x="1290" y="-369" on="1"/>
        <pt x="1364" y="-337" on="0"/>
        <pt x="1436" y="-304" on="1"/>
        <pt x="1505" y="-266" on="0"/>
        <pt x="1622" y="-215" on="1"/>
        <pt x="1634" y="-217" on="0"/>
      </contour>
      <contour>
        <pt x="1673" y="282" on="1"/>
        <pt x="1673" y="218" on="0"/>
        <pt x="1637" y="162" on="1"/>
        <pt x="1600" y="102" on="0"/>
        <pt x="1552" y="102" on="1"/>
        <pt x="1464" y="102" on="0"/>
        <pt x="1332" y="194" on="0"/>
        <pt x="1329" y="194" on="1"/>
        <pt x="1324" y="194" on="0"/>
        <pt x="1265" y="148" on="1"/>
        <pt x="1200" y="98" on="0"/>
        <pt x="1162" y="84" on="1"/>
        <pt x="1138" y="84" on="0"/>
        <pt x="1096" y="79" on="1"/>
        <pt x="1067" y="46" on="0"/>
        <pt x="1051" y="-46" on="1"/>
        <pt x="1033" y="-144" on="0"/>
        <pt x="998" y="-192" on="1"/>
        <pt x="942" y="-271" on="0"/>
        <pt x="760" y="-355" on="1"/>
        <pt x="688" y="-389" on="0"/>
        <pt x="597" y="-389" on="1"/>
        <pt x="488" y="-389" on="0"/>
        <pt x="388" y="-321" on="1"/>
        <pt x="266" y="-240" on="0"/>
        <pt x="266" y="-107" on="1"/>
        <pt x="266" y="-43" on="0"/>
        <pt x="329" y="84" on="1"/>
        <pt x="393" y="216" on="0"/>
        <pt x="431" y="215" on="1"/>
        <pt x="448" y="213" on="0"/>
        <pt x="448" y="189" on="1"/>
        <pt x="448" y="176" on="0"/>
        <pt x="362" y="-13" on="0"/>
        <pt x="362" y="-25" on="1"/>
        <pt x="362" y="-126" on="0"/>
        <pt x="475" y="-184" on="1"/>
        <pt x="557" y="-225" on="0"/>
        <pt x="635" y="-225" on="1"/>
        <pt x="673" y="-225" on="1"/>
        <pt x="719" y="-225" on="0"/>
        <pt x="834" y="-172" on="1"/>
        <pt x="916" y="-133" on="0"/>
        <pt x="971" y="-63" on="1"/>
        <pt x="984" y="-48" on="0"/>
        <pt x="984" y="5" on="1"/>
        <pt x="984" y="82" on="0"/>
        <pt x="962" y="136" on="1"/>
        <pt x="952" y="156" on="0"/>
        <pt x="916" y="221" on="1"/>
        <pt x="888" y="272" on="0"/>
        <pt x="888" y="287" on="1"/>
        <pt x="888" y="308" on="0"/>
        <pt x="905" y="351" on="1"/>
        <pt x="925" y="399" on="0"/>
        <pt x="940" y="399" on="1"/>
        <pt x="956" y="399" on="0"/>
        <pt x="978" y="356" on="1"/>
        <pt x="1006" y="301" on="0"/>
        <pt x="1031" y="278" on="1"/>
        <pt x="1075" y="235" on="0"/>
        <pt x="1146" y="235" on="1"/>
        <pt x="1223" y="235" on="0"/>
        <pt x="1304" y="323" on="1"/>
        <pt x="1325" y="346" on="0"/>
        <pt x="1428" y="486" on="1"/>
        <pt x="1493" y="573" on="0"/>
        <pt x="1528" y="573" on="1"/>
        <pt x="1574" y="573" on="0"/>
        <pt x="1591" y="540" on="1"/>
        <pt x="1618" y="487" on="0"/>
        <pt x="1646" y="392" on="1"/>
        <pt x="1673" y="305" on="0"/>
      </contour>
      <contour>
        <pt x="1537" y="288" on="1"/>
        <pt x="1537" y="324" on="1"/>
        <pt x="1521" y="356" on="0"/>
        <pt x="1486" y="399" on="1"/>
        <pt x="1461" y="387" on="0"/>
        <pt x="1424" y="342" on="1"/>
        <pt x="1476" y="287" on="0"/>
        <pt x="1496" y="288" on="1"/>
      </contour>
    </TTGlyph>
</ttFont>
